<?xml version="1.0" encoding="UTF-8"?>
<!DOCTYPE svg PUBLIC "-//W3C//DTD SVG 1.1//EN" "http://www.w3.org/Graphics/SVG/1.1/DTD/svg11.dtd">
<!-- Creator: CorelDRAW 2020 (64 Bit) -->
<svg xmlns="http://www.w3.org/2000/svg" xml:space="preserve" width="79.945mm" height="62.7007mm" version="1.1" style="shape-rendering:geometricPrecision; text-rendering:geometricPrecision; image-rendering:optimizeQuality; fill-rule:evenodd; clip-rule:evenodd"
viewBox="0 0 6671.69 5232.6"
 xmlns:xlink="http://www.w3.org/1999/xlink"
 xmlns:xodm="http://www.corel.com/coreldraw/odm/2003">
 <defs>
  <style type="text/css">
   <![CDATA[
    .fil1 {fill:black;fill-rule:nonzero}
    .fil3 {fill:black;fill-rule:nonzero}
    .fil0 {fill:#026802;fill-rule:nonzero}
    .fil2 {fill:white;fill-rule:nonzero}
   ]]>
  </style>
 </defs>
 <g id="Camada_x0020_1">
  <metadata id="CorelCorpID_0Corel-Layer"/>
  <path class="fil0" d="M810.91 5063.38c-354.04,0 -642.15,-288.01 -642.15,-642.08l0 -3437.76c0,-6.23 0.37,-12.39 1.03,-18.49l0 -148.66c0,-357.09 290.35,-647.53 647.27,-647.53l1102.53 0c356.48,0 646.62,289.58 647.5,645.91l2460.7 0c356.91,0 647.27,290.51 647.27,647.66l0 2953.3c0,357.07 -290.36,647.66 -647.27,647.66l-4216.88 0z"/>
  <path class="fil1" d="M1919.59 0l-1102.53 0c-449.95,0 -816.04,366.24 -816.04,816.38l0 141.04c-0.66,8.65 -1.02,17.38 -1.02,26.12l0 3437.76c0,447.12 363.74,810.87 810.91,810.87l4216.88 0c449.96,0 816.04,-366.24 816.04,-816.44l0 -2953.3c0,-450.2 -366.09,-816.43 -816.04,-816.43l-2309.84 0c-78.5,-368.6 -406.64,-645.98 -798.36,-645.98l0 0zm0 337.56c264.16,0 478.72,214.27 478.72,478.81l0 167.16 2629.48 0c264.17,0 478.5,214.5 478.5,478.88l0 2953.3c0,264.61 -214.33,478.88 -478.5,478.88l-4216.88 0c-261.38,0 -473.38,-211.98 -473.38,-473.31l0 -3437.76 1.04 0 0 -167.16c0,-264.55 214.33,-478.81 478.49,-478.81l1102.53 0z"/>
  <polygon class="fil0" points="5649.86,4808.53 4498.7,4849.82 4498.7,1923.76 6449.94,1870.95 6449.94,2774.4 "/>
  <path class="fil0" d="M5049.14 4703l-21.35 191.6 -3725.6 -3.58 0 -160.5 105.5 -389.87 710.83 -1912.46c0,0 -59.59,-499.95 820.97,-499.95 880.55,0 2614.14,45.87 2614.14,45.87l-504.49 2728.9z"/>
  <g>
   <path class="fil2" d="M3581.57 2798.77c-93.21,0 -168.78,-75.57 -168.78,-168.78 0,-93.21 75.57,-168.78 168.78,-168.78l0 337.55zm2012.21 0l-2012.21 0 0 -337.55 2012.21 0 0 337.55zm0 -337.55c93.21,0 168.78,75.57 168.78,168.78 0,93.21 -75.57,168.78 -168.78,168.78l0 -337.55z"/>
  </g>
  <g>
   <path class="fil3" d="M4982.66 5232.6c-93.21,0 -168.78,-75.57 -168.78,-168.78 0,-93.21 75.57,-168.78 168.78,-168.78l0 337.55zm516.29 -697.88l316.29 117.92 -0.02 0.03 -12.74 32.22 -13.92 31.59 -15.04 30.84 -16.13 30.1 -17.22 29.36 -18.23 28.57 -19.27 27.78 -20.24 26.92 -21.15 26.05 -22.07 25.2 -22.97 24.32 -23.82 23.39 -24.63 22.43 -25.4 21.49 -26.21 20.55 -26.92 19.51 -27.6 18.49 -28.32 17.48 -28.97 16.42 -29.55 15.32 -30.15 14.23 -30.73 13.12 -31.25 11.97 -31.76 10.81 -32.23 9.61 -32.68 8.41 -33.06 7.16 -33.43 5.92 -33.81 4.64 -34.1 3.35 -34.37 2.01 -34.57 0.68 0 -337.55 21.41 -0.43 21.21 -1.24 21.03 -2.06 20.84 -2.85 20.65 -3.66 20.43 -4.42 20.16 -5.19 19.93 -5.94 19.64 -6.68 19.35 -7.41 19.04 -8.13 18.72 -8.84 18.38 -9.53 17.98 -10.19 17.58 -10.86 17.22 -11.53 16.76 -12.15 16.28 -12.75 15.84 -13.39 15.35 -13.99 14.8 -14.55 14.28 -15.11 13.73 -15.67 13.19 -16.23 12.56 -16.72 11.94 -17.22 11.34 -17.75 10.69 -18.23 10.02 -18.72 9.36 -19.19 8.65 -19.62 7.94 -20.1 -0.02 0.03zm0.02 -0.03c32.58,-87.33 129.8,-131.72 217.12,-99.14 87.33,32.58 131.71,129.8 99.13,217.13l-316.26 -117.99zm1139.8 -2091.11l-823.53 2209.07 -316.29 -117.92 823.53 -2209.07 0.01 -0.02 316.28 117.94zm-316.29 -117.92c32.56,-87.33 129.77,-131.74 217.1,-99.18 87.33,32.56 131.74,129.77 99.18,217.1l-316.29 -117.92zm-165.74 -242.35l0 -337.55 0 0 32.98 1.03 32.56 3.08 31.94 5.07 31.27 6.99 30.48 8.85 29.63 10.65 28.66 12.34 27.61 13.95 26.58 15.51 25.44 16.99 24.21 18.33 23.02 19.65 21.76 20.91 20.41 22.02 19.1 23.15 17.73 24.22 16.3 25.19 14.83 26.09 13.32 26.92 11.8 27.78 10.18 28.5 8.54 29.17 6.84 29.79 5.08 30.32 3.29 30.8 1.42 31.16 -0.49 31.46 -2.45 31.61 -4.44 31.74 -6.48 31.73 -8.51 31.53 -10.57 31.28 -316.27 -117.95 3.87 -11.45 3.04 -11.28 2.26 -11.07 1.52 -10.96 0.84 -10.87 0.16 -10.75 -0.48 -10.63 -1.12 -10.52 -1.76 -10.44 -2.35 -10.26 -2.98 -10.14 -3.56 -9.96 -4.12 -9.71 -4.71 -9.51 -5.23 -9.21 -5.75 -8.87 -6.22 -8.5 -6.72 -8.15 -7.18 -7.75 -7.55 -7.26 -7.94 -6.78 -8.34 -6.32 -8.63 -5.76 -8.95 -5.23 -9.31 -4.71 -9.6 -4.15 -9.9 -3.56 -10.23 -2.98 -10.59 -2.37 -10.97 -1.74 -11.36 -1.08 -11.88 -0.38 0 0zm0 0c-93.21,0 -168.78,-75.57 -168.78,-168.78 0,-93.21 75.57,-168.78 168.78,-168.78l0 337.55zm-3343.22 -337.55l3343.22 0 0 337.55 -3343.22 0 0 0 0 -337.55zm0 337.55c-93.21,0 -168.78,-75.57 -168.78,-168.78 0,-93.21 75.57,-168.78 168.78,-168.78l0 337.55zm-515.23 352.77l-318.41 -112.03 1.38 -3.79 12.79 -31.85 13.94 -31.17 15.07 -30.49 16.18 -29.78 17.24 -29.02 18.28 -28.26 19.27 -27.44 20.24 -26.63 21.17 -25.8 22.09 -24.94 22.95 -24.05 23.8 -23.15 24.61 -22.24 25.42 -21.31 26.15 -20.33 26.89 -19.35 27.6 -18.36 28.27 -17.33 28.91 -16.3 29.53 -15.23 30.13 -14.14 30.66 -13.03 31.25 -11.93 31.72 -10.74 32.17 -9.57 32.67 -8.38 33.05 -7.14 33.41 -5.89 33.77 -4.63 34.12 -3.34 34.34 -2.01 34.57 -0.68 0 337.55 -21.41 0.43 -21.24 1.24 -21.03 2.05 -20.86 2.86 -20.69 3.66 -20.45 4.42 -20.19 5.17 -19.97 5.95 -19.7 6.67 -19.36 7.39 -19.11 8.12 -18.76 8.81 -18.4 9.49 -18.04 10.16 -17.64 10.82 -17.22 11.45 -16.79 12.09 -16.34 12.7 -15.84 13.28 -15.35 13.86 -14.84 14.44 -14.29 14.97 -13.73 15.5 -13.14 16.01 -12.56 16.53 -11.94 17.01 -11.3 17.46 -10.65 17.93 -9.99 18.38 -9.3 18.79 -8.61 19.25 -7.89 19.65 1.38 -3.79zm-1.38 3.79c-33.02,87.16 -130.47,131.05 -217.63,98.02 -87.16,-33.02 -131.05,-130.47 -98.02,-217.63l315.65 119.61zm-826.11 2220.31l-309.63 -134.43 0 0 22.28 -52.21 24.36 -58.7 26.21 -64.61 27.87 -69.89 29.3 -74.61 30.56 -78.78 31.63 -82.42 32.52 -85.53 33.24 -88.09 33.78 -90.15 34.13 -91.67 34.32 -92.7 34.33 -93.18 34.17 -93.17 33.83 -92.62 33.32 -91.57 32.64 -90 31.78 -87.92 30.76 -85.31 29.55 -82.19 28.18 -78.57 26.64 -74.42 24.91 -69.78 23.02 -64.59 20.96 -58.91 18.71 -52.73 16.32 -46.01 13.73 -38.78 10.97 -31.05 8.05 -22.79 4.94 -14.02 1.67 -4.74 318.41 112.03 -1.72 4.89 -4.99 14.15 -8.09 22.92 -11.02 31.19 -13.78 38.93 -16.37 46.16 -18.78 52.88 -21.02 59.11 -23.09 64.79 -24.99 69.98 -26.71 74.65 -28.27 78.81 -29.65 82.46 -30.86 85.59 -31.9 88.2 -32.76 90.33 -33.46 91.93 -33.98 93.02 -34.32 93.6 -34.52 93.67 -34.52 93.23 -34.37 92.3 -34.03 90.82 -33.52 88.88 -32.87 86.42 -32.03 83.45 -31.03 80.02 -29.88 76.08 -28.56 71.64 -27.1 66.76 -25.51 61.47 -23.8 55.76 0 0zm0 0c-37.11,85.5 -136.52,124.73 -222.02,87.61 -85.5,-37.12 -124.72,-136.54 -87.61,-222.04l309.63 134.43zm-1012.95 475.74l120.26 -315.4 -2.35 -0.87 2.1 0.74 4.35 1.44 6.72 2.05 9 2.54 11.14 2.84 13.1 3 14.79 2.95 16.43 2.77 17.86 2.45 19.08 1.96 20.1 1.33 21.02 0.56 21.76 -0.33 22.26 -1.32 22.67 -2.45 22.98 -3.68 23.1 -4.98 23.17 -6.43 23.19 -7.97 23.12 -9.63 23.09 -11.47 23.05 -13.47 23.02 -15.7 22.97 -18.16 22.92 -20.93 22.87 -24.03 22.7 -27.42 22.47 -31.18 22.07 -35.27 21.52 -39.67 20.8 -44.43 309.63 134.43 -28.97 61.87 -31.29 57.67 -33.46 53.44 -35.48 49.29 -37.37 45.15 -39.04 41.05 -40.49 37 -41.68 32.98 -42.53 29.05 -43.11 25.24 -43.37 21.56 -43.34 18.09 -42.99 14.81 -42.41 11.79 -41.58 9.02 -40.49 6.5 -39.3 4.27 -37.91 2.29 -36.29 0.56 -34.62 -0.91 -32.82 -2.14 -30.84 -3.15 -28.72 -3.91 -26.55 -4.47 -24.25 -4.82 -21.73 -4.95 -19.15 -4.87 -16.46 -4.61 -13.63 -4.14 -10.54 -3.45 -7.06 -2.45 -5.47 -2.02zm0 0c-87.09,-33.21 -130.78,-130.74 -97.57,-217.83 33.21,-87.09 130.74,-130.78 217.83,-97.57l-120.26 315.4z"/>
  </g>
 </g>
</svg>
