<?xml version="1.0" encoding="UTF-8"?>
<!DOCTYPE svg PUBLIC "-//W3C//DTD SVG 1.1//EN" "http://www.w3.org/Graphics/SVG/1.1/DTD/svg11.dtd">
<!-- Creator: CorelDRAW 2020 (64 Bit) -->
<svg xmlns="http://www.w3.org/2000/svg" xml:space="preserve" width="65.9533mm" height="77.9254mm" version="1.1" style="shape-rendering:geometricPrecision; text-rendering:geometricPrecision; image-rendering:optimizeQuality; fill-rule:evenodd; clip-rule:evenodd"
viewBox="0 0 1164.23 1375.57"
 xmlns:xlink="http://www.w3.org/1999/xlink"
 xmlns:xodm="http://www.corel.com/coreldraw/odm/2003">
 <defs>
  <style type="text/css">
   <![CDATA[
    .fil0 {fill:black;fill-rule:nonzero}
    .fil1 {fill:#026802;fill-rule:nonzero}
    .fil2 {fill:#FFCB05;fill-rule:nonzero}
   ]]>
  </style>
 </defs>
 <g id="Camada_x0020_1">
  <metadata id="CorelCorpID_0Corel-Layer"/>
  <path class="fil0" d="M720.09 0l-275.92 0c-82.63,0 -149.85,67.19 -149.85,149.8l0 401.15c0,82.58 67.22,149.8 149.85,149.8l275.92 0c82.61,0 149.83,-67.22 149.83,-149.8l0 -401.15c0,-82.61 -67.22,-149.8 -149.83,-149.8l0 0zm0 89.83c33.15,0 59.97,26.85 59.97,59.97l0 401.15c0,33.07 -26.82,59.94 -59.97,59.94l-275.92 0c-33.17,0 -59.99,-26.88 -59.99,-59.94l0 -401.15c0,-33.11 26.82,-59.97 59.99,-59.97l275.92 0z"/>
  <path class="fil1" d="M307.96 1330.64c-90.52,0 -164.15,-73.6 -164.15,-164.08l0 -887.9c0,-24.81 20.1,-44.93 44.91,-44.93l786.79 0c24.81,0 44.93,20.12 44.93,44.93l0 887.9c0,90.48 -73.65,164.08 -164.17,164.08l-548.32 0z"/>
  <path class="fil0" d="M975.51 188.83l-786.79 0c-49.62,0 -89.86,40.22 -89.86,89.83l0 887.9c0,115.25 93.8,209.01 209.1,209.01l548.32 0c115.29,0 209.1,-93.76 209.1,-209.01l0 -887.9c0,-49.62 -40.24,-89.83 -89.86,-89.83l0 0zm0 89.83l0 887.9c0,65.75 -53.43,119.15 -119.24,119.15l-548.32 0c-65.85,0 -119.24,-53.41 -119.24,-119.15l0 -887.9 786.79 0z"/>
  <polygon class="fil2" points="44.93,226.59 1119.3,226.59 "/>
  <g>
   <path class="fil0" d="M44.93 271.52c-24.81,0 -44.93,-20.11 -44.93,-44.93 0,-24.81 20.12,-44.93 44.93,-44.93l0 89.85zm1074.38 0l-1074.38 0 0 -89.85 1074.38 0 0 89.85zm0 -89.85c24.81,0 44.93,20.11 44.93,44.93 0,24.81 -20.12,44.93 -44.93,44.93l0 -89.85z"/>
  </g>
  <polygon class="fil2" points="582.12,459.9 582.12,1104.5 "/>
  <g>
   <path class="fil0" d="M537.19 459.9c0,-24.81 20.12,-44.93 44.93,-44.93 24.81,0 44.93,20.11 44.93,44.93l-89.86 0zm0 644.6l0 -644.6 89.86 0 0 644.6 -89.86 0zm89.86 0c0,24.81 -20.12,44.93 -44.93,44.93 -24.81,0 -44.93,-20.11 -44.93,-44.93l89.86 0z"/>
  </g>
  <g>
   <path class="fil0" d="M755.3 459.9c0,-24.81 20.12,-44.93 44.93,-44.93 24.81,0 44.93,20.11 44.93,44.93l-89.86 0zm0 644.6l0 -644.6 89.86 0 0 644.6 -89.86 0zm89.86 0c0,24.81 -20.12,44.93 -44.93,44.93 -24.81,0 -44.93,-20.11 -44.93,-44.93l89.86 0z"/>
  </g>
  <polygon class="fil2" points="364,459.9 364,1104.5 "/>
  <g>
   <path class="fil0" d="M319.07 459.9c0,-24.81 20.12,-44.93 44.93,-44.93 24.81,0 44.93,20.11 44.93,44.93l-89.86 0zm0 644.6l0 -644.6 89.86 0 0 644.6 -89.86 0zm89.86 0c0,24.81 -20.12,44.93 -44.93,44.93 -24.81,0 -44.93,-20.11 -44.93,-44.93l89.86 0z"/>
  </g>
 </g>
</svg>
