<?xml version="1.0" encoding="UTF-8"?>
<!DOCTYPE svg PUBLIC "-//W3C//DTD SVG 1.1//EN" "http://www.w3.org/Graphics/SVG/1.1/DTD/svg11.dtd">
<!-- Creator: CorelDRAW 2020 (64 Bit) -->
<svg xmlns="http://www.w3.org/2000/svg" xml:space="preserve" width="77.9231mm" height="70.7226mm" version="1.1" style="shape-rendering:geometricPrecision; text-rendering:geometricPrecision; image-rendering:optimizeQuality; fill-rule:evenodd; clip-rule:evenodd"
viewBox="0 0 962.09 873.19"
 xmlns:xlink="http://www.w3.org/1999/xlink"
 xmlns:xodm="http://www.corel.com/coreldraw/odm/2003">
 <defs>
  <style type="text/css">
   <![CDATA[
    .fil1 {fill:black;fill-rule:nonzero}
    .fil0 {fill:#026802;fill-rule:nonzero}
    .fil2 {fill:#FFCB05;fill-rule:nonzero}
    .fil3 {fill:white;fill-rule:nonzero}
   ]]>
  </style>
 </defs>
 <g id="Camada_x0020_1">
  <metadata id="CorelCorpID_0Corel-Layer"/>
  <path class="fil0" d="M120.09 838.35c-50.59,0 -91.75,-41.16 -91.75,-91.74l0 -626.56c0,-50.57 41.16,-91.7 91.75,-91.7l289.05 0c7.51,0 14.72,2.98 20.03,8.29l180.04 180.04c5.32,5.32 8.3,12.53 8.3,20.04l0 509.88c0,50.58 -41.16,91.74 -91.75,91.74l-405.67 0z"/>
  <path class="fil1" d="M409.13 0l-289.06 0c-66.19,0 -120.07,53.88 -120.07,120.07l0 626.55c0,66.19 53.88,120.07 120.07,120.07l405.68 0c66.24,0 120.07,-53.88 120.07,-120.07l0 -509.89c0,-15.06 -5.97,-29.45 -16.57,-40.06l-23.48 -23.44 -0.76 -0.76 -0.71 -0.81 -0.76 -0.76 -132.57 -132.57 -0.52 -0.52 -0.52 -0.47 -0.52 -0.47 -0.52 -0.52 -19.7 -19.74c-10.61,-10.65 -25,-16.62 -40.06,-16.62l0 0zm-30.54 56.68c-2.84,6.77 -4.36,14.16 -4.36,21.78l0 69.7c0,65.91 53.6,119.5 119.5,119.5l69.7 0c9.14,0 17.94,-2.18 25.76,-6.15l0 485.12c0,34.99 -28.36,63.4 -63.44,63.4l-405.68 0c-35.04,0 -63.4,-28.41 -63.4,-63.4l0 -626.55c0,-34.99 28.36,-63.4 63.4,-63.4l258.52 0zm184.84 154.35l-69.7 0c-34.71,0 -62.83,-28.22 -62.83,-62.88l0 -69.7 132.53 132.57z"/>
  <polygon class="fil2" points="178.2,331.6 467.71,331.6 "/>
  <polygon class="fil2" points="178.2,438.38 467.71,438.38 "/>
  <polygon class="fil2" points="178.2,545.14 467.71,545.14 "/>
  <polygon class="fil2" points="178.2,651.92 467.71,651.92 "/>
  <g>
   <path class="fil1" d="M178.2 359.94c-15.65,0 -28.33,-12.69 -28.33,-28.33 0,-15.65 12.69,-28.33 28.33,-28.33l0 56.67zm289.5 0l-289.5 0 0 -56.67 289.5 0 0 56.67zm0 -56.67c15.65,0 28.33,12.69 28.33,28.33 0,15.65 -12.69,28.33 -28.33,28.33l0 -56.67z"/>
  </g>
  <g>
   <path class="fil1" d="M178.2 466.71c-15.65,0 -28.33,-12.69 -28.33,-28.33 0,-15.65 12.69,-28.33 28.33,-28.33l0 56.67zm289.5 0l-289.5 0 0 -56.67 289.5 0 0 56.67zm0 -56.67c15.65,0 28.33,12.69 28.33,28.33 0,15.65 -12.69,28.33 -28.33,28.33l0 -56.67z"/>
  </g>
  <g>
   <path class="fil1" d="M178.2 573.47c-15.65,0 -28.33,-12.69 -28.33,-28.33 0,-15.65 12.69,-28.33 28.33,-28.33l0 56.67zm289.5 0l-289.5 0 0 -56.67 289.5 0 0 56.67zm0 -56.67c15.65,0 28.33,12.69 28.33,28.33 0,15.65 -12.69,28.33 -28.33,28.33l0 -56.67z"/>
  </g>
  <g>
   <path class="fil1" d="M178.2 680.25c-15.65,0 -28.33,-12.69 -28.33,-28.33 0,-15.65 12.69,-28.33 28.33,-28.33l0 56.67zm289.5 0l-289.5 0 0 -56.67 289.5 0 0 56.67zm0 -56.67c15.65,0 28.33,12.69 28.33,28.33 0,15.65 -12.69,28.33 -28.33,28.33l0 -56.67z"/>
  </g>
  <g>
   <path class="fil3" d="M179.09 158.81c-15.65,0 -28.33,-12.69 -28.33,-28.33 0,-15.65 12.69,-28.33 28.33,-28.33l0 56.67zm114.25 0l-114.25 0 0 -56.67 114.25 0 0 56.67zm0 -56.67c15.65,0 28.33,12.69 28.33,28.33 0,15.65 -12.69,28.33 -28.33,28.33l0 -56.67z"/>
  </g>
  <path class="fil0" d="M414.73 852.2c-17.71,0 -34.34,-7.94 -45.63,-21.79 -11.26,-13.76 -15.65,-31.69 -12.08,-49.16l24.69 -120.85c4.68,-22.8 15.84,-43.5 32.26,-59.91l310.56 -310.55c15.83,-15.83 36.87,-24.54 59.28,-24.54 22.42,0 43.5,8.72 59.34,24.55l73.38 73.4c15.83,15.83 24.57,36.88 24.58,59.3 0.02,22.4 -8.7,43.45 -24.54,59.29l-310.58 310.55c-16.36,16.38 -36.97,27.63 -59.58,32.55l-118.97 25.79c-4.18,0.91 -8.45,1.37 -12.7,1.37l0 0z"/>
  <path class="fil1" d="M783.8 244.4c-28.01,0 -54.35,10.9 -74.13,30.69l-310.56 310.55c-19.33,19.32 -32.46,43.7 -37.96,70.51l-24.7 120.9c-4.85,23.66 1.13,47.97 16.39,66.65 15.3,18.75 37.86,29.5 61.89,29.5 5.74,0 11.52,-0.63 17.18,-1.85l118.92 -25.77c26.58,-5.78 50.78,-19 70.01,-38.24l310.57 -310.54c19.8,-19.81 30.71,-46.14 30.7,-74.15 -0.02,-28.02 -10.94,-54.35 -30.75,-74.15l-73.35 -73.37c-19.82,-19.81 -46.16,-30.71 -74.19,-30.71l0 0zm0 41.99c16.11,0 32.22,6.14 44.5,18.41l73.37 73.38c24.58,24.57 24.58,64.38 0.05,88.92l-310.57 310.55c-13.47,13.49 -30.58,22.83 -49.21,26.87l-118.96 25.79c-2.78,0.6 -5.54,0.9 -8.24,0.9 -23.32,0 -42.08,-21.6 -37.14,-45.76l24.69 -120.85c3.83,-18.64 13.06,-35.81 26.52,-49.27l310.56 -310.55c12.27,-12.27 28.35,-18.39 44.44,-18.39z"/>
  <polygon class="fil0" points="786.87,442.37 858.52,514 599.49,773.04 527.86,701.38 "/>
  <polygon class="fil2" points="591.75,784.39 418.71,611.34 "/>
  <g>
   <polygon class="fil1" points="433.55,596.5 606.6,769.55 576.91,799.24 403.86,626.18 "/>
  </g>
  <polygon class="fil2" points="868.68,507.51 695.59,334.44 "/>
  <g>
   <polygon class="fil1" points="710.44,319.6 883.52,492.67 853.83,522.36 680.75,349.28 "/>
  </g>
  <path class="fil1" d="M422.97 830.31l53.68 -11.64 -87.89 -87.9 -11.17 54.68c-5.51,26.96 18.48,50.71 45.38,44.86z"/>
  <polygon class="fil2" points="516.03,690.44 778.33,428.11 "/>
  <g>
   <polygon class="fil1" points="793.18,442.96 530.88,705.28 501.18,675.6 763.49,413.27 "/>
  </g>
  <g>
   <path class="fil3" d="M584.99 549.27c-8.24,8.15 -21.53,8.08 -29.69,-0.16 -8.15,-8.24 -8.08,-21.53 0.16,-29.69l29.53 29.84zm108.39 -107.25l-108.39 107.25 -29.53 -29.84 108.39 -107.25 29.53 29.84zm-29.53 -29.84c8.24,-8.15 21.53,-8.08 29.69,0.16 8.15,8.24 8.08,21.53 -0.16,29.69l-29.53 -29.84z"/>
  </g>
  <g>
   <path class="fil3" d="M787.97 349.96c-9.37,6.83 -22.5,4.77 -29.33,-4.6 -6.83,-9.37 -4.77,-22.5 4.6,-29.33l24.74 33.93zm21.38 -36.12l-21.01 36.35 -0.27 -0.15 -0.21 -0.11 -0.17 -0.08 -0.13 -0.05 -0.1 -0.04 -0.05 -0.02 -0.01 -0 0.01 0 0.03 0.01 0.06 0.01 0.08 0.01 0.08 0 0.11 0 0.09 -0 0.1 -0.01 0.11 -0.01 0.07 -0.01 0.08 -0.01 0.08 -0.02 0.06 -0.01 0.03 -0.01 0.03 -0.01 0.01 -0 -0 0 -0.02 0.01 -0.02 0.01 -0.05 0.03 -0.07 0.04 -0.05 0.03 -0.08 0.05 -0.08 0.06 -0.08 0.06 -24.74 -33.93 0.87 -0.62 0.91 -0.61 0.94 -0.6 1.01 -0.61 1.03 -0.59 1.08 -0.58 1.14 -0.57 1.17 -0.54 1.23 -0.52 1.27 -0.49 1.33 -0.46 1.36 -0.42 1.42 -0.39 1.47 -0.34 1.5 -0.29 1.53 -0.24 1.59 -0.18 1.62 -0.12 1.64 -0.05 1.69 0.02 1.68 0.09 1.71 0.16 1.72 0.24 1.72 0.31 1.73 0.39 1.73 0.47 1.71 0.55 1.69 0.62 1.69 0.69 1.67 0.76 1.65 0.83 1.62 0.9zm0 0c10.04,5.8 13.47,18.64 7.67,28.68 -5.8,10.04 -18.64,13.47 -28.68,7.67l21.01 -36.35z"/>
  </g>
 </g>
</svg>
