<?xml version="1.0" encoding="UTF-8"?>
<!DOCTYPE svg PUBLIC "-//W3C//DTD SVG 1.1//EN" "http://www.w3.org/Graphics/SVG/1.1/DTD/svg11.dtd">
<!-- Creator: CorelDRAW 2020 (64 Bit) -->
<svg xmlns="http://www.w3.org/2000/svg" xml:space="preserve" width="77.924mm" height="66.6726mm" version="1.1" style="shape-rendering:geometricPrecision; text-rendering:geometricPrecision; image-rendering:optimizeQuality; fill-rule:evenodd; clip-rule:evenodd"
viewBox="0 0 695.47 595.05"
 xmlns:xlink="http://www.w3.org/1999/xlink"
 xmlns:xodm="http://www.corel.com/coreldraw/odm/2003">
 <defs>
  <style type="text/css">
   <![CDATA[
    .fil0 {fill:black}
    .fil1 {fill:#026802;fill-rule:nonzero}
   ]]>
  </style>
 </defs>
 <g id="Camada_x0020_1">
  <metadata id="CorelCorpID_0Corel-Layer"/>
  <path class="fil0" d="M564.2 440.57l0 84.77c0,38.48 -31.24,69.72 -69.72,69.72l-293.47 0c-38.48,0 -69.72,-31.24 -69.72,-69.72l0 -84.77 -30.69 0c-55.55,0 -100.59,-45.04 -100.59,-100.59l0 -154.44c0,-55.55 45.04,-100.59 100.59,-100.59l28.12 0c-2.84,-7.11 -4.4,-14.86 -4.4,-22.98 0,-34.22 27.75,-61.97 61.97,-61.97l322.92 0c34.22,0 61.97,27.75 61.97,61.97 0,8.12 -1.56,15.87 -4.4,22.98l28.12 0c55.55,0 100.59,45.04 100.59,100.59l0 154.44c0,55.55 -45.04,100.59 -100.59,100.59l-30.69 0z"/>
  <path class="fil1" d="M594.88 123.74l-494.28 0c-34.12,0 -61.78,27.66 -61.78,61.78l0 154.46c0,34.12 27.66,61.78 61.78,61.78l30.89 0 0 -54.06c0,-29.81 24.25,-54.06 54.06,-54.06l324.37 0c29.81,0 54.07,24.25 54.07,54.06l0 54.06 30.89 0c34.12,0 61.78,-27.67 61.78,-61.78l0 -154.46c0,-34.12 -27.66,-61.78 -61.78,-61.78zm-466.08 114.64c-15.86,0 -28.73,-12.87 -28.73,-28.71 0,-15.85 12.87,-28.71 28.73,-28.71 15.85,0 28.71,12.86 28.71,28.71 0,15.85 -12.87,28.71 -28.71,28.71z"/>
  <path class="fil1" d="M509.21 38.79l-322.95 0c-12.79,0 -23.17,10.36 -23.17,23.17 0,12.8 10.38,23.17 23.17,23.17l322.95 0c12.79,0 23.17,-10.36 23.17,-23.17 0,-12.81 -10.38,-23.17 -23.17,-23.17zm0.71 293.48l-324.37 0c-8.53,0 -15.45,6.92 -15.45,15.44l0 177.63c0,17.07 13.83,30.89 30.89,30.89l293.48 0c17.07,0 30.89,-13.82 30.89,-30.89l0 -177.63c0,-8.53 -6.92,-15.44 -15.45,-15.44zm-154.46 173.76l-108.13 0c-10.66,0 -19.31,-8.65 -19.31,-19.31 0,-10.67 8.65,-19.3 19.31,-19.3l108.13 0c10.67,0 19.3,8.63 19.3,19.3 0,10.66 -8.63,19.31 -19.3,19.31zm77.23 -77.23l-185.35 0c-10.66,0 -19.31,-8.65 -19.31,-19.3 0,-10.67 8.65,-19.31 19.31,-19.31l185.35 0c10.67,0 19.31,8.63 19.31,19.31 0,10.66 -8.63,19.3 -19.31,19.3z"/>
 </g>
</svg>
