<?xml version="1.0" encoding="UTF-8"?>
<!DOCTYPE svg PUBLIC "-//W3C//DTD SVG 1.1//EN" "http://www.w3.org/Graphics/SVG/1.1/DTD/svg11.dtd">
<!-- Creator: CorelDRAW 2020 (64 Bit) -->
<svg xmlns="http://www.w3.org/2000/svg" xml:space="preserve" width="77.924mm" height="58.3221mm" version="1.1" style="shape-rendering:geometricPrecision; text-rendering:geometricPrecision; image-rendering:optimizeQuality; fill-rule:evenodd; clip-rule:evenodd"
viewBox="0 0 536.44 401.5"
 xmlns:xlink="http://www.w3.org/1999/xlink"
 xmlns:xodm="http://www.corel.com/coreldraw/odm/2003">
 <defs>
  <style type="text/css">
   <![CDATA[
    .fil0 {fill:black}
    .fil1 {fill:#026802}
   ]]>
  </style>
 </defs>
 <g id="Camada_x0020_1">
  <metadata id="CorelCorpID_0Corel-Layer"/>
  <path class="fil0" d="M536.44 69.58l-257.32 0c47.02,13.78 93.11,37.22 126.75,71.23l61.41 0 0 189.47 -331.45 0 0 -68.56c-22.7,-14.89 -46.15,-29.73 -69.17,-44.8l0 184.59 469.79 0 0 -331.92z"/>
  <path class="fil1" d="M-0 134.97l0 7.43c32.94,26.21 136.49,92.02 180.04,122.05 9.9,6.83 17.16,16.01 30.55,11.75 3.74,-15.64 1.81,-62.65 1.63,-82.75 71.86,0.36 156.89,5.55 199.66,67.99 7.29,10.64 6.55,20.38 20.49,14.53 11.34,-15.48 -6.91,-68.58 -14.58,-82.58 -37.18,-67.86 -126.42,-105.59 -204.82,-114.54 -2.33,-20.06 5.14,-66.71 -5.54,-78.54 -8.12,-5.22 -92.94,56.15 -103.96,63.66l-103.47 71z"/>
 </g>
</svg>
