<?xml version="1.0" encoding="UTF-8"?>
<!DOCTYPE svg PUBLIC "-//W3C//DTD SVG 1.1//EN" "http://www.w3.org/Graphics/SVG/1.1/DTD/svg11.dtd">
<!-- Creator: CorelDRAW 2020 (64 Bit) -->
<svg xmlns="http://www.w3.org/2000/svg" xml:space="preserve" width="82.2754mm" height="72.9506mm" version="1.1" style="shape-rendering:geometricPrecision; text-rendering:geometricPrecision; image-rendering:optimizeQuality; fill-rule:evenodd; clip-rule:evenodd"
viewBox="0 0 485.8 430.74"
 xmlns:xlink="http://www.w3.org/1999/xlink"
 xmlns:xodm="http://www.corel.com/coreldraw/odm/2003">
 <defs>
  <style type="text/css">
   <![CDATA[
    .fil1 {fill:black;fill-rule:nonzero}
    .fil0 {fill:#026802;fill-rule:nonzero}
    .fil2 {fill:white;fill-rule:nonzero}
   ]]>
  </style>
 </defs>
 <g id="Camada_x0020_1">
  <metadata id="CorelCorpID_0Corel-Layer"/>
  <path class="fil0" d="M81.48 216.81c-7.1,0 -12.85,-5.75 -12.85,-12.85l0 -130.98c0,-13.75 11.19,-24.93 24.93,-24.93l14.57 0c13.75,0 24.93,11.19 24.93,24.93l0 130.98c0,7.1 -5.75,12.85 -12.85,12.85l-38.74 0z"/>
  <path class="fil1" d="M108.13 35.19l-14.57 0c-20.83,0 -37.79,16.95 -37.79,37.79l0 130.98c0,14.2 11.51,25.7 25.71,25.7l38.74 0c14.19,0 25.7,-11.51 25.7,-25.7l0 -130.98c0,-20.84 -16.95,-37.79 -37.79,-37.79l0 0zm0 25.7c6.67,0 12.09,5.41 12.09,12.08l0 130.98 -38.74 0 0 -130.98c0,-6.67 5.42,-12.08 12.08,-12.08l14.57 0z"/>
  <path class="fil0" d="M121.9 417.89c-29.37,0 -53.27,-23.9 -53.27,-53.29l0 -165.24c0,-3.96 1.82,-7.69 4.93,-10.13l161.42 -126.23c2.33,-1.82 5.12,-2.73 7.92,-2.73 2.8,0 5.6,0.91 7.94,2.74l157.39 123.54c3.1,2.44 4.91,6.16 4.91,10.11l0 167.94c0,29.39 -23.89,53.29 -53.26,53.29l-237.97 0z"/>
  <path class="fil1" d="M242.9 47.42c-5.59,0 -11.18,1.82 -15.84,5.45l-161.41 126.23c-6.23,4.87 -9.87,12.34 -9.87,20.25l0 165.24c0,36.47 29.67,66.14 66.13,66.14l237.97 0c36.46,0 66.12,-29.67 66.12,-66.14l0 -167.94c0,-7.89 -3.63,-15.35 -9.84,-20.22l-157.39 -123.53c-4.66,-3.65 -10.27,-5.49 -15.87,-5.49l0 0zm0 25.7l157.39 123.53 0 167.94c0,22.34 -18.11,40.43 -40.42,40.43l-237.97 0c-22.32,0 -40.42,-18.09 -40.42,-40.43l0 -165.24 161.42 -126.23z"/>
  <g>
   <path class="fil0" d="M465.63 189.13l-204.83 -168.96c-4.94,-4.95 -11.43,-7.37 -17.9,-7.32 -6.48,-0.06 -12.97,2.37 -17.91,7.32l-204.81 168.96c-9.78,9.78 -9.77,25.64 0,35.43 9.8,9.78 25.65,9.78 35.45,-0.01l187.27 -151.43 187.28 151.43c9.77,9.79 25.65,9.79 35.45,0.01 9.75,-9.79 9.76,-25.65 0,-35.43z"/>
   <path id="1" class="fil1" d="M268.98 10.26l204.83 168.96 -16.36 19.83 -204.83 -168.96 -0.91 -0.83 17.27 -19zm-16.36 19.83c-5.48,-4.52 -6.25,-12.62 -1.74,-18.09 4.52,-5.48 12.62,-6.25 18.09,-1.74l-16.36 19.83zm-9.83 -4.38l0.22 -25.7 -0.22 0 0.92 0 0.91 0.03 0.91 0.05 0.91 0.07 0.92 0.09 0.92 0.11 0.91 0.14 0.91 0.16 0.91 0.18 0.89 0.2 0.9 0.22 0.9 0.25 0.88 0.27 0.89 0.29 0.87 0.31 0.87 0.34 0.87 0.36 0.85 0.38 0.85 0.4 0.84 0.42 0.83 0.45 0.83 0.47 0.81 0.49 0.8 0.51 0.79 0.53 0.79 0.56 0.77 0.58 0.76 0.6 0.75 0.63 0.73 0.64 0.72 0.66 0.71 0.69 -18.19 18.17 -0.23 -0.22 -0.23 -0.22 -0.24 -0.21 -0.24 -0.2 -0.24 -0.19 -0.25 -0.19 -0.25 -0.18 -0.25 -0.17 -0.26 -0.16 -0.26 -0.16 -0.26 -0.15 -0.26 -0.14 -0.27 -0.14 -0.27 -0.13 -0.28 -0.12 -0.27 -0.11 -0.28 -0.11 -0.28 -0.1 -0.28 -0.09 -0.29 -0.09 -0.28 -0.08 -0.29 -0.07 -0.3 -0.07 -0.29 -0.06 -0.29 -0.05 -0.3 -0.04 -0.29 -0.04 -0.29 -0.03 -0.3 -0.02 -0.3 -0.02 -0.3 -0.01 -0.3 -0 -0.22 0zm0.22 0c-7.1,0.06 -12.9,-5.64 -12.96,-12.74 -0.06,-7.1 5.64,-12.9 12.74,-12.96l0.22 25.7zm-9.84 4.38l-16.36 -19.83 -0.92 0.84 0.7 -0.69 0.72 -0.67 0.73 -0.64 0.74 -0.62 0.76 -0.6 0.77 -0.58 0.78 -0.56 0.79 -0.53 0.81 -0.52 0.81 -0.49 0.83 -0.47 0.84 -0.45 0.84 -0.42 0.85 -0.4 0.85 -0.38 0.87 -0.36 0.87 -0.34 0.87 -0.31 0.88 -0.29 0.89 -0.27 0.9 -0.25 0.9 -0.22 0.89 -0.2 0.91 -0.18 0.91 -0.16 0.91 -0.14 0.92 -0.11 0.92 -0.09 0.91 -0.07 0.91 -0.05 0.91 -0.03 0.92 -0 -0.22 25.7 -0.3 0 -0.3 0.01 -0.3 0.02 -0.3 0.02 -0.29 0.03 -0.29 0.04 -0.3 0.04 -0.29 0.05 -0.29 0.06 -0.3 0.07 -0.29 0.07 -0.28 0.08 -0.28 0.09 -0.28 0.09 -0.28 0.1 -0.27 0.11 -0.27 0.11 -0.27 0.12 -0.27 0.13 -0.27 0.14 -0.26 0.14 -0.26 0.15 -0.26 0.16 -0.25 0.16 -0.25 0.17 -0.25 0.18 -0.24 0.18 -0.24 0.19 -0.24 0.2 -0.24 0.21 -0.23 0.21 -0.23 0.22 -0.92 0.84zm0.92 -0.84c-5.01,5.02 -13.15,5.03 -18.18,0.02 -5.02,-5.01 -5.03,-13.15 -0.02,-18.18l18.2 18.16zm-222.09 149.97l204.81 -168.96 16.36 19.83 -204.81 168.96 -17.27 -19 0.91 -0.83zm16.36 19.83c-5.48,4.52 -13.58,3.74 -18.09,-1.74 -4.52,-5.48 -3.74,-13.58 1.74,-18.09l16.36 19.83zm0.9 16.42l-18.16 18.2 -0.02 -0.02 -1.33 -1.4 -1.25 -1.46 -1.17 -1.51 -1.08 -1.56 -1 -1.6 -0.91 -1.64 -0.83 -1.67 -0.74 -1.7 -0.65 -1.72 -0.56 -1.75 -0.48 -1.77 -0.39 -1.78 -0.3 -1.79 -0.22 -1.81 -0.13 -1.81 -0.04 -1.81 0.04 -1.81 0.13 -1.81 0.22 -1.81 0.3 -1.8 0.39 -1.78 0.48 -1.77 0.56 -1.75 0.65 -1.73 0.74 -1.7 0.83 -1.67 0.91 -1.64 1 -1.6 1.09 -1.56 1.17 -1.51 1.26 -1.46 1.34 -1.4 18.18 18.18 -0.44 0.46 -0.41 0.47 -0.38 0.49 -0.35 0.5 -0.32 0.51 -0.29 0.52 -0.26 0.53 -0.24 0.54 -0.21 0.55 -0.18 0.56 -0.15 0.56 -0.13 0.58 -0.1 0.58 -0.07 0.59 -0.04 0.59 -0.01 0.59 0.01 0.59 0.04 0.59 0.07 0.59 0.1 0.59 0.13 0.58 0.15 0.57 0.18 0.56 0.21 0.55 0.23 0.54 0.26 0.53 0.29 0.52 0.32 0.51 0.35 0.5 0.38 0.49 0.41 0.48 0.44 0.47 -0.02 -0.02zm0.02 0.02c5.01,5.02 5,13.16 -0.02,18.18 -5.02,5.01 -13.16,5 -18.18,-0.02l18.2 -18.16zm18.27 -0.93l16.16 19.99 1 -0.9 -1.4 1.33 -1.46 1.26 -1.51 1.17 -1.56 1.08 -1.6 1 -1.64 0.91 -1.67 0.83 -1.7 0.74 -1.73 0.65 -1.75 0.57 -1.77 0.48 -1.78 0.39 -1.8 0.3 -1.81 0.22 -1.81 0.13 -1.81 0.04 -1.81 -0.04 -1.81 -0.13 -1.81 -0.22 -1.8 -0.3 -1.78 -0.39 -1.77 -0.48 -1.75 -0.57 -1.72 -0.65 -1.7 -0.74 -1.67 -0.83 -1.64 -0.91 -1.6 -1 -1.56 -1.08 -1.51 -1.17 -1.46 -1.25 -1.41 -1.33 18.16 -18.2 0.47 0.44 0.48 0.41 0.49 0.38 0.5 0.35 0.51 0.32 0.52 0.29 0.53 0.26 0.54 0.24 0.56 0.21 0.56 0.18 0.57 0.15 0.58 0.13 0.58 0.1 0.59 0.07 0.59 0.04 0.59 0.01 0.59 -0.01 0.59 -0.04 0.58 -0.07 0.58 -0.1 0.58 -0.13 0.57 -0.15 0.56 -0.18 0.55 -0.21 0.54 -0.24 0.53 -0.26 0.52 -0.29 0.51 -0.32 0.5 -0.35 0.49 -0.38 0.48 -0.41 0.47 -0.44 1 -0.9zm-1 0.9c5.02,-5.02 13.16,-5.01 18.18,0.01 5.02,5.02 5.01,13.16 -0.01,18.18l-18.17 -18.19zm204.43 -132.34l-187.27 151.43 -16.16 -19.99 187.27 -151.43 16.16 0 0 19.99zm-16.16 -19.99c5.52,-4.46 13.61,-3.61 18.08,1.91 4.46,5.52 3.61,13.61 -1.91,18.08l-16.16 -19.99zm187.28 171.42l-187.28 -151.43 16.16 -19.99 187.28 151.43 1.02 0.92 -17.18 19.07zm16.16 -19.99c5.52,4.46 6.38,12.56 1.91,18.08 -4.46,5.52 -12.56,6.38 -18.08,1.91l16.16 -19.99zm18.26 0.94l18.22 18.14 -0.03 0.03 -1.41 1.34 -1.46 1.25 -1.51 1.17 -1.56 1.09 -1.6 1 -1.64 0.91 -1.67 0.83 -1.7 0.74 -1.73 0.65 -1.75 0.56 -1.77 0.48 -1.78 0.39 -1.8 0.3 -1.81 0.22 -1.81 0.13 -1.81 0.04 -1.82 -0.04 -1.81 -0.13 -1.81 -0.22 -1.8 -0.3 -1.78 -0.39 -1.77 -0.48 -1.75 -0.57 -1.73 -0.65 -1.7 -0.74 -1.67 -0.83 -1.64 -0.91 -1.6 -1 -1.56 -1.09 -1.51 -1.17 -1.46 -1.26 -1.4 -1.34 18.2 -18.16 0.46 0.44 0.47 0.41 0.48 0.38 0.5 0.35 0.51 0.32 0.52 0.29 0.53 0.26 0.54 0.24 0.55 0.21 0.56 0.18 0.57 0.15 0.58 0.13 0.58 0.1 0.58 0.07 0.59 0.04 0.59 0.01 0.59 -0.01 0.59 -0.04 0.59 -0.07 0.58 -0.1 0.58 -0.13 0.57 -0.15 0.56 -0.18 0.56 -0.21 0.54 -0.24 0.53 -0.26 0.52 -0.29 0.51 -0.32 0.5 -0.35 0.49 -0.38 0.48 -0.41 0.46 -0.44 -0.03 0.03zm0.03 -0.03c5.02,-5.01 13.16,-5.01 18.18,0.02 5.01,5.02 5.01,13.16 -0.02,18.18l-18.16 -18.2zm0.9 -16.42l16.36 -19.83 0.92 0.84 1.33 1.4 1.25 1.46 1.17 1.51 1.08 1.56 1 1.6 0.91 1.64 0.82 1.67 0.74 1.7 0.65 1.73 0.56 1.75 0.48 1.77 0.39 1.78 0.3 1.79 0.22 1.8 0.13 1.81 0.04 1.81 -0.04 1.81 -0.13 1.81 -0.22 1.8 -0.3 1.8 -0.39 1.78 -0.48 1.77 -0.56 1.75 -0.65 1.73 -0.74 1.7 -0.82 1.67 -0.91 1.63 -1 1.6 -1.08 1.56 -1.17 1.51 -1.25 1.46 -1.33 1.41 -18.22 -18.14 0.44 -0.47 0.41 -0.48 0.37 -0.49 0.35 -0.5 0.32 -0.51 0.29 -0.53 0.26 -0.53 0.23 -0.54 0.21 -0.55 0.18 -0.56 0.15 -0.57 0.13 -0.58 0.1 -0.58 0.07 -0.59 0.04 -0.59 0.01 -0.59 -0.01 -0.59 -0.04 -0.59 -0.07 -0.59 -0.1 -0.58 -0.13 -0.58 -0.15 -0.57 -0.18 -0.56 -0.21 -0.55 -0.24 -0.54 -0.26 -0.53 -0.29 -0.52 -0.32 -0.51 -0.35 -0.5 -0.37 -0.48 -0.4 -0.47 -0.44 -0.46 0.92 0.84zm-0.92 -0.84c-5.01,-5.02 -5.01,-13.16 0.02,-18.18 5.02,-5.01 13.16,-5.01 18.18,0.02l-18.2 18.16z"/>
  </g>
  <path class="fil0" d="M202.99 417.89c-7.1,0 -12.85,-5.75 -12.85,-12.85l0 -99.79c0,-17.16 13.96,-31.12 31.13,-31.12l39.23 0c17.17,0 31.13,13.96 31.13,31.12l0 99.79c0,7.1 -5.75,12.85 -12.85,12.85l-75.79 0z"/>
  <path class="fil1" d="M260.5 261.27l-39.23 0c-24.25,0 -43.98,19.73 -43.98,43.97l0 99.79c0,14.2 11.51,25.7 25.7,25.7l75.79 0c14.19,0 25.7,-11.51 25.7,-25.7l0 -99.79c0,-24.25 -19.74,-43.97 -43.99,-43.97l0 0zm0 25.7c10.1,0 18.28,8.18 18.28,18.27l0 99.79 -75.79 0 0 -99.79c0,-10.08 8.19,-18.27 18.28,-18.27l39.23 0z"/>
  <g>
   <path class="fil2" d="M338.1 290.57c0,-7.1 5.75,-12.85 12.85,-12.85 7.1,0 12.85,5.75 12.85,12.85l-25.7 0zm0 76.36l0 -76.36 25.7 0 0 76.36 -25.7 0zm25.7 0c0,7.1 -5.75,12.85 -12.85,12.85 -7.1,0 -12.85,-5.75 -12.85,-12.85l25.7 0z"/>
  </g>
 </g>
</svg>
