<?xml version="1.0" encoding="UTF-8"?>
<!DOCTYPE svg PUBLIC "-//W3C//DTD SVG 1.1//EN" "http://www.w3.org/Graphics/SVG/1.1/DTD/svg11.dtd">
<!-- Creator: CorelDRAW 2020 (64 Bit) -->
<svg xmlns="http://www.w3.org/2000/svg" xml:space="preserve" width="76.6935mm" height="72.1077mm" version="1.1" style="shape-rendering:geometricPrecision; text-rendering:geometricPrecision; image-rendering:optimizeQuality; fill-rule:evenodd; clip-rule:evenodd"
viewBox="0 0 352.53 331.45"
 xmlns:xlink="http://www.w3.org/1999/xlink"
 xmlns:xodm="http://www.corel.com/coreldraw/odm/2003">
 <defs>
  <style type="text/css">
   <![CDATA[
    .fil0 {fill:black}
    .fil1 {fill:#026802}
   ]]>
  </style>
 </defs>
 <g id="Camada_x0020_1">
  <metadata id="CorelCorpID_0Corel-Layer"/>
  <path class="fil0" d="M122.25 39.74c0,-26.05 -23.96,-28.35 -34.21,-14.72 -5.19,6.9 -3.24,28.31 -3.23,38.02 0.01,4.01 0.29,4.16 -2.13,6.12 -12.36,9.98 -34.13,24.88 -48.38,35.6l-28.4 21.09c-11.97,9.51 -3.82,26.37 7.62,26.37 9.84,0 14.2,-5.4 24.42,-13.07 6.82,-5.11 13.22,-9.71 19.82,-14.68l48.75 -35.99c3.32,-2.48 6.5,-4.67 9.96,-7.28 6.79,-5.11 13.01,-9.57 19.82,-14.68l29.76 -21.98c11.15,-7.67 8.21,-9.2 15.23,-3.83l34.49 25.5c3.36,2.53 6.13,4.4 9.54,6.96l88.81 65.67c10.2,7.66 14.95,13.39 24.86,13.39 10.65,0 20.91,-16.51 6.33,-27.33l-157.38 -116.33c-4.09,-3.09 -7.6,-5.84 -11.68,-8.57l-40.17 29.57c-4.78,3.59 -9.04,6.98 -13.82,10.18zm-93.74 134.23l0 140.23c0,9.02 7.02,17.25 15.75,17.25l263.96 0c8.73,0 15.75,-8.23 15.75,-17.25l0 -140.98c0,-1.72 -0.28,-1.52 -3.62,-3.88 -1.79,-1.26 -3.05,-2.05 -4.85,-3.4l-102.2 -75.52c-6.44,-4.63 -11.99,-9.38 -18.46,-13.78 -6.52,-4.44 -12.14,-9.32 -18.6,-13.65 -9.17,6.14 -26.33,20.07 -37.05,27.45 -16.44,11.32 -38.09,28.5 -55.62,41.11l-46.49 34.5c-2.25,1.69 -8.57,5.25 -8.57,7.93z"/>
  <path class="fil1" d="M167.59 207.13l19.31 0.13c1.17,-0.4 0.5,-0.08 1.24,-0.69l1.26 -1.38c-1.35,-6.76 0.33,-76.28 -0.51,-89.07l-25.04 -0.16c-0.5,8.8 -0.33,90.31 0.23,91.32l3.51 -0.15zm61.08 38.74c-23.53,43.76 -84.08,40.54 -104.82,-0.39 -10.28,-20.29 -6.75,-52.84 10.73,-68.51 1.13,-1.01 1.65,-1.88 2.93,-2.95 1.21,-1.01 1.84,-1.57 3.01,-2.67 -0.92,-1.72 -13.49,-18.4 -15.05,-19.7 -5.25,2.92 -12.73,11.34 -16.92,16.8 -11.04,14.38 -16.24,31.29 -16.39,48.18l-0 0 0 0c-0.38,43.1 32.12,86.02 84.2,86.1 60.32,0.09 97.52,-58.99 79.4,-112.5 -2.94,-8.69 -7.34,-15.96 -11.85,-22.08 -3.66,-4.97 -11.52,-13.74 -16.64,-16.51 -1.89,1.52 -13.99,17.79 -14.79,19.7l7.18 7.03c17,16.11 19.78,47.47 9.01,67.49z"/>
 </g>
</svg>
