<?xml version="1.0" encoding="UTF-8"?>
<!DOCTYPE svg PUBLIC "-//W3C//DTD SVG 1.1//EN" "http://www.w3.org/Graphics/SVG/1.1/DTD/svg11.dtd">
<!-- Creator: CorelDRAW 2020 (64 Bit) -->
<svg xmlns="http://www.w3.org/2000/svg" xml:space="preserve" width="77.925mm" height="77.9294mm" version="1.1" style="shape-rendering:geometricPrecision; text-rendering:geometricPrecision; image-rendering:optimizeQuality; fill-rule:evenodd; clip-rule:evenodd"
viewBox="0 0 6383 6383.37"
 xmlns:xlink="http://www.w3.org/1999/xlink"
 xmlns:xodm="http://www.corel.com/coreldraw/odm/2003">
 <defs>
  <style type="text/css">
   <![CDATA[
    .fil1 {fill:#026802}
    .fil0 {fill:black;fill-rule:nonzero}
   ]]>
  </style>
 </defs>
 <g id="Camada_x0020_1">
  <metadata id="CorelCorpID_0Corel-Layer"/>
  <path class="fil0" d="M6043.86 5195.93c0,467.54 -380.44,848.05 -848.06,848.05l-4008.68 0c-467.54,0 -847.98,-380.51 -847.98,-848.05l0 -4008.49c0,-467.54 380.44,-848.06 847.98,-848.06l4008.68 0c467.62,0 848.06,380.52 848.06,848.06l0 4008.49zm-848.06 -5195.93l-4008.68 0c-654.56,0 -1187.12,532.4 -1187.12,1187.44l0 4008.49c0,654.22 532.56,1187.44 1187.12,1187.44l4008.68 0c654.63,0 1187.2,-533.22 1187.2,-1187.44l0 -4008.49c0,-655.04 -532.58,-1187.44 -1187.2,-1187.44z"/>
  <path class="fil0" d="M5145.33 1455.61l-2436.53 0c-93.66,0 -169.61,75.94 -169.61,170.1 0,93.34 75.95,169.29 169.61,169.29l2436.53 0c93.67,0 169.62,-75.95 169.62,-169.29 0,-94.16 -75.94,-170.1 -169.62,-170.1z"/>
  <path class="fil0" d="M5145.33 2995.89l-2436.53 0c-93.66,0 -169.61,75.94 -169.61,169.29 0,94.13 75.95,170.09 169.61,170.09l2436.53 0c93.67,0 169.62,-75.96 169.62,-170.09 0,-93.35 -75.94,-169.29 -169.62,-169.29z"/>
  <path class="fil0" d="M5145.33 4536.14l-2436.53 0c-93.66,0 -169.61,75.95 -169.61,169.31 0,94.13 75.95,170.07 169.61,170.07l2436.53 0c93.67,0 169.62,-75.94 169.62,-170.07 0,-93.36 -75.94,-169.31 -169.62,-169.31z"/>
  <path class="fil0" d="M2157.1 1667.63c-93.75,0 -169.62,75.94 -169.62,169.29l0 79.12 -580.19 0 0 -443.82c0,-93.35 -75.94,-169.29 -169.6,-169.29 -93.68,0 -169.54,75.94 -169.54,169.29l0 613.1c0,93.35 75.86,169.29 169.54,169.29l919.41 0c93.66,0 169.6,-75.94 169.6,-169.29l0 -248.41c0,-93.35 -75.94,-169.29 -169.6,-169.29z"/>
  <path class="fil0" d="M1987.48 3455.51l-580.19 0 0 -579.87 580.19 0 0 579.87zm169.62 -919.26l-919.41 0c-93.68,0 -169.54,75.97 -169.54,170.1l0 919.26c0,93.35 75.86,169.29 169.54,169.29l919.41 0c93.66,0 169.6,-75.94 169.6,-169.29l0 -919.26c0,-94.13 -75.94,-170.1 -169.6,-170.1z"/>
  <path class="fil0" d="M1987.48 4995.78l-580.19 0 0 -579.88 580.19 0 0 579.88zm169.62 -919.26l-919.41 0c-93.68,0 -169.54,75.94 -169.54,169.29l0 919.26c0,94.13 75.86,170.07 169.54,170.07l919.41 0c93.66,0 169.6,-75.94 169.6,-170.07l0 -919.26c0,-93.35 -75.94,-169.29 -169.6,-169.29z"/>
  <path class="fil0" d="M2336.27 388.43c-86.7,-35.61 -185.74,5.53 -221.35,92.56l-320.95 777.65 -160.83 -362.32c-37.97,-85.43 -138.12,-124.2 -223.88,-86.23 -85.6,37.97 -124.2,137.65 -86.14,223.87l321.51 724.66c27.2,61.7 88.05,101.25 155.04,101.25 0.72,0 1.43,0 2.22,0 67.88,-1.57 128.63,-42.72 154.5,-105.22l472.06 -1144.72c35.67,-86.22 -5.55,-185.9 -92.18,-221.5z"/>
  <path class="fil1" d="M2428.33 609.86l-626.67 1250.19 -392.33 -1050.1 384.49 448.56 542.48 -870.11c86.7,35.81 127.85,135.07 92.04,221.46zm-440.7 3805.88l-580.18 0 0 579.86 580.18 0 0 -579.86zm0 -1540.13l-580.18 0 0 579.86 580.18 0 0 -579.86zm-1648.51 -1688.09l0 4008.49c0,467.41 380.4,848.12 848.13,848.12l4008.49 0c467.73,0 848.13,-380.71 848.13,-848.12l0 -4008.49c0,-467.72 -380.4,-848.12 -848.13,-848.12l-4008.49 0c-467.73,0 -848.13,380.4 -848.13,848.12zm2369.73 267.95l2436.62 0c93.61,0 169.62,76.01 169.62,170.25 0,93.3 -76.01,169.31 -169.62,169.31l-2436.62 0c-93.61,0 -169.63,-76.01 -169.63,-169.31 0,-94.23 76.02,-170.25 169.63,-170.25zm-551.92 212.03c93.93,0 169.63,76.01 169.63,169.62l0 248.15c0,93.3 -75.7,169.31 -169.63,169.31l-919.11 0c-93.92,0 -169.62,-76.01 -169.62,-169.31l0 -613.16c0,-93.29 75.7,-168.99 169.62,-168.99 93.29,0 169.62,75.7 169.62,168.99l0 443.85 580.18 0 0 -78.84c0,-93.61 75.7,-169.62 169.3,-169.62zm551.92 1328.41l2436.62 0c93.61,0 169.62,76.02 169.62,169.31 0,93.92 -76.01,169.94 -169.62,169.94l-2436.62 0c-93.61,0 -169.63,-76.02 -169.63,-169.94 0,-93.29 76.02,-169.31 169.63,-169.31zm-551.92 1080.58c93.93,0 169.63,76.01 169.63,169.31l0 919.43c0,93.92 -75.7,169.93 -169.63,169.93l-919.11 0c-93.92,0 -169.62,-76.01 -169.62,-169.93l0 -919.43c0,-93.3 75.7,-169.31 169.62,-169.31l919.11 0zm169.63 -1370.19l0 919.43c0,93.29 -75.7,169.31 -169.63,169.31l-919.11 0c-93.92,0 -169.62,-76.02 -169.62,-169.31l0 -919.43c0,-94.24 75.7,-169.93 169.62,-169.93l919.11 0c93.93,0 169.63,75.7 169.63,169.93zm382.28 1829.75l2436.62 0c93.61,0 169.62,76.01 169.62,169.3 0,94.24 -76.01,170.25 -169.62,170.25l-2436.62 0c-93.61,0 -169.63,-76.01 -169.63,-170.25 0,-93.29 76.02,-169.3 169.63,-169.3z"/>
 </g>
</svg>
