<?xml version="1.0" encoding="UTF-8"?>
<!DOCTYPE svg PUBLIC "-//W3C//DTD SVG 1.1//EN" "http://www.w3.org/Graphics/SVG/1.1/DTD/svg11.dtd">
<!-- Creator: CorelDRAW 2020 (64 Bit) -->
<svg xmlns="http://www.w3.org/2000/svg" xml:space="preserve" width="77.9208mm" height="67.3024mm" version="1.1" style="shape-rendering:geometricPrecision; text-rendering:geometricPrecision; image-rendering:optimizeQuality; fill-rule:evenodd; clip-rule:evenodd"
viewBox="0 0 1801.07 1555.63"
 xmlns:xlink="http://www.w3.org/1999/xlink"
 xmlns:xodm="http://www.corel.com/coreldraw/odm/2003">
 <defs>
  <style type="text/css">
   <![CDATA[
    .str0 {stroke:white;stroke-width:1.76;stroke-miterlimit:22.9256}
    .fil4 {fill:none;fill-rule:nonzero}
    .fil0 {fill:black}
    .fil3 {fill:#026802}
    .fil2 {fill:black;fill-rule:nonzero}
    .fil1 {fill:#026802;fill-rule:nonzero}
   ]]>
  </style>
 </defs>
 <g id="Camada_x0020_1">
  <metadata id="CorelCorpID_0Corel-Layer"/>
  <path class="fil0" d="M827.27 1001.52l279.83 276.15c63.73,62.97 64.68,165.71 1.71,229.53 -62.88,63.82 -165.71,64.76 -229.44,1.71l-269.31 -265.8 41.15 -23.78c67.93,-39.35 122.16,-99.24 154.67,-170.75l21.39 -47.05z"/>
  <path class="fil1" d="M838.78 1063.52l13.19 12.97 0 0.18 229.75 226.78c49.61,48.85 50.25,128.77 1.31,178.34 -48.85,49.66 -128.68,50.25 -178.29,1.35l-210.8 -208.32 -24.63 -24.18c74.24,-43.04 133.81,-108.55 169.47,-187.12z"/>
  <path class="fil2" d="M1578.52 826.49c0,-29.26 -23.73,-52.99 -52.95,-52.99l-508.63 0c-29.22,0 -52.95,23.73 -52.95,52.99 0,29.26 23.73,52.99 52.95,52.99l508.63 0c29.22,0 52.95,-23.73 52.95,-52.99zm53.04 39.13l0 321.15c0,23.41 -19,42.37 -42.41,42.37l-321.11 0 -126.42 0 4.91 4.86c45.38,44.8 65.1,105.8 59.12,164.69l425.92 0c93.61,0 169.51,-75.91 169.51,-169.56l0 -533.03 0 -86.8 0 -439.75c0,-93.65 -75.91,-169.56 -169.56,-169.56l-1186.77 0c-93.6,0 -169.51,75.91 -169.51,169.56l0 261.36c121.88,-54.25 251.23,-58.85 380.45,-7.07l933.47 0c23.41,0 42.37,18.96 42.37,42.37l0 399.45 0.04 -0.05zm-1313.78 475.85c31.07,35.12 76.45,57.22 126.97,57.22l292.79 0 -71.68 -70.82c-116.83,49.93 -234.98,51.64 -348.07,13.6zm466.08 -1193.12l169.51 0c35.12,0 63.57,28.45 63.57,63.57 0,35.12 -28.45,63.57 -63.57,63.57l-169.51 0c-35.12,0 -63.62,-28.46 -63.62,-63.57 0,-35.12 28.5,-63.57 63.62,-63.57zm-254.34 -21.21c46.82,0 84.78,37.96 84.78,84.78 0,46.78 -37.96,84.78 -84.78,84.78 -46.78,0 -84.78,-38 -84.78,-84.78 0,-46.82 38,-84.78 84.78,-84.78zm472.65 964.27l506.38 0c29.27,0 52.99,-23.73 52.99,-52.99 0,-29.26 -23.73,-52.99 -52.99,-52.99l-557.48 0 -2.7 11.39c-1.13,4.59 -2.34,9.14 -3.6,13.64 -1.8,6.26 -3.65,12.47 -5.67,18.64l63.08 62.31zm523.39 -529.83l-508.63 0c-29.22,0 -52.95,23.73 -52.95,52.99 0,29.26 23.73,52.99 52.95,52.99l508.63 0c29.22,0 52.95,-23.73 52.95,-52.99 0,-29.27 -23.73,-52.99 -52.95,-52.99z"/>
  <path class="fil0" d="M459.22 430.4c255.52,-1.94 464.41,203.68 466.26,459.29 0.53,67.1 -13.4,133.32 -41.18,194.51 -39.85,87.82 -106.42,161.27 -189.92,209.67 -69.48,40.3 -147.87,61.46 -228.19,62.08 -255.53,1.85 -464.23,-203.68 -466.17,-459.29 -1.94,-255.52 203.59,-464.32 459.2,-466.26zm5.29 706.97c134.82,-1.06 243.36,-111.1 242.3,-246 -1.06,-134.82 -111.1,-243.36 -246,-242.3 -134.82,1.06 -243.27,111.1 -242.21,246 1.06,134.82 111.1,243.36 245.91,242.3z"/>
  <path class="fil3" d="M459.55 480.38c-227.95,1.71 -411.33,187.93 -409.62,415.93 1.71,227.95 187.88,411.38 415.88,409.67 74.15,-0.54 143.62,-20.62 203.51,-55.34 74.24,-43.04 133.81,-108.51 169.47,-187.12 24,-52.86 37.14,-111.61 36.69,-173.47 -1.71,-227.95 -187.93,-411.38 -415.93,-409.67zm5.18 685.89c-150.78,1.13 -273.97,-120.21 -275.09,-271.04 -1.13,-150.83 120.21,-273.97 271,-275.09 150.83,-1.17 274.01,120.17 275.14,271 1.13,150.83 -120.21,273.97 -271.04,275.14z"/>
  <path class="fil0" d="M460.35 583.95c170.75,-1.28 310.28,136.11 311.57,306.95 1.29,170.76 -136.11,310.29 -306.95,311.57 -170.76,1.28 -310.2,-136.19 -311.48,-306.95 -1.28,-170.76 136.02,-310.28 306.86,-311.57z"/>
  <path class="fil3" d="M460.63 620.13c-150.78,1.13 -272.12,124.27 -271,275.09 1.13,150.83 124.31,272.17 275.09,271.04 150.83,-1.17 272.17,-124.31 271.04,-275.14 -1.13,-150.83 -124.31,-272.17 -275.14,-271z"/>
  <path class="fil4 str0" d="M461.68 759.25c73.97,-0.56 134.39,58.94 134.95,132.9"/>
 </g>
</svg>
