<?xml version="1.0" encoding="UTF-8"?>
<!DOCTYPE svg PUBLIC "-//W3C//DTD SVG 1.1//EN" "http://www.w3.org/Graphics/SVG/1.1/DTD/svg11.dtd">
<!-- Creator: CorelDRAW 2020 (64 Bit) -->
<svg xmlns="http://www.w3.org/2000/svg" xml:space="preserve" width="81.1683mm" height="77.8626mm" version="1.1" style="shape-rendering:geometricPrecision; text-rendering:geometricPrecision; image-rendering:optimizeQuality; fill-rule:evenodd; clip-rule:evenodd"
viewBox="0 0 1098.71 1053.96"
 xmlns:xlink="http://www.w3.org/1999/xlink"
 xmlns:xodm="http://www.corel.com/coreldraw/odm/2003">
 <defs>
  <style type="text/css">
   <![CDATA[
    .fil1 {fill:black}
    .fil0 {fill:black}
    .fil2 {fill:#026802}
   ]]>
  </style>
 </defs>
 <g id="Camada_x0020_1">
  <metadata id="CorelCorpID_0Corel-Layer"/>
  <path class="fil0" d="M789.2 608.8l-611.97 0 263.66 263.71c3.49,3.43 5.39,8.12 5.39,13.02l0 168.43 73.81 -49.19 0 -119.24c0,-4.9 1.96,-9.59 5.39,-13.02l263.71 -263.71z"/>
  <path class="fil0" d="M132.67 571.92l701.03 0c10.19,0 18.47,-8.28 18.47,-18.47l0 -36.88c0,-10.19 -8.28,-18.47 -18.47,-18.47l-701.03 0c-10.19,0 -18.47,8.28 -18.47,18.47l0 36.88c0,10.19 8.28,18.47 18.47,18.47z"/>
  <path class="fil1" d="M92.24 230.22l-9.29 9.29c-8.56,8.56 -22.53,8.56 -31.04,0l-26.06 -26.11c-8.57,-8.56 -8.57,-22.48 0,-31.04l9.29 -9.29 -13.18 0c-12.09,0 -21.96,-9.86 -21.96,-21.96l0 -36.91c0,-12.09 9.86,-21.96 21.96,-21.96l13.18 0 -9.29 -9.29c-8.57,-8.57 -8.57,-22.48 0,-31.04l26.06 -26.11c8.51,-8.56 22.48,-8.56 31.04,0l9.29 9.29 0 -13.13c0,-12.09 9.86,-21.96 21.96,-21.96l36.91 0c12.09,0 21.96,9.86 21.96,21.96l0 13.13 9.34 -9.29c8.56,-8.56 22.53,-8.56 31.04,0l26.06 26.11c8.56,8.57 8.56,22.48 0,31.04l-9.29 9.29 13.13 0c12.09,0 21.96,9.86 21.96,21.96l0 36.91c0,12.09 -9.86,21.96 -21.96,21.96l-13.13 0 9.29 9.29c8.56,8.56 8.56,22.48 0,31.04l-26.06 26.11c-8.51,8.56 -22.48,8.56 -31.04,0l-9.34 -9.29 0 13.13c0,12.1 -9.86,21.96 -21.96,21.96l-36.91 0c-6.07,0 -11.26,-2.18 -15.52,-6.44 -4.31,-4.31 -6.44,-9.5 -6.44,-15.57l0 -13.08z"/>
  <path class="fil2" d="M114.23 203.82l0 39.52 36.9 0 0 -39.52c6.6,-1.71 12.94,-4.35 18.8,-7.84l27.99 27.99 26.09 -26.09 -27.99 -27.99c3.49,-5.86 6.13,-12.2 7.84,-18.8l39.52 0 0 -36.9 -39.52 0c-1.71,-6.6 -4.35,-12.94 -7.84,-18.8l27.99 -27.99 -26.09 -26.09 -27.99 27.99c-5.86,-3.49 -12.2,-6.13 -18.8,-7.84l0 -39.52 -36.9 0 0 39.52c-6.6,1.71 -12.94,4.35 -18.8,7.84l-27.99 -27.99 -26.08 26.09 27.98 27.99c-3.49,5.86 -6.13,12.2 -7.84,18.8l-39.52 0 0 36.9 39.52 0c1.71,6.6 4.35,12.94 7.84,18.8l-27.98 27.99 26.08 26.09 27.99 -27.99c5.87,3.49 12.2,6.13 18.8,7.84l0 0zm18.45 -108.07c20.38,0 36.9,16.52 36.9,36.9 0,20.38 -16.52,36.9 -36.9,36.9 -20.38,0 -36.9,-16.52 -36.9,-36.9 0,-20.38 16.52,-36.9 36.9,-36.9zm0 0z"/>
  <path class="fil1" d="M661.63 431.26l-10.8 25.54 10.69 10.69c6.44,6.39 8.25,15.52 4.78,23.93 -3.48,8.36 -11.21,13.55 -20.3,13.55l-325.62 0c-9.08,0 -16.82,-5.19 -20.3,-13.55 -3.48,-8.41 -1.66,-17.54 4.78,-23.93l10.59 -10.64 -10.59 -25.54 -61.51 0c-12.09,0 -21.96,-9.86 -21.96,-21.96l0 -73.82c0,-12.09 9.86,-21.96 21.96,-21.96l61.46 0 10.8 -25.49 -43.6 -43.6c-8.56,-8.56 -8.56,-22.48 0,-31.04l52.17 -52.17c8.57,-8.56 22.53,-8.56 31.04,0l43.45 43.5 25.64 -10.59 0 -61.56c0,-12.09 9.86,-21.96 21.96,-21.96l73.81 0c12.09,0 21.96,9.86 21.96,21.96l0 61.41 25.59 10.74 43.6 -43.6c8.57,-8.57 22.53,-8.57 31.04,0l52.12 52.17c8.57,8.56 8.57,22.48 0,31.04l-43.5 43.55 10.64 25.59 61.51 0c12.09,0 21.96,9.86 21.96,21.96l0 73.81c0,12.09 -9.86,21.96 -21.96,21.96l-61.41 0z"/>
  <path class="fil2" d="M390.94 372.5c0,-50.99 41.29,-92.28 92.28,-92.28 50.93,0 92.23,41.29 92.23,92.28 0,50.93 -41.29,92.22 -92.23,92.22 -50.93,-0.05 -92.17,-41.34 -92.28,-92.22zm254.83 36.82l77.25 0 0 -73.81 -77.25 0 -4.14 -12.8 -11.17 -26.64 -6.65 -12.15 55.07 -55.07 -52.13 -52.13 -55.07 55.07 -12.15 -6.7 -26.64 -11.06 -12.8 -4.09 0 -77.3 -73.81 0 0 77.3 -12.86 4.19 -26.64 11.06 -12.15 6.65 -54.96 -55.02 -52.13 52.13 55.02 55.02 -6.64 12.15 -11.17 26.64 -4.09 12.8 -77.3 0 0 73.81 77.3 0 4.09 12.8 11.17 26.64 6.59 12.09 -22.12 22.12 325.59 0 -22.17 -22.12 6.65 -12.15 11.17 -26.64 4.14 -12.8z"/>
  <path class="fil1" d="M887.49 358.85l-23.15 23.15c-8.57,8.56 -22.48,8.56 -31.04,0l-33.79 -33.79c-8.57,-8.56 -8.57,-22.48 0,-31.04l23.1 -23.15 -32.7 0c-12.09,0 -21.96,-9.86 -21.96,-21.96l0 -47.81c0,-12.09 9.86,-21.96 21.96,-21.96l32.75 0 -23.15 -23.15c-8.57,-8.56 -8.57,-22.48 0,-31.04l33.79 -33.84c8.51,-8.57 22.48,-8.57 31.04,0l23.15 23.15 0 -32.7c0,-12.09 9.86,-21.96 21.96,-21.96l47.81 0c12.09,0 21.96,9.86 21.96,21.96l0 32.7 23.15 -23.15c8.57,-8.57 22.53,-8.57 31.04,0l33.79 33.84c8.56,8.56 8.56,22.53 0,31.04l-23.15 23.15 32.7 0c12.09,0 21.96,9.86 21.96,21.96l0 47.81c0,12.09 -9.86,21.96 -21.96,21.96l-32.7 0 23.15 23.15c8.56,8.56 8.56,22.48 0,31.04l-33.79 33.79c-8.57,8.56 -22.48,8.56 -31.04,0l-23.15 -23.15 0 32.7c0,12.09 -9.86,21.96 -21.96,21.96l-47.81 0c-12.09,0 -21.96,-9.86 -21.96,-21.96l0 -32.7z"/>
  <path class="fil2" d="M909.44 340.35l0 51.21 47.81 0 0 -51.21c8.56,-2.22 16.76,-5.64 24.36,-10.15l36.27 36.27 33.8 -33.8 -36.27 -36.27c4.52,-7.6 7.94,-15.8 10.15,-24.36l51.21 0 0 -47.81 -51.21 -0c-2.22,-8.56 -5.64,-16.76 -10.15,-24.36l36.27 -36.27 -33.8 -33.8 -36.27 36.27c-7.6,-4.52 -15.8,-7.94 -24.36,-10.15l0 -51.21 -47.81 0 0 51.21c-8.55,2.22 -16.76,5.64 -24.36,10.15l-36.27 -36.27 -33.79 33.8 36.26 36.27c-4.52,7.6 -7.94,15.8 -10.16,24.36l-51.21 0 0 47.81 51.21 0c2.22,8.55 5.64,16.76 10.15,24.36l-36.26 36.27 33.79 33.8 36.27 -36.27c7.6,4.52 15.8,7.94 24.36,10.15l-0 -0zm23.91 -140.03c26.4,0 47.81,21.41 47.81,47.81 0,26.4 -21.41,47.81 -47.81,47.81 -26.4,0 -47.81,-21.41 -47.81,-47.81 0,-26.4 21.41,-47.81 47.81,-47.81zm0 0z"/>
  <path class="fil2" d="M417.96 372.5c0,36.04 29.23,65.26 65.26,65.26 36.03,0 65.26,-29.23 65.26,-65.26 0,-36.03 -29.23,-65.26 -65.26,-65.26 -36.04,0 -65.26,29.23 -65.26,65.26z"/>
 </g>
</svg>
