<?xml version="1.0" encoding="UTF-8"?>
<!DOCTYPE svg PUBLIC "-//W3C//DTD SVG 1.1//EN" "http://www.w3.org/Graphics/SVG/1.1/DTD/svg11.dtd">
<!-- Creator: CorelDRAW 2020 (64 Bit) -->
<svg xmlns="http://www.w3.org/2000/svg" xml:space="preserve" width="81.1674mm" height="79.6341mm" version="1.1" style="shape-rendering:geometricPrecision; text-rendering:geometricPrecision; image-rendering:optimizeQuality; fill-rule:evenodd; clip-rule:evenodd"
viewBox="0 0 761.2 746.82"
 xmlns:xlink="http://www.w3.org/1999/xlink"
 xmlns:xodm="http://www.corel.com/coreldraw/odm/2003">
 <defs>
  <style type="text/css">
   <![CDATA[
    .fil1 {fill:black}
    .fil2 {fill:#026802}
    .fil0 {fill:#026802;fill-rule:nonzero}
   ]]>
  </style>
 </defs>
 <g id="Camada_x0020_1">
  <metadata id="CorelCorpID_0Corel-Layer"/>
  <path class="fil0" d="M550.29 409.29c0,0.52 -0.13,1.04 -0.13,1.56 0,0.38 0.13,0.77 0.13,1.3l0 -2.86zm-298.79 -79.23l-83.76 0c-3.24,0 -5.96,2.59 -5.96,5.96l0 191.21c0,3.37 2.72,5.96 5.96,5.96l83.76 0c3.24,0 5.96,-2.59 5.96,-5.96l0 -191.21c0,-3.36 -2.72,-5.96 -5.96,-5.96zm-41.94 167.27c-9.84,0 -17.87,-8.03 -17.87,-17.87 0,-9.97 8.03,-17.99 17.87,-17.99 9.97,0 17.99,8.03 17.99,17.99 0,9.84 -8.03,17.87 -17.99,17.87zm330.37 -179.3l-109.13 0c-13.21,0 -23.95,-10.62 -23.95,-23.82l0 -45.96c0,-26.93 -22.27,-48.67 -49.45,-47.77 -12.56,0.39 -22.27,11.26 -22.27,23.95l0 47.77c0,33.92 -47.77,57.87 -47.77,81.69l0 152.89c0,8.94 4.79,17.09 12.69,21.23 4.28,2.2 9.45,4.93 14.76,7.9 26.16,13.98 55.29,21.23 84.8,21.23l92.56 0c18.91,0 34.18,-15.4 34.18,-34.31l0 -3.1c0,-5.7 -1.42,-11.01 -4.01,-15.8 9.58,-6.08 16.05,-16.7 16.05,-28.88l0 -9.18c0,-9.59 -4.01,-18.26 -10.49,-24.6 12.56,-4.66 21.63,-16.44 22.27,-30.43 -0.27,-8.16 -3.51,-15.54 -8.42,-21.23 17.99,-0.91 32.5,-15.8 32.5,-34.19l0 -3.1c0,-18.91 -15.4,-34.31 -34.31,-34.31z"/>
  <path class="fil1" d="M434.98 108.18c-21.87,-5.39 -44.34,-8.09 -66.96,-8.09 -153.96,0 -278.68,124.79 -278.68,278.72 0,153.92 124.76,278.68 278.68,278.68 153.93,0 278.72,-124.72 278.72,-278.68 0,-29.63 -4.64,-58.8 -13.74,-86.6l64.3 -77.93c25.5,50.92 38.73,107.06 38.73,164.53 0,203.23 -164.79,368.02 -368.02,368.02 -203.23,0 -368.02,-164.79 -368.02,-368.02 0,-203.23 164.75,-368.05 368.02,-368.05 23.23,0 46.32,2.12 69.09,6.47 -15.54,16.47 -20.79,40.46 -12.55,62.72l10.43 28.23z"/>
  <path class="fil2" d="M563.66 280.62l192.61 -233.59c11.32,-16.35 2.49,-37.42 -19.76,-47.03l-162.27 159.62 -92.58 -100.77 82 221.77z"/>
 </g>
</svg>
