<?xml version="1.0" encoding="UTF-8"?>
<!DOCTYPE svg PUBLIC "-//W3C//DTD SVG 1.1//EN" "http://www.w3.org/Graphics/SVG/1.1/DTD/svg11.dtd">
<!-- Creator: CorelDRAW 2020 (64 Bit) -->
<svg xmlns="http://www.w3.org/2000/svg" xml:space="preserve" width="77.9228mm" height="75.0484mm" version="1.1" style="shape-rendering:geometricPrecision; text-rendering:geometricPrecision; image-rendering:optimizeQuality; fill-rule:evenodd; clip-rule:evenodd"
viewBox="0 0 439.94 423.71"
 xmlns:xlink="http://www.w3.org/1999/xlink"
 xmlns:xodm="http://www.corel.com/coreldraw/odm/2003">
 <defs>
  <style type="text/css">
   <![CDATA[
    .fil1 {fill:black;fill-rule:nonzero}
    .fil0 {fill:#026802;fill-rule:nonzero}
   ]]>
  </style>
 </defs>
 <g id="Camada_x0020_1">
  <metadata id="CorelCorpID_0Corel-Layer"/>
  <path class="fil0" d="M322.31 409.91c-6.57,0 -12.92,-1.58 -18.88,-4.72l-65.89 -34.63c-5.38,-2.83 -11.45,-4.33 -17.57,-4.33 -6.11,0 -12.18,1.49 -17.56,4.32l-65.9 34.63c-5.95,3.13 -12.3,4.72 -18.87,4.72 -11.96,0 -23.3,-5.3 -31.1,-14.57 -7.66,-9.09 -10.89,-21.08 -8.86,-32.9l12.58 -73.35c2.1,-12.26 -1.97,-24.76 -10.87,-33.43l-53.3 -51.92c-11.15,-10.89 -15.07,-26.84 -10.25,-41.63 4.82,-14.78 17.38,-25.34 32.76,-27.57l73.62 -10.7c12.3,-1.79 22.93,-9.52 28.44,-20.68l32.95 -66.73c6.88,-13.95 20.81,-22.63 36.36,-22.63 15.55,0 29.49,8.67 36.37,22.63l32.95 66.74c5.5,11.15 16.12,18.88 28.42,20.67l73.66 10.7c15.37,2.22 27.91,12.79 32.73,27.57 4.81,14.79 0.89,30.74 -10.25,41.61l-53.28 51.94c-8.91,8.67 -12.97,21.17 -10.88,33.44l12.58 73.35c2.02,11.83 -1.21,23.83 -8.87,32.91 -7.8,9.26 -19.14,14.56 -31.09,14.56 -0.01,0 -0.01,0 -0.01,0z"/>
  <path class="fil1" d="M219.98 0c-20.85,0 -39.53,11.63 -48.74,30.33l-32.95 66.71c-3.5,7.09 -10.25,11.99 -18.06,13.13l-73.63 10.7c-20.6,2.98 -37.43,17.14 -43.88,36.95 -6.46,19.82 -1.21,41.19 13.7,55.76l53.33 51.95c5.65,5.5 8.23,13.44 6.9,21.23l-12.58 73.34c-2.72,15.85 1.63,31.92 11.92,44.13 10.43,12.38 25.61,19.48 41.65,19.48 8.71,0 17.46,-2.18 25.31,-6.31l65.88 -34.63c3.41,-1.79 7.26,-2.73 11.15,-2.73 3.89,0 7.74,0.95 11.14,2.73l65.9 34.63c7.95,4.18 16.46,6.3 25.3,6.3 16.04,0 31.21,-7.1 41.65,-19.46 10.29,-12.2 14.64,-28.29 11.93,-44.13l-12.59 -73.37c-1.33,-7.78 1.25,-15.71 6.89,-21.2l53.29 -51.94c14.94,-14.59 20.2,-35.96 13.75,-55.78 -6.46,-19.82 -23.27,-33.97 -43.88,-36.96l-73.65 -10.7c-7.79,-1.13 -14.54,-6.04 -18.02,-13.11l-32.96 -66.75c-9.22,-18.69 -27.9,-30.31 -48.74,-30.31l0 0zm0 27.6c9.53,0 19.08,4.98 23.99,14.93l32.95 66.74c7.49,15.18 22.07,25.78 38.81,28.22l73.66 10.7c21.93,3.18 30.72,30.14 14.83,45.66l-53.27 51.92c-12.14,11.81 -17.69,28.97 -14.84,45.64l12.58 73.36c2.96,17.29 -10.78,31.34 -26.37,31.34 -4.11,0 -8.35,-0.98 -12.45,-3.14l-65.9 -34.63c-7.49,-3.94 -15.74,-5.91 -23.99,-5.91 -8.26,0 -16.51,1.97 -23.99,5.91l-65.89 34.63c-4.1,2.16 -8.35,3.14 -12.46,3.14 -15.59,0 -29.34,-14.05 -26.36,-31.34l12.59 -73.36c2.84,-16.67 -2.72,-33.83 -14.85,-45.64l-53.3 -51.92c-15.87,-15.52 -7.1,-42.48 14.86,-45.66l73.62 -10.7c16.76,-2.44 31.34,-13.03 38.84,-28.22l32.95 -66.74c4.9,-9.95 14.44,-14.93 23.99,-14.93z"/>
  <path class="fil0" d="M220.13 27.62c-9.58,-0.06 -19.22,4.91 -24.14,14.92l-32.95 66.74c-7.5,15.18 -22.08,25.78 -38.84,28.22l-73.62 10.7c-21.96,3.18 -30.74,30.14 -14.86,45.66l53.3 51.92c12.12,11.81 17.69,28.97 14.85,45.64l-12.59 73.36c-3.75,21.86 19.19,38.53 38.83,28.21l65.89 -34.63c7.54,-3.97 15.85,-5.92 24.14,-5.9l0 -324.83z"/>
 </g>
</svg>
