<?xml version="1.0" encoding="UTF-8"?>
<!DOCTYPE svg PUBLIC "-//W3C//DTD SVG 1.1//EN" "http://www.w3.org/Graphics/SVG/1.1/DTD/svg11.dtd">
<!-- Creator: CorelDRAW 2020 (64 Bit) -->
<svg xmlns="http://www.w3.org/2000/svg" xml:space="preserve" width="71.701mm" height="77.9183mm" version="1.1" style="shape-rendering:geometricPrecision; text-rendering:geometricPrecision; image-rendering:optimizeQuality; fill-rule:evenodd; clip-rule:evenodd"
viewBox="0 0 311.89 338.93"
 xmlns:xlink="http://www.w3.org/1999/xlink"
 xmlns:xodm="http://www.corel.com/coreldraw/odm/2003">
 <defs>
  <style type="text/css">
   <![CDATA[
    .str2 {stroke:black;stroke-width:19.97;stroke-linecap:round;stroke-linejoin:round;stroke-miterlimit:10}
    .str3 {stroke:black;stroke-width:19.97;stroke-linecap:round;stroke-linejoin:round;stroke-miterlimit:10}
    .str1 {stroke:black;stroke-width:19.97;stroke-linecap:round;stroke-linejoin:round;stroke-miterlimit:10}
    .str0 {stroke:black;stroke-width:19.97;stroke-linecap:round;stroke-linejoin:round;stroke-miterlimit:10}
    .fil3 {fill:none;fill-rule:nonzero}
    .fil5 {fill:black}
    .fil1 {fill:black;fill-rule:nonzero}
    .fil0 {fill:#026802;fill-rule:nonzero}
    .fil2 {fill:#FFCB05;fill-rule:nonzero}
    .fil4 {fill:white;fill-rule:nonzero}
   ]]>
  </style>
 </defs>
 <g id="Camada_x0020_1">
  <metadata id="CorelCorpID_0Corel-Layer"/>
  <path class="fil0" d="M42.3 295.37c-17.82,0 -32.31,-14.51 -32.31,-32.33l0 -220.74c0,-17.82 14.5,-32.31 32.31,-32.31l101.84 0c2.65,0 5.19,1.05 7.06,2.92l63.44 63.44c1.87,1.87 2.92,4.4 2.92,7.06l0 53.33c-11.26,0.08 -22.5,4.4 -31.06,12.98l-13.79 13.79c-7.16,7.16 -11.51,16.36 -12.68,26.04l-35.3 0c-17.43,0 -33.21,10.24 -40.42,26.07 -2.62,5.77 -3.99,12.01 -3.99,18.35l0 21.84c0,17.23 9.91,32.21 24.29,39.57l-62.3 0z"/>
  <path class="fil1" d="M144.14 0l-101.84 0c-23.32,0 -42.3,18.98 -42.3,42.3l0 220.74c0,23.32 18.98,42.3 42.3,42.3l118.67 0c-0.42,-1.7 -0.73,-3.4 -0.93,-5.14l-35.31 0c-13.13,0 -24.94,-5.74 -33.08,-14.83l-49.34 0c-12.34,0 -22.34,-10.01 -22.34,-22.34l0 -220.74c0,-12.33 9.99,-22.34 22.34,-22.34l91.08 0c-1,2.39 -1.53,4.99 -1.53,7.67l0 24.55c0,23.22 18.88,42.1 42.1,42.1l24.55 0c3.22,0 6.32,-0.77 9.07,-2.17l0 45.81c6.56,-1.55 13.39,-1.6 19.95,-0.13l0 -54.4c0,-5.3 -2.1,-10.38 -5.84,-14.11l-8.27 -8.26 -0.27 -0.27 -0.25 -0.28 -0.27 -0.27 -46.71 -46.71 -0.18 -0.18 -0.18 -0.17 -0.18 -0.17 -0.18 -0.18 -6.94 -6.96c-3.74,-3.75 -8.81,-5.85 -14.11,-5.85l0 0zm54.36 74.35l-24.55 0c-12.23,0 -22.14,-9.94 -22.14,-22.15l0 -24.55 46.69 46.71z"/>
  <polygon class="fil2" points="62.78,116.83 164.78,116.83 "/>
  <polygon class="fil2" points="62.78,154.44 164.78,154.44 "/>
  <polygon class="fil2" points="62.78,192.05 164.78,192.05 "/>
  <polygon class="fil2" points="62.78,229.67 164.78,229.67 "/>
  <line class="fil3 str0" x1="62.79" y1="116.83" x2="164.77" y2= "116.83" />
  <line class="fil3 str1" x1="62.79" y1="154.45" x2="164.77" y2= "154.45" />
  <line class="fil3 str2" x1="62.79" y1="192.06" x2="88.83" y2= "192.06" />
  <line class="fil3 str3" x1="62.79" y1="229.68" x2="66.42" y2= "229.68" />
  <g>
   <path class="fil4" d="M63.1 55.95c-5.51,0 -9.98,-4.47 -9.98,-9.98 0,-5.51 4.47,-9.98 9.98,-9.98l0 19.96zm40.25 0l-40.25 0 0 -19.96 40.25 0 0 19.96zm0 -19.96c5.51,0 9.98,4.47 9.98,9.98 0,5.51 -4.47,9.98 -9.98,9.98l0 -19.96z"/>
  </g>
  <polygon class="fil2" points="208.48,276.35 147.51,215.38 "/>
  <polygon class="fil2" points="306.04,178.8 245.06,117.83 "/>
  <polygon class="fil2" points="181.8,243.25 274.21,150.83 "/>
  <path class="fil5" d="M175.1 203.66c-3.1,-10.34 -0.58,-22.02 7.57,-30.18l13.79 -13.79c11.78,-11.79 31.03,-11.79 42.8,0l27.12 27.12c7.62,7.62 15.25,15.26 22.87,22.89l13.78 13.78c11.79,11.79 11.79,31.04 0,42.84l-13.79 13.78c-2.67,2.67 -5.34,5.34 -8.24,8.24 -4.89,4.85 -9.74,9.74 -14.61,14.61l-27.16 27.17c-11.76,11.78 -31.01,11.74 -42.77,-0.03l-13.79 -13.79c-8.16,-8.14 -10.66,-19.85 -7.56,-30.19l-50.39 0c-16.68,0 -30.29,-13.61 -30.29,-30.29l0 -21.84c0,-4.32 0.93,-8.56 2.72,-12.49 4.92,-10.79 15.66,-17.82 27.57,-17.82l50.38 0z"/>
  <path class="fil0" d="M110 227.32c-0.93,2.03 -1.45,4.27 -1.45,6.64l0 21.84c0,8.89 7.28,16.18 16.18,16.18l79.38 0 -8.1 8.08 -3.36 3.37c-6.29,6.28 -6.29,16.58 0,22.87l13.79 13.79c6.26,6.26 16.52,6.28 22.83,0.04 0,-0.01 0.02,-0.03 0.03,-0.04l25.27 -25.29 1.84 -1.85c3.95,-3.95 9.5,-9.52 14.65,-14.65 0.07,-0.07 0.13,-0.13 0.2,-0.2 2.94,-2.94 5.74,-5.74 8.02,-8.02l5.77 -5.75 8.01 -8.01c6.29,-6.29 6.29,-16.6 0,-22.88l-13.78 -13.79c-6.29,-6.29 -16.59,-16.58 -22.87,-22.87l-27.12 -27.13c-6.28,-6.28 -16.58,-6.28 -22.86,0l-13.79 13.79c-0.01,0.01 -0.01,0.01 -0.03,0.03 -6.26,6.29 -6.25,16.57 0.03,22.85l11.45 11.45 -79.38 0c-6.54,0 -12.18,3.94 -14.72,9.55z"/>
 </g>
</svg>
