<?xml version="1.0" encoding="UTF-8"?>
<!DOCTYPE svg PUBLIC "-//W3C//DTD SVG 1.1//EN" "http://www.w3.org/Graphics/SVG/1.1/DTD/svg11.dtd">
<!-- Creator: CorelDRAW 2020 (64 Bit) -->
<svg xmlns="http://www.w3.org/2000/svg" xml:space="preserve" width="82.0994mm" height="48.0353mm" version="1.1" style="shape-rendering:geometricPrecision; text-rendering:geometricPrecision; image-rendering:optimizeQuality; fill-rule:evenodd; clip-rule:evenodd"
viewBox="0 0 9954.12 5824.03"
 xmlns:xlink="http://www.w3.org/1999/xlink"
 xmlns:xodm="http://www.corel.com/coreldraw/odm/2003">
 <defs>
  <style type="text/css">
   <![CDATA[
    .fil0 {fill:black;fill-rule:nonzero}
    .fil1 {fill:#026802;fill-rule:nonzero}
   ]]>
  </style>
 </defs>
 <g id="Camada_x0020_1">
  <metadata id="CorelCorpID_0Corel-Layer"/>
  <g>
   <path class="fil0" d="M304.47 506.25c-139.78,0 -253.11,-113.33 -253.11,-253.12 0,-139.8 113.33,-253.12 253.11,-253.12l0 506.25zm8591.04 0l-8591.04 0 0 -506.25 8591.04 0 0 0 0 506.25zm0 -506.25c139.78,0 253.11,113.33 253.11,253.12 0,139.8 -113.33,253.12 -253.11,253.12l0 -506.25zm1058.61 1058.96l-506.22 0 0 0 -0.73 -28.72 -2.13 -28.14 -3.53 -27.72 -4.86 -27.2 -6.13 -26.63 -7.43 -26.13 -8.67 -25.64 -9.86 -25 -11.02 -24.38 -12.2 -23.8 -13.31 -23.16 -14.38 -22.44 -15.42 -21.68 -16.43 -20.91 -17.41 -20.1 -18.34 -19.24 -19.23 -18.34 -20.1 -17.42 -20.91 -16.44 -21.68 -15.42 -22.41 -14.37 -23.13 -13.3 -23.75 -12.17 -24.42 -11.03 -25.02 -9.88 -25.53 -8.64 -26.1 -7.41 -26.64 -6.16 -27.16 -4.85 -27.67 -3.52 -28.09 -2.15 -28.67 -0.72 0 -506.25 54.21 1.37 53.7 4.09 52.94 6.74 52.16 9.31 51.3 11.83 50.33 14.29 49.32 16.7 48.11 18.97 46.95 21.22 45.72 23.42 44.33 25.5 42.94 27.53 41.49 29.51 39.95 31.4 38.36 33.23 36.71 35 35 36.73 33.25 38.39 31.39 39.95 29.51 41.51 27.52 42.96 25.49 44.33 23.4 45.7 21.25 47.01 18.97 48.18 16.67 49.26 14.29 50.35 11.86 51.36 9.3 52.2 6.73 52.96 4.1 53.72 1.36 54.23 0 0zm0 0c0,139.8 -113.33,253.12 -253.11,253.12 -139.78,0 -253.11,-113.33 -253.11,-253.12l506.22 0zm-506.22 3706.11l0 -3706.11 506.22 0 0 3706.11 0 0 -506.22 0zm506.22 0c0,139.8 -113.33,253.12 -253.11,253.12 -139.78,0 -253.11,-113.33 -253.11,-253.12l506.22 0zm-1058.61 1058.95l0 -506.25 0 0 28.67 -0.72 28.09 -2.15 27.67 -3.52 27.16 -4.85 26.6 -6.15 26.1 -7.42 25.61 -8.67 24.99 -9.86 24.38 -11.03 23.79 -12.19 23.1 -13.29 22.41 -14.38 21.71 -15.43 20.91 -16.44 20.1 -17.42 19.23 -18.34 18.34 -19.24 17.4 -20.09 16.44 -20.94 15.43 -21.69 14.37 -22.42 13.31 -23.16 12.2 -23.8 11.02 -24.38 9.86 -25 8.67 -25.64 7.43 -26.14 6.15 -26.61 4.85 -27.2 3.53 -27.69 2.13 -28.14 0.73 -28.71 506.22 0 -1.36 54.22 -4.1 53.72 -6.73 52.96 -9.31 52.2 -11.85 51.35 -14.29 50.34 -16.67 49.26 -18.97 48.18 -21.25 47.01 -23.4 45.7 -25.49 44.33 -27.53 42.98 -29.5 41.48 -31.38 39.95 -33.26 38.4 -35 36.73 -36.71 35 -38.36 33.23 -39.95 31.4 -41.45 29.5 -42.94 27.55 -44.36 25.51 -45.69 23.41 -46.98 21.24 -48.15 18.97 -49.25 16.67 -50.33 14.31 -51.34 11.85 -52.16 9.31 -52.94 6.74 -53.7 4.09 -54.21 1.37 0 0zm0 0c-139.78,0 -253.11,-113.33 -253.11,-253.12 0,-139.8 113.33,-253.12 253.11,-253.12l0 506.25zm-8642.4 -506.25l8642.4 0 0 506.25 -8642.4 0 0 -506.25zm0 506.25c-139.78,0 -253.11,-113.33 -253.11,-253.12 0,-139.8 113.33,-253.12 253.11,-253.12l0 506.25z"/>
  </g>
  <g>
   <path class="fil0" d="M9531.2 5111.58c90.58,90.33 90.8,237.01 0.47,327.6 -90.33,90.59 -237.01,90.81 -327.59,0.48l327.12 -328.09zm-2291.82 -2285.14l2291.82 2285.14 -327.12 328.09 -2291.82 -2285.14 327.12 -328.09zm-327.12 328.09c-90.58,-90.33 -90.8,-237.01 -0.47,-327.6 90.33,-90.59 237.01,-90.81 327.59,-0.48l-327.12 328.09z"/>
  </g>
  <g>
   <path class="fil0" d="M7608.48 833.05c127.93,0 231.64,103.72 231.64,231.65 0,127.93 -103.71,231.65 -231.64,231.65l0 -463.3zm-1003.99 0l1003.99 0 0 463.3 -1003.99 0 0 -463.3zm0 463.3c-127.93,0 -231.64,-103.72 -231.64,-231.65 0,-127.93 103.71,-231.65 231.64,-231.65l0 463.3z"/>
  </g>
  <g>
   <path class="fil0" d="M3903.36 2657.31c127.93,0 231.64,103.72 231.64,231.65 0,127.93 -103.71,231.65 -231.64,231.65l0 -463.3zm-3650.25 0l3650.25 0 0 463.3 -3650.25 0 0 -463.3zm0 463.3c-127.93,0 -231.64,-103.72 -231.64,-231.65 0,-127.93 103.71,-231.65 231.64,-231.65l0 463.3z"/>
  </g>
  <g>
   <path class="fil0" d="M3903.36 3899.75c127.93,0 231.64,103.72 231.64,231.65 0,127.93 -103.71,231.65 -231.64,231.65l0 -463.3zm-2441.7 0l2441.7 0 0 463.3 -2441.7 0 0 -463.3zm0 463.3c-127.93,0 -231.64,-103.72 -231.64,-231.65 0,-127.93 103.71,-231.65 231.64,-231.65l0 463.3z"/>
  </g>
  <g>
   <path class="fil0" d="M9125.58 441.85c90.29,-90.63 236.96,-90.92 327.59,-0.63 90.63,90.29 90.91,236.97 0.62,327.6l-328.21 -326.97zm-2439.46 2448.9l2439.46 -2448.9 328.21 326.97 -2439.46 2448.9 -0.34 0.34 -327.87 -327.31zm328.21 326.97c-90.29,90.63 -236.96,90.92 -327.59,0.63 -90.63,-90.29 -90.91,-236.97 -0.62,-327.6l328.21 326.97zm-1464.87 0.3l327.63 -327.58 0.04 0.04 21.48 20.43 22.16 19.05 22.78 17.65 23.42 16.32 24.04 15.01 24.55 13.7 25.07 12.39 25.52 11.08 25.98 9.78 26.35 8.5 26.66 7.19 26.94 5.89 27.2 4.57 27.38 3.29 27.5 1.96 27.5 0.65 27.55 -0.67 27.49 -1.96 27.34 -3.29 27.21 -4.58 26.98 -5.9 26.7 -7.2 26.35 -8.49 25.97 -9.81 25.57 -11.09 25.1 -12.4 24.58 -13.69 23.99 -14.99 23.5 -16.38 22.83 -17.64 22.13 -19.01 21.52 -20.44 327.53 327.65 -38.45 36.54 -39.97 34.31 -41.31 31.97 -42.48 29.6 -43.68 27.3 -44.7 24.92 -45.61 22.54 -46.42 20.16 -47.16 17.79 -47.81 15.42 -48.3 13.02 -48.75 10.66 -49.08 8.29 -49.38 5.93 -49.5 3.54 -49.61 1.2 -49.64 -1.19 -49.52 -3.54 -49.35 -5.9 -49.09 -8.28 -48.76 -10.65 -48.34 -13.03 -47.78 -15.41 -47.15 -17.79 -46.45 -20.18 -45.64 -22.55 -44.7 -24.93 -43.64 -27.28 -42.56 -29.66 -41.31 -32.01 -39.94 -34.3 -38.46 -36.58 0.04 0.04zm-0.04 -0.04c-90.42,-90.48 -90.38,-237.17 0.11,-327.6 90.48,-90.44 237.17,-90.39 327.59,0.1l-327.7 327.51zm-700.94 -1356.35l1028.6 1028.81 -327.63 327.58 -1028.6 -1028.81 327.55 -327.65 0.07 0.07zm-327.63 327.58c-90.45,-90.46 -90.42,-237.15 0.04,-327.6 90.46,-90.45 237.14,-90.44 327.59,0.02l-327.63 327.58zm-740.28 -306.49l0 -463.3 0 0 37.46 0.47 37.33 1.39 37.28 2.32 37.13 3.25 36.94 4.15 36.75 5.04 36.62 5.94 36.41 6.84 36.2 7.72 35.9 8.57 35.71 9.46 35.44 10.32 35.11 11.15 34.86 12.02 34.57 12.86 34.2 13.69 33.84 14.5 33.5 15.31 33.17 16.16 32.72 16.96 32.32 17.73 31.94 18.56 31.46 19.33 31.03 20.11 30.54 20.88 30.11 21.68 29.57 22.44 29.01 23.15 28.54 23.93 27.96 24.67 27.39 25.39 26.82 26.14 -327.48 327.72 -18.53 -18.07 -18.97 -17.58 -19.35 -17.08 -19.71 -16.54 -20.16 -16.09 -20.48 -15.53 -20.82 -14.99 -21.21 -14.5 -21.52 -13.96 -21.84 -13.41 -22.14 -12.86 -22.48 -12.34 -22.73 -11.77 -22.99 -11.19 -23.27 -10.66 -23.56 -10.09 -23.78 -9.52 -23.95 -8.91 -24.19 -8.33 -24.44 -7.76 -24.58 -7.17 -24.77 -6.55 -24.96 -5.98 -25.07 -5.35 -25.21 -4.73 -25.36 -4.12 -25.5 -3.49 -25.62 -2.89 -25.66 -2.23 -25.74 -1.61 -25.86 -0.96 -25.92 -0.33 0 0zm0 0c-127.93,0 -231.64,-103.72 -231.64,-231.65 0,-127.93 103.71,-231.65 231.64,-231.65l0 463.3zm-2311.05 -463.3l2311.05 0 0 463.3 -2311.05 0 0 -463.3zm0 463.3c-127.93,0 -231.64,-103.72 -231.64,-231.65 0,-127.93 103.71,-231.65 231.64,-231.65l0 463.3z"/>
  </g>
  <path class="fil1" d="M9447.92 1058.96c0,-83 -18.95,-161.53 -51.78,-232.26l-2074.28 2082.1 2080.94 2074.85c29,-67.1 45.13,-140.92 45.13,-218.58l0 -3706.11z"/>
 </g>
</svg>
