<?xml version="1.0" encoding="UTF-8"?>
<!DOCTYPE svg PUBLIC "-//W3C//DTD SVG 1.1//EN" "http://www.w3.org/Graphics/SVG/1.1/DTD/svg11.dtd">
<!-- Creator: CorelDRAW 2020 (64 Bit) -->
<svg xmlns="http://www.w3.org/2000/svg" xml:space="preserve" width="77.923mm" height="61.4177mm" version="1.1" style="shape-rendering:geometricPrecision; text-rendering:geometricPrecision; image-rendering:optimizeQuality; fill-rule:evenodd; clip-rule:evenodd"
viewBox="0 0 1778.75 1401.98"
 xmlns:xlink="http://www.w3.org/1999/xlink"
 xmlns:xodm="http://www.corel.com/coreldraw/odm/2003">
 <defs>
  <style type="text/css">
   <![CDATA[
    .fil1 {fill:black;fill-rule:nonzero}
    .fil0 {fill:#026802;fill-rule:nonzero}
    .fil2 {fill:white;fill-rule:nonzero}
   ]]>
  </style>
 </defs>
 <g id="Camada_x0020_1">
  <metadata id="CorelCorpID_0Corel-Layer"/>
  <path class="fil0" d="M285.72 1349.36c-128.53,0 -233.09,-104.59 -233.09,-233.14l0 -830.49c0,-128.55 104.56,-233.13 233.09,-233.13l1207.31 0c128.53,0 233.11,104.59 233.11,233.13l0 830.49c0,128.55 -104.58,233.14 -233.11,233.14l-1207.31 0z"/>
  <path class="fil1" d="M1493.03 0l-1207.31 0c-157.54,0 -285.72,128.19 -285.72,285.74l0 830.49c0,157.57 128.19,285.76 285.72,285.76l1207.31 0c157.53,0 285.72,-128.18 285.72,-285.76l0 -830.49c0,-157.54 -128.19,-285.74 -285.72,-285.74l0 0zm0 105.2c99.67,0 180.51,80.8 180.51,180.53l0 830.49c0,99.73 -80.84,180.53 -180.51,180.53l-1207.31 0c-99.65,0 -180.5,-80.8 -180.5,-180.53l0 -830.49c0,-99.73 80.85,-180.53 180.5,-180.53l1207.31 0z"/>
  <path class="fil0" d="M105.23 705.98l0 410.25c0,99.73 80.85,180.53 180.5,180.53l1207.31 0c99.67,0 180.51,-80.8 180.51,-180.53l0 -410.25 -1568.32 0z"/>
  <g>
   <path class="fil1" d="M1583.97 104.74c20.5,-20.58 53.81,-20.64 74.39,-0.14 20.58,20.5 20.64,53.81 0.14,74.39l-74.53 -74.25zm-597.35 599.59l597.35 -599.59 74.53 74.25 -597.35 599.59 -0.07 0.07 -74.46 -74.32zm74.53 74.25c-20.5,20.58 -53.81,20.64 -74.39,0.14 -20.58,-20.5 -20.64,-53.81 -0.14,-74.39l74.53 74.25zm-352.84 0.07l74.39 -74.39 0.01 0.01 5.41 5.15 5.59 4.8 5.75 4.46 5.91 4.12 6.05 3.78 6.19 3.45 6.32 3.13 6.44 2.8 6.55 2.47 6.64 2.14 6.72 1.81 6.79 1.49 6.85 1.16 6.9 0.83 6.92 0.5 6.93 0.16 6.94 -0.16 6.92 -0.5 6.9 -0.83 6.85 -1.16 6.79 -1.48 6.72 -1.81 6.65 -2.14 6.55 -2.47 6.44 -2.8 6.32 -3.13 6.2 -3.46 6.06 -3.78 5.91 -4.12 5.75 -4.46 5.59 -4.79 5.41 -5.15 74.39 74.39 -9.27 8.81 -9.62 8.26 -9.95 7.7 -10.25 7.14 -10.51 6.57 -10.77 6 -10.99 5.43 -11.19 4.86 -11.36 4.28 -11.51 3.71 -11.64 3.14 -11.75 2.57 -11.82 2 -11.89 1.43 -11.93 0.85 -11.95 0.29 -11.95 -0.28 -11.93 -0.86 -11.89 -1.42 -11.83 -2 -11.74 -2.57 -11.64 -3.14 -11.51 -3.71 -11.36 -4.28 -11.19 -4.86 -10.98 -5.43 -10.77 -6 -10.52 -6.58 -10.25 -7.14 -9.95 -7.71 -9.62 -8.27 -9.27 -8.81 0.01 0.01zm-0.01 -0.01c-20.54,-20.55 -20.53,-53.85 0.02,-74.39 20.55,-20.54 53.86,-20.52 74.39,0.02l-74.42 74.37zm-527.02 -675.79l601.42 601.41 -74.39 74.39 -601.42 -601.41 74.39 -74.39zm-74.39 74.39c-20.54,-20.54 -20.54,-53.85 0,-74.39 20.54,-20.54 53.85,-20.54 74.39,0l-74.39 74.39z"/>
  </g>
  <g>
   <path class="fil1" d="M1042 763.12c-20.57,-20.51 -20.62,-53.82 -0.11,-74.39 20.51,-20.57 53.82,-20.62 74.39,-0.11l-74.28 74.5zm561.17 559.5l-561.17 -559.5 74.28 -74.5 561.17 559.5 -74.28 74.5zm74.28 -74.5c20.57,20.51 20.62,53.82 0.11,74.39 -20.51,20.57 -53.82,20.62 -74.39,0.11l74.28 -74.5z"/>
  </g>
  <g>
   <path class="fil1" d="M194.61 1311.24c-20.6,20.48 -53.91,20.38 -74.39,-0.22 -20.48,-20.6 -20.38,-53.91 0.22,-74.39l74.17 74.61zm549.37 -546.12l-549.37 546.12 -74.17 -74.61 549.37 -546.12 74.17 74.61zm-74.17 -74.61c20.6,-20.48 53.91,-20.38 74.39,0.22 20.48,20.6 20.38,53.91 -0.22,74.39l-74.17 -74.61z"/>
  </g>
  <g>
   <path class="fil2" d="M1209.57 201.69c29.05,0 52.6,23.55 52.6,52.6 0,29.05 -23.55,52.6 -52.6,52.6l0 -105.2zm-245.85 0l245.85 0 0 105.2 -245.85 0 0 -105.2zm0 105.2c-29.05,0 -52.6,-23.55 -52.6,-52.6 0,-29.05 23.55,-52.6 52.6,-52.6l0 105.2z"/>
  </g>
 </g>
</svg>
