<?xml version="1.0" encoding="UTF-8"?>
<!DOCTYPE svg PUBLIC "-//W3C//DTD SVG 1.1//EN" "http://www.w3.org/Graphics/SVG/1.1/DTD/svg11.dtd">
<!-- Creator: CorelDRAW 2020 (64 Bit) -->
<svg xmlns="http://www.w3.org/2000/svg" xml:space="preserve" width="73.4533mm" height="87.3264mm" version="1.1" style="shape-rendering:geometricPrecision; text-rendering:geometricPrecision; image-rendering:optimizeQuality; fill-rule:evenodd; clip-rule:evenodd"
viewBox="0 0 917.88 1091.25"
 xmlns:xlink="http://www.w3.org/1999/xlink"
 xmlns:xodm="http://www.corel.com/coreldraw/odm/2003">
 <defs>
  <style type="text/css">
   <![CDATA[
    .fil4 {fill:white}
    .fil1 {fill:black;fill-rule:nonzero}
    .fil0 {fill:#026802;fill-rule:nonzero}
    .fil2 {fill:#FFCB05;fill-rule:nonzero}
    .fil3 {fill:white;fill-rule:nonzero}
   ]]>
  </style>
 </defs>
 <g id="Camada_x0020_1">
  <metadata id="CorelCorpID_0Corel-Layer"/>
  <path class="fil0" d="M348.51 1060c-61.75,0 -112,-54.66 -112,-121.85l0 -667.58c0,-67.19 50.24,-121.84 112,-121.84l428.66 0c61.75,0 111.99,54.66 111.99,121.84l0 667.58c0,67.19 -50.24,121.85 -111.99,121.85l-428.66 0z"/>
  <path class="fil1" d="M777.17 117.49l-428.66 0c-77.6,0 -140.71,68.66 -140.71,153.08l0 667.58c0,84.42 63.11,153.09 140.71,153.09l428.66 0c77.59,0 140.72,-68.68 140.72,-153.09l0 -667.58c0,-84.42 -63.13,-153.08 -140.72,-153.08l0 0zm0 62.47c45.94,0 83.27,40.57 83.27,90.61l0 667.58c0,50.05 -37.32,90.63 -83.27,90.63l-428.66 0c-45.96,0 -83.27,-40.58 -83.27,-90.63l0 -667.58c0,-50.04 37.31,-90.61 83.27,-90.61l428.66 0z"/>
  <path class="fil0" d="M563.5 179.96l-214.99 0c-45.96,0 -83.27,40.57 -83.27,90.61l0 667.58c0,50.05 37.31,90.63 83.27,90.63l214.99 0 0 -848.82z"/>
  <path class="fil2" d="M795.19 836.81c0,18.42 -13.72,33.34 -30.63,33.34l-403.43 0c-16.92,0 -30.66,-14.93 -30.66,-33.34l0 -534.75c0,-18.4 13.74,-33.33 30.66,-33.33l403.43 0c16.91,0 30.63,14.93 30.63,33.33l0 534.75z"/>
  <g>
   <path class="fil0" d="M795.19 836.81c0,18.42 -13.72,33.34 -30.63,33.34l-403.43 0c-16.92,0 -30.66,-14.93 -30.66,-33.34l0 -534.75c0,-18.4 13.74,-33.33 30.66,-33.33l403.43 0c16.91,0 30.63,14.93 30.63,33.33l0 534.75z"/>
   <path id="1" class="fil1" d="M764.56 901.43l0 -62.56 0 0 0.12 -0 0.11 -0.01 0.09 -0.01 0.07 -0.01 0.08 -0.02 0.08 -0.03 0.08 -0.03 0.07 -0.03 0.08 -0.04 0.07 -0.04 0.07 -0.05 0.08 -0.06 0.08 -0.06 0.06 -0.06 0.08 -0.08 0.08 -0.08 0.06 -0.08 0.07 -0.08 0.05 -0.07 0.05 -0.08 0.06 -0.1 0.04 -0.08 0.03 -0.08 0.04 -0.1 0.03 -0.08 0.02 -0.08 0.03 -0.09 0.02 -0.07 0.01 -0.09 0.01 -0.12 0.01 -0.12 0 -0.13 57.52 0 -0.08 3.3 -0.23 3.27 -0.38 3.22 -0.52 3.19 -0.67 3.15 -0.8 3.07 -0.94 3.02 -1.07 2.95 -1.18 2.85 -1.32 2.8 -1.43 2.72 -1.54 2.61 -1.65 2.53 -1.77 2.44 -1.86 2.34 -1.96 2.24 -2.05 2.13 -2.14 2.02 -2.25 1.92 -2.32 1.8 -2.4 1.68 -2.49 1.56 -2.57 1.43 -2.63 1.29 -2.71 1.16 -2.77 1.02 -2.82 0.87 -2.88 0.73 -2.94 0.57 -2.98 0.41 -3 0.25 -3.03 0.08 0 0zm0 0c-15.88,0 -28.76,-14.01 -28.76,-31.28 0,-17.27 12.88,-31.28 28.76,-31.28l0 62.56zm-403.43 -62.56l403.43 0 0 62.56 -403.43 0 0 0 0 -62.56zm0 62.56c-15.88,0 -28.76,-14.01 -28.76,-31.28 0,-17.27 12.88,-31.28 28.76,-31.28l0 62.56zm-59.42 -64.62l57.52 0 0 0 0 0.13 0.01 0.12 0.01 0.11 0.02 0.09 0.02 0.09 0.02 0.08 0.03 0.09 0.03 0.08 0.04 0.08 0.04 0.09 0.04 0.08 0.05 0.09 0.05 0.08 0.06 0.08 0.07 0.08 0.07 0.08 0.08 0.08 0.07 0.07 0.07 0.06 0.08 0.06 0.08 0.06 0.08 0.05 0.07 0.04 0.08 0.04 0.08 0.03 0.08 0.03 0.08 0.03 0.08 0.02 0.08 0.02 0.09 0.01 0.11 0.01 0.12 0 0 62.56 -3.03 -0.08 -3 -0.25 -2.98 -0.41 -2.94 -0.57 -2.89 -0.72 -2.83 -0.87 -2.77 -1.02 -2.7 -1.16 -2.63 -1.29 -2.58 -1.43 -2.49 -1.56 -2.4 -1.68 -2.33 -1.8 -2.24 -1.92 -2.15 -2.03 -2.05 -2.13 -1.96 -2.24 -1.86 -2.34 -1.76 -2.44 -1.66 -2.53 -1.54 -2.62 -1.44 -2.71 -1.31 -2.79 -1.19 -2.87 -1.07 -2.95 -0.94 -3.01 -0.8 -3.08 -0.67 -3.14 -0.52 -3.19 -0.38 -3.23 -0.23 -3.27 -0.08 -3.3 0 0zm0 0c0,-17.27 12.88,-31.28 28.76,-31.28 15.88,0 28.76,14.01 28.76,31.28l-57.52 0zm57.52 -534.75l0 534.75 -57.52 0 0 -534.75 0 0 57.52 0zm-57.52 0c0,-17.27 12.88,-31.28 28.76,-31.28 15.88,0 28.76,14.01 28.76,31.28l-57.52 0zm59.42 -64.61l0 62.56 0 0 -0.12 0 -0.11 0.01 -0.09 0.01 -0.08 0.02 -0.08 0.02 -0.08 0.03 -0.08 0.03 -0.08 0.03 -0.08 0.04 -0.07 0.04 -0.09 0.05 -0.08 0.06 -0.07 0.05 -0.07 0.06 -0.07 0.07 -0.08 0.08 -0.07 0.07 -0.06 0.08 -0.06 0.08 -0.06 0.09 -0.05 0.09 -0.04 0.08 -0.04 0.09 -0.03 0.08 -0.03 0.08 -0.03 0.09 -0.02 0.08 -0.02 0.08 -0.01 0.09 -0.01 0.1 -0.01 0.12 -0 0.13 -57.52 0 0.08 -3.3 0.23 -3.27 0.38 -3.23 0.52 -3.19 0.67 -3.14 0.81 -3.08 0.94 -3.01 1.07 -2.95 1.2 -2.88 1.31 -2.79 1.44 -2.72 1.54 -2.62 1.65 -2.53 1.76 -2.44 1.87 -2.34 1.97 -2.24 2.05 -2.12 2.15 -2.03 2.24 -1.92 2.34 -1.81 2.4 -1.67 2.48 -1.55 2.58 -1.43 2.63 -1.29 2.7 -1.16 2.77 -1.02 2.83 -0.87 2.89 -0.72 2.94 -0.57 2.98 -0.41 3 -0.25 3.03 -0.08 0 0zm0 0c15.88,0 28.76,14.01 28.76,31.28 0,17.27 -12.88,31.28 -28.76,31.28l0 -62.56zm403.43 62.56l-403.43 0 0 -62.56 403.43 0 0 0 0 62.56zm0 -62.56c15.88,0 28.76,14.01 28.76,31.28 0,17.27 -12.88,31.28 -28.76,31.28l0 -62.56zm59.39 64.61l-57.52 0 0 0 -0 -0.13 -0.01 -0.12 -0.01 -0.11 -0.01 -0.09 -0.02 -0.07 -0.02 -0.09 -0.02 -0.08 -0.03 -0.08 -0.04 -0.1 -0.03 -0.07 -0.04 -0.08 -0.06 -0.1 -0.06 -0.09 -0.05 -0.07 -0.06 -0.08 -0.06 -0.07 -0.08 -0.08 -0.08 -0.08 -0.06 -0.06 -0.07 -0.06 -0.08 -0.06 -0.08 -0.05 -0.07 -0.04 -0.08 -0.04 -0.07 -0.03 -0.08 -0.03 -0.08 -0.03 -0.08 -0.02 -0.07 -0.01 -0.09 -0.01 -0.11 -0.01 -0.12 -0 0 -62.56 3.03 0.08 3 0.25 2.98 0.41 2.94 0.57 2.88 0.73 2.82 0.87 2.77 1.02 2.71 1.16 2.63 1.29 2.57 1.43 2.49 1.56 2.4 1.67 2.33 1.8 2.25 1.92 2.14 2.02 2.05 2.12 1.96 2.24 1.87 2.34 1.77 2.44 1.65 2.53 1.54 2.61 1.44 2.72 1.32 2.8 1.19 2.85 1.07 2.95 0.94 3.02 0.8 3.07 0.67 3.15 0.52 3.19 0.38 3.22 0.23 3.27 0.08 3.3 0 0zm0 0c0,17.27 -12.88,31.28 -28.76,31.28 -15.88,0 -28.76,-14.01 -28.76,-31.28l57.52 0zm-57.52 534.75l0 -534.75 57.52 0 0 534.75 0 0 -57.52 0zm57.52 0c0,17.27 -12.88,31.28 -28.76,31.28 -15.88,0 -28.76,-14.01 -28.76,-31.28l57.52 0z"/>
  </g>
  <path class="fil1" d="M538.8 941.31c-13.32,14.47 -13.27,37.9 0,52.34 13.26,14.43 34.78,14.45 48.09,0.01 13.27,-14.47 13.27,-37.9 0,-52.34 -13.26,-14.42 -34.83,-14.45 -48.09,-0.01z"/>
  <g>
   <path class="fil3" d="M442.76 557.24c-11.22,12.2 -29.4,12.2 -40.62,0 -11.22,-12.2 -11.22,-31.98 0,-44.18l40.62 44.18zm143.01 -155.55l-143.01 155.55 -40.62 -44.18 143.01 -155.55 40.62 44.18zm-40.62 -44.18c11.22,-12.2 29.4,-12.2 40.62,0 11.22,12.2 11.22,31.98 0,44.18l-40.62 -44.18z"/>
  </g>
  <g>
   <path class="fil3" d="M583.27 784.91c-11.22,12.2 -29.4,12.2 -40.62,0 -11.22,-12.2 -11.22,-31.98 -0,-44.18l40.63 44.18zm143.01 -155.58l-143.01 155.58 -40.63 -44.18 143.01 -155.58 40.63 44.18zm-40.63 -44.18c11.22,-12.2 29.4,-12.2 40.62,-0 11.22,12.2 11.22,31.98 0,44.18l-40.63 -44.18z"/>
  </g>
  <g>
   <path class="fil3" d="M477.38 703.11c-11.22,12.2 -29.4,12.2 -40.62,0 -11.22,-12.2 -11.22,-31.98 -0,-44.18l40.62 44.18zm211.53 -230.1l-211.53 230.1 -40.62 -44.18 211.53 -230.1 40.62 44.18zm-40.62 -44.18c11.22,-12.2 29.4,-12.2 40.62,-0 11.22,12.2 11.22,31.98 0,44.18l-40.62 -44.18z"/>
  </g>
  <path class="fil4" d="M619.04 243.37c-0.28,0.28 -0.52,0.52 -0.64,0.64 -0.12,0.08 -0.2,0.16 -0.28,0.24 -1.48,1.52 -2.97,3.01 -3.93,3.89 -50.54,49.54 -105.02,96.43 -154.8,146.3 -35.38,35.38 -95.51,20.94 -95.51,-32.65 0,-24.31 0,-48.58 0,-72.89l-217.02 0c-80.11,0 -146.82,-63.74 -146.86,-144.45 -0.04,-80.71 66.71,-144.45 146.86,-144.45l365.2 0c80.11,0 146.86,63.74 146.86,144.45 0,2.05 -0.08,4.09 -0.16,6.14 -0.96,22.26 -7.18,43.84 -17.97,63.3 -5.62,10.23 -12.39,19.74 -20.02,27.56 -0.56,0.68 -1.12,1.28 -1.73,1.93z"/>
  <path class="fil1" d="M139.7 145.49c0,-26.43 21.45,-47.88 47.93,-47.88 26.43,0 47.84,21.45 47.84,47.88 0,26.43 -21.41,47.88 -47.84,47.88 -26.47,0 -47.93,-21.45 -47.93,-47.88zm283.7 0c0,-26.43 21.45,-47.88 47.88,-47.88 26.47,0 47.88,21.45 47.88,47.88 0,26.43 -21.41,47.88 -47.88,47.88 -26.43,0 -47.88,-21.45 -47.88,-47.88zm-141.85 0c0,-26.43 21.45,-47.88 47.93,-47.88 26.43,0 47.84,21.45 47.84,47.88 0,26.43 -21.41,47.88 -47.84,47.88 -26.47,0 -47.93,-21.45 -47.93,-47.88zm329.56 52c8.11,-14.5 13,-30.94 13.73,-48.4 0.09,-1.59 0.13,-3.13 0.13,-4.63 0,0 0,0 0,0 0,0 0,0 0,0 0,-61.06 -50.59,-110.53 -112.93,-110.53l-182.52 0c-0.04,0 -0.09,0 -0.13,0l-182.52 0c-62.38,0 -112.93,49.47 -112.93,110.53 0,0 0,0 0,0 0,0 0,0 0,0 0,0 0,0 0,0.04 0.04,61.01 50.59,110.44 112.93,110.44l250.96 0c0,38.74 0,92.51 0,106.84 0,21.71 22.7,23.56 37.54,8.67 14.2,-14.2 120.01,-112.16 155.06,-146.52 1.2,-1.12 2.36,-2.27 3.48,-3.43 0.26,-0.26 0.56,-0.51 0.77,-0.77 0.21,-0.17 0.39,-0.43 0.6,-0.64 0.17,-0.17 0.34,-0.34 0.56,-0.56 6.09,-6.35 11.16,-13.47 15.27,-21.02z"/>
 </g>
</svg>
