<?xml version="1.0" encoding="UTF-8"?>
<!DOCTYPE svg PUBLIC "-//W3C//DTD SVG 1.1//EN" "http://www.w3.org/Graphics/SVG/1.1/DTD/svg11.dtd">
<!-- Creator: CorelDRAW 2020 (64 Bit) -->
<svg xmlns="http://www.w3.org/2000/svg" xml:space="preserve" width="77.9239mm" height="73.3757mm" version="1.1" style="shape-rendering:geometricPrecision; text-rendering:geometricPrecision; image-rendering:optimizeQuality; fill-rule:evenodd; clip-rule:evenodd"
viewBox="0 0 714.05 672.37"
 xmlns:xlink="http://www.w3.org/1999/xlink"
 xmlns:xodm="http://www.corel.com/coreldraw/odm/2003">
 <defs>
  <style type="text/css">
   <![CDATA[
    .fil1 {fill:black}
    .fil0 {fill:#026802}
    .fil2 {fill:#FCFCFC}
    .fil3 {fill:white;fill-rule:nonzero}
   ]]>
  </style>
 </defs>
 <g id="Camada_x0020_1">
  <metadata id="CorelCorpID_0Corel-Layer"/>
  <path class="fil0" d="M328.84 443.1c-10.07,15.25 -50.05,64.31 -39.86,72.72 8.31,6.86 28.15,-1.84 35.95,-5.32l96.74 -41.95c16.86,-5.87 56.2,17.17 151.87,-11.48 48.68,-14.58 98.4,-52.11 121.76,-98.61 67.02,-133.4 -54.66,-267.89 -221.18,-262.78 -177.07,5.44 -272.51,152.32 -201.41,270.85 18.33,30.55 48.61,51.65 56.13,76.57zm-18.1 -139.49l23.97 -2.38c1.45,8.02 4.33,13.88 8.72,17.65 4.39,3.77 10.31,5.64 17.77,5.64 7.88,0 13.82,-1.67 17.82,-5.02 4,-3.34 6.01,-7.25 6.01,-11.73 0,-2.89 -0.85,-5.33 -2.52,-7.37 -1.67,-2.01 -4.62,-3.77 -8.81,-5.24 -2.86,-1.02 -9.38,-2.78 -19.58,-5.33 -13.12,-3.29 -22.33,-7.31 -27.62,-12.1 -7.45,-6.71 -11.16,-14.9 -11.16,-24.56 0,-6.21 1.76,-12.04 5.24,-17.45 3.51,-5.41 8.56,-9.52 15.16,-12.35 6.6,-2.83 14.54,-4.25 23.88,-4.25 15.21,0 26.69,3.37 34.36,10.14 7.71,6.77 11.73,15.78 12.13,27.09l-24.65 0.85c-1.05,-6.29 -3.29,-10.79 -6.71,-13.54 -3.43,-2.75 -8.58,-4.14 -15.44,-4.14 -7.08,0 -12.64,1.47 -16.63,4.42 -2.58,1.9 -3.88,4.42 -3.88,7.59 0,2.89 1.22,5.35 3.65,7.39 3.09,2.64 10.6,5.35 22.52,8.19 11.93,2.8 20.74,5.75 26.43,8.75 5.72,3.03 10.2,7.14 13.43,12.38 3.23,5.24 4.84,11.7 4.84,19.38 0,6.97 -1.93,13.51 -5.81,19.61 -3.88,6.09 -9.35,10.62 -16.43,13.57 -7.08,2.98 -15.92,4.45 -26.49,4.45 -15.38,0 -27.2,-3.54 -35.44,-10.65 -8.24,-7.08 -13.15,-17.43 -14.76,-30.99zm119.5 39.44l0 -121.71 36.91 0 21.82 83.01 21.56 -83.01 37 0 0 121.71 -22.78 0 -0.08 -95.82 -24 95.82 -23.68 0 -23.88 -95.82 -0.08 95.82 -22.78 0zm135.48 -39.44l23.97 -2.38c1.45,8.02 4.33,13.88 8.72,17.65 4.39,3.77 10.31,5.64 17.77,5.64 7.88,0 13.82,-1.67 17.82,-5.02 4,-3.34 6.01,-7.25 6.01,-11.73 0,-2.89 -0.85,-5.33 -2.52,-7.37 -1.67,-2.01 -4.62,-3.77 -8.81,-5.24 -2.86,-1.02 -9.38,-2.78 -19.58,-5.33 -13.12,-3.29 -22.32,-7.31 -27.62,-12.1 -7.45,-6.71 -11.16,-14.9 -11.16,-24.56 0,-6.21 1.76,-12.04 5.24,-17.45 3.51,-5.41 8.56,-9.52 15.16,-12.35 6.6,-2.83 14.53,-4.25 23.88,-4.25 15.21,0 26.69,3.37 34.36,10.14 7.71,6.77 11.73,15.78 12.13,27.09l-24.65 0.85c-1.05,-6.29 -3.29,-10.79 -6.71,-13.54 -3.43,-2.75 -8.58,-4.14 -15.44,-4.14 -7.08,0 -12.64,1.47 -16.63,4.42 -2.58,1.9 -3.88,4.42 -3.88,7.59 0,2.89 1.22,5.35 3.65,7.39 3.09,2.64 10.6,5.35 22.52,8.19 11.93,2.8 20.74,5.75 26.43,8.75 5.72,3.03 10.2,7.14 13.43,12.38 3.23,5.24 4.84,11.7 4.84,19.38 0,6.97 -1.93,13.51 -5.81,19.61 -3.88,6.09 -9.35,10.62 -16.43,13.57 -7.08,2.98 -15.92,4.45 -26.49,4.45 -15.38,0 -27.2,-3.54 -35.44,-10.65 -8.24,-7.08 -13.15,-17.43 -14.76,-30.99z"/>
  <path class="fil1" d="M226.24 602.69c12.22,18.57 1.02,46.95 -24.75,48.14 -18.07,0.83 -30.33,-11.13 -32.67,-26.71 -5.12,-34 40.02,-47.88 57.43,-21.42zm-70.58 -575.07c1.71,-0.68 85.81,-2.24 91.43,1.03 7.59,4.4 6.53,15.75 -1.74,18.43 -3.34,1.08 -86.67,2.61 -92.93,-1.01 -7.57,-4.37 -5.56,-14.98 3.23,-18.45zm-134.11 46.47l356.48 0.4 0.32 19.99 19.88 -6.71c-0.63,-39.26 2.56,-65.46 -27.27,-81.46 -17.77,-9.53 -77.16,-5.43 -101.72,-5.43 -71.91,0 -143.82,-0.12 -215.73,-0.05 -32.51,0.03 -53.45,21.81 -53.51,54.79l0.03 540.77c0.01,37.3 2,61.69 35.06,72.43 17.05,5.54 224.65,2.73 266.5,2.73 39.66,0 64.29,7.12 86.92,-20.62 9.24,-11.34 9.68,-26.45 9.67,-43.76 -0.02,-35.33 1.04,-72.23 -0.11,-107.34 -6.48,1.09 -15.3,5.21 -19.98,8.75l-0.02 59.05 -356.62 -0.3 0.1 -493.24z"/>
  <path class="fil2" d="M155.66 27.62c-8.79,3.47 -10.8,14.08 -3.23,18.45 6.26,3.62 89.59,2.08 92.93,1.01 8.27,-2.68 9.33,-14.03 1.74,-18.43 -5.62,-3.27 -89.72,-1.71 -91.43,-1.03z"/>
  <g>
   <path class="fil3" d="M451.98 161.23c-6.09,4.2 -14.43,2.66 -18.62,-3.42 -4.2,-6.09 -2.66,-14.43 3.42,-18.62l15.2 22.04zm128.14 -1.36l-21.36 16.14 -1.69 -2.02 -1.98 -1.96 -2.28 -1.9 -2.57 -1.83 -2.86 -1.74 -3.13 -1.64 -3.38 -1.53 -3.61 -1.42 -3.81 -1.29 -3.99 -1.16 -4.14 -1.03 -4.26 -0.9 -4.36 -0.77 -4.43 -0.63 -4.47 -0.51 -4.49 -0.38 -4.48 -0.26 -4.45 -0.14 -4.39 -0.02 -4.3 0.09 -4.19 0.19 -4.05 0.29 -3.88 0.38 -3.69 0.47 -3.46 0.55 -3.2 0.62 -2.9 0.67 -2.56 0.71 -2.18 0.72 -1.74 0.69 -1.22 0.59 -0.63 0.38 -15.2 -22.04 3.11 -1.89 3.23 -1.57 3.37 -1.34 3.54 -1.17 3.73 -1.03 3.92 -0.91 4.11 -0.79 4.29 -0.68 4.46 -0.57 4.61 -0.46 4.76 -0.34 4.88 -0.22 4.98 -0.1 5.07 0.03 5.15 0.16 5.19 0.3 5.23 0.44 5.24 0.59 5.24 0.75 5.22 0.92 5.18 1.09 5.12 1.28 5.05 1.47 4.96 1.68 4.84 1.9 4.72 2.14 4.57 2.4 4.39 2.67 4.19 2.98 3.96 3.3 3.68 3.65 3.34 4zm0 0c4.46,5.9 3.29,14.3 -2.61,18.75 -5.9,4.46 -14.3,3.29 -18.75,-2.61l21.36 -16.14z"/>
  </g>
 </g>
</svg>
