<?xml version="1.0" encoding="UTF-8"?>
<!DOCTYPE svg PUBLIC "-//W3C//DTD SVG 1.1//EN" "http://www.w3.org/Graphics/SVG/1.1/DTD/svg11.dtd">
<!-- Creator: CorelDRAW 2020 (64 Bit) -->
<svg xmlns="http://www.w3.org/2000/svg" xml:space="preserve" width="64.1232mm" height="73.3768mm" version="1.1" style="shape-rendering:geometricPrecision; text-rendering:geometricPrecision; image-rendering:optimizeQuality; fill-rule:evenodd; clip-rule:evenodd"
viewBox="0 0 374.89 428.99"
 xmlns:xlink="http://www.w3.org/1999/xlink"
 xmlns:xodm="http://www.corel.com/coreldraw/odm/2003">
 <defs>
  <style type="text/css">
   <![CDATA[
    .fil0 {fill:black}
    .fil1 {fill:#026802}
   ]]>
  </style>
 </defs>
 <g id="Camada_x0020_1">
  <metadata id="CorelCorpID_0Corel-Layer"/>
  <path class="fil0" d="M144.34 384.53c7.8,11.86 0.65,29.95 -15.78,30.72 -11.52,0.54 -19.35,-7.11 -20.85,-17.04 -3.27,-21.7 25.54,-30.56 36.63,-13.68zm-45.02 -366.9c1.08,-0.43 54.75,-1.44 58.34,0.65 4.82,2.83 4.15,10.07 -1.12,11.77 -2.13,0.7 -55.29,1.66 -59.28,-0.65 -4.84,-2.78 -3.56,-9.55 2.06,-11.77zm-85.58 29.64l227.45 0.27 0.2 9.01 12.67 -0.54c-0.4,-25.04 1.64,-41.77 -17.4,-51.97 -11.32,-6.1 -49.21,-3.48 -64.88,-3.48 -45.87,0 -91.77,-0.07 -137.64,-0.02 -20.74,0.02 -34.1,13.9 -34.15,34.95l0.02 345.02c0,23.79 1.28,39.35 22.38,46.21 10.87,3.54 143.31,1.75 170.03,1.75 25.29,0 41.01,4.53 55.44,-13.16 5.9,-7.24 6.17,-16.88 6.17,-27.91 -0.02,-22.55 0.81,-50.4 0.07,-72.8 -3.65,0.94 -6.39,1.55 -12.89,0.4l0 47.15 -227.54 -0.18 0.07 -314.71z"/>
  <path class="fil1" d="M247.62 83.97c21.26,0 29.93,0.96 48.74,9.43 5.86,2.63 10.5,5.67 15.33,9.22 1.22,0.9 2.08,1.49 3.36,2.45 0.1,0.08 0.26,0.21 0.35,0.29 0.11,0.08 0.26,0.21 0.35,0.29l1.07 0.88c0.66,0.53 1.15,0.88 1.79,1.44l0.67 0.61c0.1,0.1 0.22,0.24 0.32,0.32 3.38,3.06 4.98,4.11 8.13,8.03 0.82,1.02 0.59,0.7 1.54,1.7l3.22 3.87c0.34,0.4 0.56,0.7 0.85,1.1 1.1,1.57 1.66,2.26 2.67,3.79l2.29 3.52c0.96,1.5 1.63,2.54 2.5,3.97 3.83,6.34 8.64,19.03 10.15,26.68 0.34,1.71 0.51,3.01 0.99,4.82 2.48,9.51 1.36,19.72 1.01,29.37 -0.18,4.31 -1.18,6.74 -1.9,10.39l-4.03 14.05c-0.46,1.12 -0.53,1.02 -1.06,2.18 -0.43,0.9 -0.59,1.33 -0.96,2.27l-7.12 13.56c-3.2,4.96 -7.99,11.06 -12.32,15.45l-5.99 5.65c-10.77,10.02 -21.27,15.28 -34.81,20.1 -16.23,5.76 -36.75,6.71 -53.15,2.78 -4.95,-1.18 -3.91,-0.22 -9.2,-2.42l-6.32 -2.08c-1.34,-0.61 -0.93,-0.61 -2.51,-1.34 -1.06,-0.5 -1.97,-0.7 -2.83,-1.06 -3.41,-1.36 -11.48,-7.17 -14.15,-7.17l-8.77 2.85c-1.71,0.66 -2.67,1.12 -4.27,1.55l-23.78 7.22c0.24,-2.85 11.64,-33.66 11.64,-35.53 0,-2.03 -2.39,-5.35 -4.18,-8.1 -1.1,-1.71 -0.72,-0.83 -1.71,-2.8 -3.7,-7.38 -4.98,-9.09 -8.03,-17.81 -1.9,-5.39 -3.91,-15.56 -4.18,-21.67 -0.13,-3.01 -0.5,-4.37 -0.77,-7.67 -0.35,-4.11 1.26,-18.61 2.05,-22.73l6.39 -19.46c1.09,-2.11 1.73,-4.02 2.94,-6.08 0.8,-1.36 0.61,-0.88 1.39,-2.5l12.66 -17.72c2.56,-3.2 5.12,-6.05 8.29,-8.48 5.04,-3.86 8.18,-7.04 14.82,-11.03 6.4,-3.86 10.76,-5.81 17.57,-8.27 2.88,-1.04 2.67,-1.46 6.19,-2.21 2.42,-0.51 4.59,-1.2 7.11,-1.94 3.38,-0.99 11.46,-1.76 15.69,-1.76zm-116.29 100.15c0,16.09 3.01,31.45 8.96,45.97 0.59,1.42 0.83,2.27 1.49,3.67l6.99 13.04 -10.98 32.3c-2.74,10.23 -8.66,22.92 -10.98,32.95 4.45,-0.1 8.55,-2.32 12.66,-3.49 1.98,-0.58 2.75,-1.07 4.23,-1.6 1.5,-0.54 2.29,-0.66 4.05,-1.1l12.66 -4.15c2.72,-1.1 5.67,-1.57 8.39,-2.59 4.35,-1.63 21.96,-7.75 25.85,-7.75 1.78,0 4.5,2.11 6.15,2.9l9.71 3.86c1.38,0.48 1.82,0.85 3.14,1.39 4.67,1.87 9.19,2.98 14.31,3.76l7.57 1.47c8.69,1.66 21.93,1.78 30.67,0.67 4.07,-0.53 8.72,-1.62 12.63,-2.24 2.51,-0.4 3.73,-0.51 5.83,-1.3 2.69,-0.99 2.86,-0.96 6,-1.74 4.8,-1.2 11.7,-4.31 16.1,-6.51 1.74,-0.88 3.3,-1.73 5.04,-2.69 1.7,-0.94 3.42,-1.89 4.95,-2.83 5.73,-3.54 11.32,-7.59 16.25,-12.16l12.39 -12.18c5.51,-6.05 9.75,-13.33 14.07,-20.17 0.05,-0.06 0.26,-0.27 0.78,-1.15 0.4,-0.67 0.22,-0.35 0.66,-1.28l8.74 -21.62c0.61,-2.56 0.99,-3.68 1.76,-5.99 2.53,-7.59 3.52,-23.14 3.52,-32.01 0,-11.11 -2.26,-20.55 -4.91,-31.26 -2.63,-10.6 -7.62,-20.77 -13.2,-30.09l-16.31 -21.17c-2.42,-2.93 -12.34,-11.04 -15.7,-13.36 -6.93,-4.82 -15.65,-9.86 -23.32,-13.49 -7.31,-3.49 -20.47,-6.96 -28.52,-8.32 -11.67,-1.98 -28.47,-1.98 -40.19,0.1 -12.13,2.15 -24.79,6.23 -35.64,12.16l-24.25 16.44c-1.66,1.47 -2.15,1.76 -3.68,3.44 -9.01,9.91 -16.13,16.49 -22.55,29.13l-9.04 20.68c-3.95,13.89 -6.24,22.87 -6.24,38.33z"/>
  <path class="fil1" d="M192.06 152.45c0,7.51 -0.32,6.9 1.78,13.72 2.61,8.43 3.91,11.3 9,19.45l6.67 10.13c4.39,6.23 6.63,8.15 10.05,12.55l10.2 10.48c0.1,0.08 0.24,0.21 0.34,0.3 0.1,0.1 0.24,0.22 0.34,0.3l13.32 9.96c3.35,1.95 3.83,3.27 10.88,5.91l20.33 8.1c10.4,3.06 9.28,2.43 16.79,1.04 6.27,-1.17 7.28,-0.62 14.31,-5.73 5.59,-4.07 9.14,-7.19 10.02,-16.49 0.26,-2.61 0.4,-4.07 0.24,-5.38 -0.4,-3.2 -1.38,-2.94 -6.88,-5.97 -1.9,-1.04 -2.74,-1.7 -4.53,-2.59 -24.57,-12.28 -18.42,-10.37 -26.76,-1.98 -7.76,7.81 -5.95,11.73 -17.4,5.46 -3.46,-1.9 -6.34,-3.3 -9.35,-5.52 -2.99,-2.21 -5.41,-4.29 -8.21,-6.64l-8.87 -9.23c-0.99,-1.14 -0.83,-1.02 -1.66,-2.21l-4.48 -6.51c-7.97,-12.63 -2.19,-8.29 4.87,-19.16 4.9,-7.54 0.75,-8.35 -2.21,-18.36 -0.66,-2.21 -0.77,-2.67 -1.73,-4.75 -0.86,-1.87 -0.93,-2.37 -1.5,-4.31 -3.6,-12.18 -6.31,-10.34 -16.15,-10.34 -5.52,0 -6.9,2.88 -9.78,5.75 -3.3,3.27 -5.97,7.41 -7.39,11.97 -1.3,4.16 -2.21,4.47 -2.21,10.07z"/>
 </g>
</svg>
