<?xml version="1.0" encoding="UTF-8"?>
<!DOCTYPE svg PUBLIC "-//W3C//DTD SVG 1.1//EN" "http://www.w3.org/Graphics/SVG/1.1/DTD/svg11.dtd">
<!-- Creator: CorelDRAW 2020 (64 Bit) -->
<svg xmlns="http://www.w3.org/2000/svg" xml:space="preserve" width="77.9245mm" height="77.5088mm" version="1.1" style="shape-rendering:geometricPrecision; text-rendering:geometricPrecision; image-rendering:optimizeQuality; fill-rule:evenodd; clip-rule:evenodd"
viewBox="0 0 447.31 444.93"
 xmlns:xlink="http://www.w3.org/1999/xlink"
 xmlns:xodm="http://www.corel.com/coreldraw/odm/2003">
 <defs>
  <style type="text/css">
   <![CDATA[
    .fil0 {fill:black}
    .fil1 {fill:#026802}
   ]]>
  </style>
 </defs>
 <g id="Camada_x0020_1">
  <metadata id="CorelCorpID_0Corel-Layer"/>
  <path class="fil0" d="M122.79 117.93l-75.02 -0.11c-10.81,0.2 -13.63,0.79 -13.63,11.98 0,27.03 -2.27,179.19 1.74,193.01 12.88,3.52 367.16,3.59 380.1,-0.04 3.3,-11.6 3.3,-191.14 0,-203.14 -12.88,-3.74 -68.24,-1.58 -86.75,-1.67l0.35 -14.88c21.77,0 43.15,0.07 64.5,0 23.49,-0.09 38.55,1.72 38.55,26.72l0 198.65c0,18.14 -8.54,25.56 -26.75,25.56l-359.9 0c-35.75,0 -26.77,-35.86 -26.77,-66.85l0 -143.57c-0.11,-50.61 9.97,-40.5 102.65,-40.5l0.92 14.86zm221.85 147.33l0.09 14.26c1.98,-0.02 6.38,-0.35 8.12,-0.18 7.33,0.73 3.32,0.48 5.77,2.11l0.07 13.54 13.89 0.11 0.33 -14.99 15.45 -0.68 -0.18 -13.93 -13.71 -0.02c-1.83,-2.93 -1.25,0.55 -1.98,-5.79 -0.18,-1.52 0.11,-6.41 0.13,-8.17l-14.18 -0.04 0.26 14.02 -14.07 -0.24zm-221.96 -176.77c-24.92,0 -49.9,-0.18 -74.8,-0.04 -17.72,0.07 -26.79,4.4 -32.21,10.24 -11.91,12.9 -10.54,28.18 -10.54,44.09l0 149.56c0,23.69 -5.75,59.83 19.97,72.62 13.93,6.91 116.8,3.7 136.24,3.59l-13.65 29.96c-23.82,0.73 -48.56,0.02 -72.2,0.02 -15.39,-0.29 -42.4,-2.99 -56.24,-1.47 -42.53,4.64 -5.04,46.71 21.27,45.44 55.41,0 367.05,9.47 393.91,-8.92 7.77,-5.33 7.79,-11.09 12.77,-20.45 1.56,-22.34 -50.54,-14.59 -68.84,-14.59 -24.3,0 -49.71,0.73 -73.88,-0.15l-14.84 -29.41c18.71,-0.13 123.25,2 135.76,-3.41 4.98,-2.29 8.3,-4.93 10.85,-7.88 13.1,-15.17 10.94,-25.89 10.94,-44.27l0 -173.82c0,-15.87 0.26,-32.25 -13.85,-43.1 -16.88,-13.01 -75.26,-7.99 -104.15,-7.99l0.02 -88.49 -14.49 0c0,24.13 -4.05,164.57 2.66,175.14 6.49,3.65 19.5,1.85 28.31,1.92l-91.07 55.23c-8.83,5.26 -21.62,14.18 -29.96,17.13l-59.44 -36.28c-18.03,-10.68 -44.31,-24.68 -59.06,-36.08 8.78,-0.07 21.82,1.74 28.31,-1.92 6.71,-10.57 2.66,-151.01 2.66,-175.14l-14.51 0 0.04 88.49zm206.51 45.24c4.18,-2.66 -4.93,-0.95 5.81,-2.05 2.14,-0.22 7.44,0.04 9.91,0.07l58.34 0.68 0.64 177.63 -355.27 0.66 -0.64 -178.29 74.71 1.3 -0.29 28.71c-10.48,-0.02 -38.41,-2.09 -47.48,2.22 -15.23,7.26 17.17,21.71 29.15,28.93 17.5,10.59 116.38,70.95 121.16,71.26 6.49,0.4 118.17,-68.75 141.02,-82.31 7.33,-4.34 24.74,-14.31 7.75,-19.33 -2.93,-0.86 -2.16,-0.66 -5.33,-0.92l-38.68 0.15 -0.79 -28.71zm-149.98 234.79l92.94 0.04 15.37 29.63 -122.55 0.33 14.24 -30zm-158.63 44.64l410.68 0c-8.72,21.4 -60.51,14.75 -94.22,14.75l-275.39 0.02c-28.9,0.07 -32.54,-1.21 -41.08,-14.77z"/>
  <path class="fil1" d="M190.15 81.25c11.25,-2.55 26.99,-4.25 36.54,-10.76l10.06 -7.95 25.78 15.43c-6.8,29.7 -50.06,52.61 -72.38,3.28zm-0.62 -15.19c1.52,-21.64 10.74,-35.71 33.44,-36.54 23.2,-0.86 34.23,8.52 38.44,29.3 -12.66,-4.18 -18.49,-14.53 -32.95,-13.65 -8.81,15.96 -14.37,17.37 -38.92,20.89zm3.26 44.4c-6.52,3.52 -18.56,3.63 -28.09,20.12 -7.37,12.77 -4.93,30.62 -4.93,46.43l14.53 0c-3.7,-55.52 10.57,-51.71 52.61,-51.71 49.77,0 51.03,2.2 50.76,51.71l14.31 0c0.15,-26.75 4.07,-42.38 -16.07,-58.84 -7.11,-5.81 -10.43,-4.09 -16.82,-7.93 12.02,-15.04 24.94,-25.67 15.04,-61.13 -13.03,-46.71 -84.95,-46.4 -97.14,1.39 -7.66,30.03 1.32,44.6 15.81,59.96z"/>
  <path class="fil1" d="M366.24 182.53c-22.85,13.56 -134.52,82.7 -141.02,82.31 -4.78,-0.31 -103.66,-60.67 -121.16,-71.26 -11.98,-7.22 -44.38,-21.66 -29.15,-28.93 9.07,-4.31 37,-2.25 47.48,-2.22l0.29 -28.71 -74.71 -1.3 0.64 178.29 355.27 -0.66 -0.64 -177.63 -58.34 -0.68c-2.47,-0.02 -7.77,-0.29 -9.91,-0.07 -10.74,1.1 -1.63,-0.62 -5.81,2.05l0.79 28.71 38.68 -0.15 5.33 0.92c16.99,5.02 -0.42,14.99 -7.75,19.33zm-21.51 96.99l-0.09 -14.26 14.07 0.24 -0.26 -14.02 14.18 0.04c-0.02,1.76 -0.31,6.65 -0.13,8.17 0.73,6.34 0.15,2.86 1.98,5.79l13.71 0.02 0.18 13.93 -15.45 0.68 -0.33 14.99 -13.89 -0.11 -0.07 -13.54c-2.44,-1.63 1.56,-1.39 -5.77,-2.11 -1.74,-0.18 -6.14,0.15 -8.12,0.18z"/>
  <path class="fil1" d="M415.99 322.76c-12.94,3.63 -367.23,3.57 -380.1,0.04 -4.01,-13.82 -1.74,-165.98 -1.74,-193.01 0,-11.18 2.82,-11.78 13.63,-11.98l75.02 0.11 -0.92 -14.86c-92.68,0 -102.76,-10.1 -102.65,40.5l0 143.57c0,30.99 -8.98,66.85 26.77,66.85l359.9 0c18.2,0 26.75,-7.42 26.75,-25.56l0 -198.65c0,-25.01 -15.06,-26.81 -38.55,-26.72 -21.35,0.07 -42.73,0 -64.5,0l-0.35 14.88c18.51,0.09 73.88,-2.07 86.75,1.67 3.3,12 3.3,191.54 0,203.14z"/>
  <path class="fil1" d="M431.26 413.17l-410.68 0c8.54,13.56 12.17,14.84 41.08,14.77l275.39 -0.02c33.7,0 85.5,6.65 94.22,-14.75z"/>
 </g>
</svg>
