<?xml version="1.0" encoding="UTF-8"?>
<!DOCTYPE svg PUBLIC "-//W3C//DTD SVG 1.1//EN" "http://www.w3.org/Graphics/SVG/1.1/DTD/svg11.dtd">
<!-- Creator: CorelDRAW 2020 (64 Bit) -->
<svg xmlns="http://www.w3.org/2000/svg" xml:space="preserve" width="80.4176mm" height="76.8531mm" version="1.1" style="shape-rendering:geometricPrecision; text-rendering:geometricPrecision; image-rendering:optimizeQuality; fill-rule:evenodd; clip-rule:evenodd"
viewBox="0 0 404.96 387.01"
 xmlns:xlink="http://www.w3.org/1999/xlink"
 xmlns:xodm="http://www.corel.com/coreldraw/odm/2003">
 <defs>
  <style type="text/css">
   <![CDATA[
    .fil0 {fill:black}
    .fil5 {fill:#026802}
    .fil2 {fill:black;fill-rule:nonzero}
    .fil1 {fill:#026802;fill-rule:nonzero}
    .fil3 {fill:#FFCB05;fill-rule:nonzero}
    .fil4 {fill:white;fill-rule:nonzero}
   ]]>
  </style>
 </defs>
 <g id="Camada_x0020_1">
  <metadata id="CorelCorpID_0Corel-Layer"/>
  <path class="fil0" d="M111.83 343.35l-75.04 0c-20.3,0 -36.79,-16.49 -36.79,-36.79l0 -48.74 0 -0.31 0 -0.31 0 -81.13 0 -0.31 0 -0.31 0 -81.14 0 -0.31 0 -0.31 0 -56.91c0,-20.3 16.49,-36.79 36.79,-36.79l237.08 0c20.28,0 36.79,16.49 36.79,36.79l0 56.91 0 0.31 0 0.31 0 18.17c0,6.78 -5.5,12.26 -12.26,12.26 -6.78,0 -12.26,-5.48 -12.26,-12.26l0 -6.22 -118.55 0 0 57.24 70.64 0c6.76,0 12.26,5.48 12.26,12.26 0,6.76 -5.5,12.26 -12.26,12.26l0 0 -70.64 0 0 69.17 0 0.31c0,6.78 -5.48,12.26 -12.26,12.26l-0.31 0 -130.48 0 0 36.79c0,6.78 5.48,12.26 12.26,12.26l75.04 0c6.78,0 12.26,5.48 12.26,12.26 0,6.78 -5.48,12.26 -12.26,12.26l0 0zm31.23 -237.08l-118.53 0 0 57.24 118.53 0 0 -57.24zm0 81.76l-118.53 0 0 57.22 118.53 0 0 -57.22zm12.26 81.74l0 0zm130.81 -188.03l0 -44.96c0,-6.78 -5.5,-12.26 -12.26,-12.26l-237.08 0c-6.78,0 -12.26,5.48 -12.26,12.26l0 44.96 130.48 0 0.31 0 0.31 0 130.5 0z"/>
  <path class="fil1" d="M142.47 377.19c-8.26,-0.3 -15.88,-4.28 -20.91,-10.92 -5.02,-6.61 -6.77,-15.04 -4.81,-23.13l13.54 -55.94c2.57,-10.55 8.11,-20.02 16.05,-27.4l150.03 -139.62c7.65,-7.11 17.61,-10.83 28.06,-10.45 10.45,0.38 20.14,4.79 27.26,12.44l32.99 35.46c7.12,7.65 10.84,17.61 10.47,28.07 -0.37,10.45 -4.78,20.12 -12.44,27.24l-150.04 139.62c-7.91,7.37 -17.71,12.26 -28.33,14.18l-55.91 10.04c-1.96,0.35 -3.96,0.5 -5.94,0.43l0 0z"/>
  <path class="fil2" d="M324.77 99.94c-13.06,-0.47 -25.53,4.17 -35.08,13.07l-150.03 139.62c-9.34,8.69 -15.87,19.84 -18.88,32.24l-13.54 55.97c-2.66,10.96 -0.27,22.39 6.52,31.35 6.82,9 17.16,14.39 28.37,14.79 2.68,0.1 5.38,-0.1 8.04,-0.58l55.89 -10.03c12.49,-2.25 24,-8.01 33.29,-16.66l150.03 -139.62c9.56,-8.9 15.09,-21 15.56,-34.06 0.46,-13.07 -4.19,-25.53 -13.1,-35.09l-32.98 -35.45c-8.91,-9.57 -21.01,-15.1 -34.08,-15.57l0 0zm-0.7 19.58c7.51,0.27 14.92,3.4 20.44,9.33l32.98 35.45c11.05,11.87 10.38,30.44 -1.47,41.47l-150.04 139.62c-6.51,6.06 -14.64,10.13 -23.4,11.71l-55.91 10.04c-1.31,0.23 -2.6,0.32 -3.86,0.28 -10.88,-0.39 -19.26,-10.78 -16.55,-21.96l13.54 -55.94c2.1,-8.63 6.69,-16.48 13.19,-22.53l150.03 -139.62c5.93,-5.51 13.53,-8.1 21.03,-7.83z"/>
  <polygon class="fil1" points="322.88,192.31 355.09,226.91 229.96,343.37 197.76,308.76 "/>
  <polygon class="fil3" points="226.16,348.54 148.36,264.94 "/>
  <g>
   <polygon class="fil2" points="155.53,258.27 233.33,341.87 218.99,355.21 141.19,271.61 "/>
  </g>
  <polygon class="fil3" points="359.94,224.06 282.12,140.45 "/>
  <g>
   <polygon class="fil2" points="289.29,133.77 367.11,217.38 352.77,230.73 274.95,147.12 "/>
  </g>
  <path class="fil2" d="M146.68 367.12l25.23 -4.53 -39.51 -42.47 -6.13 25.31c-3.02,12.48 7.77,23.96 20.41,21.68z"/>
  <polygon class="fil3" points="192.42,303.46 319.14,185.52 "/>
  <g>
   <polygon class="fil2" points="325.81,192.69 199.1,310.63 185.75,296.28 312.47,178.35 "/>
  </g>
  <g>
   <path class="fil4" d="M226.95 238.78c-3.98,3.66 -10.18,3.41 -13.84,-0.57 -3.66,-3.98 -3.41,-10.18 0.57,-13.84l13.27 14.41zm52.34 -48.2l-52.34 48.2 -13.27 -14.41 52.34 -48.2 13.27 14.41zm-13.27 -14.41c3.98,-3.66 10.18,-3.41 13.84,0.57 3.66,3.98 3.41,10.18 -0.57,13.84l-13.27 -14.41z"/>
  </g>
  <g>
   <path class="fil4" d="M324.94 149.23c-4.48,3.03 -10.57,1.85 -13.6,-2.64 -3.03,-4.48 -1.85,-10.57 2.64,-13.6l10.96 16.24zm10.58 -16.49l-10.41 16.6 -0.12 -0.07 -0.1 -0.05 -0.08 -0.04 -0.06 -0.03 -0.04 -0.02 -0.02 -0.01 -0.01 -0 0.01 0 0.02 0 0.02 0 0.04 0.01 0.04 0 0.05 0 0.05 0 0.04 -0 0.04 -0 0.04 -0 0.04 -0.01 0.04 -0.01 0.02 -0.01 0.02 -0.01 0.01 -0 0 0 0 -0 -0.01 0 -0.01 0.01 -0.03 0.01 -0.03 0.01 -0.03 0.02 -0.04 0.02 -0.03 0.02 -0.04 0.03 -10.96 -16.24 0.41 -0.27 0.44 -0.27 0.45 -0.26 0.48 -0.27 0.5 -0.26 0.51 -0.25 0.54 -0.25 0.56 -0.24 0.58 -0.22 0.6 -0.21 0.62 -0.19 0.65 -0.18 0.67 -0.16 0.69 -0.14 0.71 -0.11 0.72 -0.09 0.74 -0.06 0.75 -0.03 0.77 0 0.78 0.04 0.79 0.07 0.8 0.11 0.79 0.14 0.8 0.18 0.8 0.21 0.79 0.25 0.79 0.28 0.79 0.32 0.77 0.35 0.76 0.38 0.76 0.42 0.74 0.45zm0 0c4.58,2.87 5.97,8.92 3.1,13.5 -2.87,4.58 -8.92,5.97 -13.5,3.1l10.41 -16.6z"/>
  </g>
  <polygon class="fil5" points="143.06,163.51 143.06,106.27 24.52,106.27 24.52,163.51 "/>
  <path class="fil5" d="M24.52 81.74l130.48 0 0.31 0 0.31 0 130.5 0 0 -44.96c0,-6.78 -5.5,-12.26 -12.26,-12.26l-237.08 0c-6.78,0 -12.26,5.48 -12.26,12.26l0 44.96z"/>
  <polygon class="fil5" points="143.06,188.03 24.52,188.03 24.52,245.25 143.06,245.25 "/>
  <path class="fil5" d="M126.49 269.77l-101.96 0 0 36.79c0,6.78 5.48,12.26 12.26,12.26l75.04 0c0.25,0 0.48,0 0.71,0.02l8.23 -33.99c1.29,-5.29 3.21,-10.35 5.72,-15.08z"/>
  <polygon class="fil5" points="167.58,188.03 167.58,226.65 209.08,188.03 "/>
  <path class="fil5" d="M167.58 163.51l67.84 0 51.17 -47.64c-0.31,-1.08 -0.46,-2.2 -0.46,-3.38l0 -6.22 -118.55 0 0 57.24z"/>
 </g>
</svg>
