<?xml version="1.0" encoding="UTF-8"?>
<!DOCTYPE svg PUBLIC "-//W3C//DTD SVG 1.1//EN" "http://www.w3.org/Graphics/SVG/1.1/DTD/svg11.dtd">
<!-- Creator: CorelDRAW 2020 (64 Bit) -->
<svg xmlns="http://www.w3.org/2000/svg" xml:space="preserve" width="70.3732mm" height="76.5051mm" version="1.1" style="shape-rendering:geometricPrecision; text-rendering:geometricPrecision; image-rendering:optimizeQuality; fill-rule:evenodd; clip-rule:evenodd"
viewBox="0 0 7955.74 8648.96"
 xmlns:xlink="http://www.w3.org/1999/xlink"
 xmlns:xodm="http://www.corel.com/coreldraw/odm/2003">
 <defs>
  <style type="text/css">
   <![CDATA[
    .str0 {stroke:white;stroke-width:8.61;stroke-miterlimit:22.9256}
    .fil1 {fill:none}
    .fil0 {fill:black}
    .fil2 {fill:#026802}
   ]]>
  </style>
   <clipPath id="id0">
    <path d="M3923.9 4644.86c1282.82,0 2322.42,-1039.6 2322.42,-2322.42 0,-1282.82 -1039.6,-2322.44 -2322.42,-2322.44 -1282.82,0 -2322.44,1039.61 -2322.44,2322.44 0,1282.82 1039.61,2322.42 2322.44,2322.42zm1100.3 -1400.73c-105.78,348.99 -557.95,612.14 -1100.74,612.14 -542.35,0 -994.52,-263.15 -1100.73,-612.14l2201.47 0z"/>
   </clipPath>
   <clipPath id="id1">
    <path d="M3999.77 8648.96l32.07 0 19.08 -0.43 31.64 0c2204.51,-5.64 3287.47,-366.77 3686.33,-544.08 103.61,-46.4 186.85,-178.18 186.85,-291.77l0 -765.61c0,-1147.13 -873.14,-2098.73 -1987.75,-2226.18 -16.9,-1.74 -36.84,1.3 -57.23,6.5l-50.28 -6.5c-34.24,-3.9 -84.54,10.83 -112.28,30.34 -497.69,360.7 -1103.34,580.93 -1760.57,593.93l-19.51 0c-656.8,-13.43 -1262.88,-233.24 -1761,-593.51 -27.31,-19.94 -77.6,-34.67 -111.42,-30.77l-50.28 6.5c-19.94,-5.2 -40.75,-8.24 -57.66,-6.5 -1114.61,127.45 -1987.75,1079.49 -1987.75,2226.61l0 765.18c0,113.59 83.24,245.38 187.29,291.77 398.84,177.31 1481.37,538.44 3685.88,544.08l31.64 0 19.08 0.43 32.07 0 12.14 0 19.51 0 12.14 0z"/>
   </clipPath>
 </defs>
 <g id="Camada_x0020_1">
  <metadata id="CorelCorpID_0Corel-Layer"/>
  <path class="fil0" d="M3923.9 4644.86c1282.82,0 2322.42,-1039.6 2322.42,-2322.42 0,-1282.82 -1039.6,-2322.44 -2322.42,-2322.44 -1282.82,0 -2322.44,1039.61 -2322.44,2322.44 0,1282.82 1039.61,2322.42 2322.44,2322.42zm1100.3 -1400.73c-105.78,348.99 -557.95,612.14 -1100.74,612.14 -542.35,0 -994.52,-263.15 -1100.73,-612.14l2201.47 0z"/>
  <g style="clip-path:url(#id0)">
   <g id="_1272208176">
    <g>
     <path id="1" class="fil1 str0" d="M-152591.08 63557.74c418.8,-523.7 807.67,-432.66 1178.78,0"/>
     <path class="fil1 str0" d="M-150635.84 63557.74c418.79,-523.7 807.67,-432.66 1178.77,0"/>
    </g>
   </g>
  </g>
  <path class="fil1" d="M3923.9 4644.86c1282.82,0 2322.42,-1039.6 2322.42,-2322.42 0,-1282.82 -1039.6,-2322.44 -2322.42,-2322.44 -1282.82,0 -2322.44,1039.61 -2322.44,2322.44 0,1282.82 1039.61,2322.42 2322.44,2322.42zm1100.3 -1400.73c-105.78,348.99 -557.95,612.14 -1100.74,612.14 -542.35,0 -994.52,-263.15 -1100.73,-612.14l2201.47 0z"/>
  <path class="fil2" d="M3999.77 8648.96l32.07 0 19.08 -0.43 31.64 0c2204.51,-5.64 3287.47,-366.77 3686.33,-544.08 103.61,-46.4 186.85,-178.18 186.85,-291.77l0 -765.61c0,-1147.13 -873.14,-2098.73 -1987.75,-2226.18 -16.9,-1.74 -36.84,1.3 -57.23,6.5l-50.28 -6.5c-34.24,-3.9 -84.54,10.83 -112.28,30.34 -497.69,360.7 -1103.34,580.93 -1760.57,593.93l-19.51 0c-656.8,-13.43 -1262.88,-233.24 -1761,-593.51 -27.31,-19.94 -77.6,-34.67 -111.42,-30.77l-50.28 6.5c-19.94,-5.2 -40.75,-8.24 -57.66,-6.5 -1114.61,127.45 -1987.75,1079.49 -1987.75,2226.61l0 765.18c0,113.59 83.24,245.38 187.29,291.77 398.84,177.31 1481.37,538.44 3685.88,544.08l31.64 0 19.08 0.43 32.07 0 12.14 0 19.51 0 12.14 0z"/>
  <g style="clip-path:url(#id1)">
   <g id="_1272190944">
    <g>
     <path id="1" class="fil0" d="M3618.69 6195.08c-30.76,112.56 -142.66,836.86 -172.02,1013.83 -56.17,338.76 -113.9,678.55 -169.33,1015.83 -47.1,286.48 -24.27,228.68 85.76,455.93 65.47,135.25 134.81,260.2 197.64,394.97 60.93,130.72 129.9,258.67 196.72,396.1 33.06,67.99 63.09,126.29 96.42,194.19 116.65,237.72 142.01,208.71 251.23,-8.21l294.5 -588.63c67.5,-133.14 130.25,-263.37 196.53,-396.2 109.52,-219.45 127.71,-172.2 81.45,-448.59 -56.5,-337.6 -113.31,-677.65 -169.21,-1015.44 -53.04,-320.43 -135.47,-696.58 -166.4,-1011.68 -103.75,48.06 -257.97,257.3 -375.49,248.51 -69.72,-5.22 -140.99,-84.43 -185.28,-118.92 -56.84,-44.29 -109.86,-89.8 -162.52,-131.68z"/>
     <path class="fil0" d="M3328.17 5840.18c4.92,40.29 249.6,227.76 302.92,273.78 395.99,341.74 324.2,292.36 500.14,158.18l469.94 -389.86c31.38,-34.79 36.64,-57.58 11.14,-95.17l-205.23 -231.19c-189.97,-188.3 -49.46,-172.45 -393.25,-172.45 -270.62,0 -278.03,-36.42 -369.03,63.78l-272.66 308.12c-21.81,24.48 -49.36,40.44 -43.97,84.8z"/>
    </g>
   </g>
  </g>
  <path class="fil1" d="M3999.77 8648.96l32.07 0 19.08 -0.43 31.64 0c2204.51,-5.64 3287.47,-366.77 3686.33,-544.08 103.61,-46.4 186.85,-178.18 186.85,-291.77l0 -765.61c0,-1147.13 -873.14,-2098.73 -1987.75,-2226.18 -16.9,-1.74 -36.84,1.3 -57.23,6.5l-50.28 -6.5c-34.24,-3.9 -84.54,10.83 -112.28,30.34 -497.69,360.7 -1103.34,580.93 -1760.57,593.93l-19.51 0c-656.8,-13.43 -1262.88,-233.24 -1761,-593.51 -27.31,-19.94 -77.6,-34.67 -111.42,-30.77l-50.28 6.5c-19.94,-5.2 -40.75,-8.24 -57.66,-6.5 -1114.61,127.45 -1987.75,1079.49 -1987.75,2226.61l0 765.18c0,113.59 83.24,245.38 187.29,291.77 398.84,177.31 1481.37,538.44 3685.88,544.08l31.64 0 19.08 0.43 32.07 0 12.14 0 19.51 0 12.14 0z"/>
 </g>
</svg>
