<?xml version="1.0" encoding="UTF-8"?>
<!DOCTYPE svg PUBLIC "-//W3C//DTD SVG 1.1//EN" "http://www.w3.org/Graphics/SVG/1.1/DTD/svg11.dtd">
<!-- Creator: CorelDRAW 2020 (64 Bit) -->
<svg xmlns="http://www.w3.org/2000/svg" xml:space="preserve" width="77.9237mm" height="78.1406mm" version="1.1" style="shape-rendering:geometricPrecision; text-rendering:geometricPrecision; image-rendering:optimizeQuality; fill-rule:evenodd; clip-rule:evenodd"
viewBox="0 0 1080.8 1083.81"
 xmlns:xlink="http://www.w3.org/1999/xlink"
 xmlns:xodm="http://www.corel.com/coreldraw/odm/2003">
 <defs>
  <style type="text/css">
   <![CDATA[
    .fil0 {fill:black}
    .fil1 {fill:#026802}
   ]]>
  </style>
 </defs>
 <g id="Camada_x0020_1">
  <metadata id="CorelCorpID_0Corel-Layer"/>
  <path class="fil0" d="M201.74 455.41c0,-59.04 29.36,-49.31 81.43,-48.77l13.62 134.09c-50.05,0 -95.1,12.18 -95.05,-47.18l0 -38.14zm94.73 -121.33l-24.57 1.7 2.5 -50.53c4.73,-161.11 131.22,-225.42 296.9,-215.42 176.96,10.64 260.31,142.39 234.25,268.07 -31.33,-0.37 -51.54,-1.97 -77.28,6.75 -11.38,36.65 -1.38,97.23 -7.93,145.1 -14.68,107.23 -59.94,118.51 87.18,119.41 -10.48,47.98 -72.66,33.08 -166.27,32.39 -0.05,-19.95 4.52,-46.7 -11.86,-59.68 -50.1,-39.79 -79.41,48.72 -47.55,123.45 33.51,7.29 158.93,7.6 200.21,4.36 92.6,-7.29 86.17,-81.65 99.73,-103.72 7.87,-12.87 35.05,-21.6 51.43,-50.32 14.79,-25.96 12.13,-55.79 12.07,-87.6 -0.11,-92.82 -23.3,-95.9 -66.49,-127.07 -15.64,-217.7 -94.78,-340.63 -338.55,-341 -370.52,-0.64 -324.67,309.77 -339.99,341 -27.34,24.57 -49.57,24.68 -61.97,68.08 -7.23,25.26 -7.61,94.2 -1.97,120.31 18.08,83.61 91.33,77.55 181.53,80.05 46.27,89.3 57.76,118.51 124.3,166.85 74.94,54.41 215.2,42.07 149.04,-34.09 -63.19,-15.16 -56.22,20.9 -122.34,-30.9 -20.32,-15.85 -49.68,-53.3 -67.07,-85.37 -37.55,-69.36 -56.7,-166.75 -43.08,-257.75 13.3,-88.83 55.64,-149.36 143.45,-161.59 176.16,-24.57 144.68,89.2 230.58,65.53 51.75,-109.04 -239.57,-207.65 -374.56,-68.88 -18.88,19.36 -59.15,86.06 -61.7,130.85zm498.44 72.23c43.56,-0.32 57.44,-8.88 79.36,21.7 5.8,30.96 10.8,83.19 -13.72,107.02 -23.08,8.83 -51.59,6.06 -76.49,5.48l10.85 -134.2z"/>
  <path class="fil0" d="M707.14 811.39c41.5,137.15 220.7,96.69 254.05,125.81 17.33,15.13 33.08,45.91 39.15,75.41l-921.73 -0.26c12.38,-115.16 103.81,-83.89 156.15,-93.57 56.81,-10.51 140.76,-64.39 133.62,-118.27 -11.38,-28.56 -36.37,-33.12 -59.12,-10.62 -99.58,98.51 -34.92,43.72 -181.41,66.53 -65.39,10.18 -142.47,122.5 -125.45,207.47 25.95,27.84 69.56,18.38 118.44,18.37l839.02 0.07c62.13,0.02 184.12,27.51 81.04,-154.75 -72.6,-128.38 -162.92,-34 -240.09,-103.33 -18.11,-16.28 -75.76,-95.75 -93.66,-12.85z"/>
  <path class="fil1" d="M707.14 811.39c-28.88,15.38 -36.55,30.14 -77.74,44.02 -63.69,21.45 -135.65,20.21 -197.57,-5.75 -45.21,-18.96 -33.18,-19.61 -63.45,-49.15 7.14,53.88 -76.81,107.76 -133.62,118.27 -52.34,9.68 -143.77,-21.58 -156.15,93.57l921.73 0.26c-6.07,-29.5 -21.81,-60.27 -39.15,-75.41 -33.35,-29.11 -212.55,11.34 -254.05,-125.81z"/>
  <path class="fil1" d="M201.73 455.41l-0.01 38.14c-0.04,59.34 45.04,47.17 95.05,47.19l-13.57 -134.1c-52.08,-0.54 -81.44,-10.28 -81.47,48.77z"/>
  <path class="fil1" d="M784.05 540.54c24.89,0.58 53.39,3.35 76.49,-5.49 24.54,-23.86 19.53,-76.07 13.72,-107.02 -21.92,-30.61 -35.8,-22.02 -79.35,-21.68l-10.86 134.2z"/>
 </g>
</svg>
