<?xml version="1.0" encoding="UTF-8"?>
<!DOCTYPE svg PUBLIC "-//W3C//DTD SVG 1.1//EN" "http://www.w3.org/Graphics/SVG/1.1/DTD/svg11.dtd">
<!-- Creator: CorelDRAW 2020 (64 Bit) -->
<svg xmlns="http://www.w3.org/2000/svg" xml:space="preserve" width="77.9241mm" height="67.4894mm" version="1.1" style="shape-rendering:geometricPrecision; text-rendering:geometricPrecision; image-rendering:optimizeQuality; fill-rule:evenodd; clip-rule:evenodd"
viewBox="0 0 755.45 654.29"
 xmlns:xlink="http://www.w3.org/1999/xlink"
 xmlns:xodm="http://www.corel.com/coreldraw/odm/2003">
 <defs>
  <style type="text/css">
   <![CDATA[
    .fil0 {fill:black}
    .fil1 {fill:#026802}
   ]]>
  </style>
 </defs>
 <g id="Camada_x0020_1">
  <metadata id="CorelCorpID_0Corel-Layer"/>
  <path class="fil0" d="M599.07 44.05c18.39,26.89 30.81,31.21 39.34,44.8 -13.13,6.96 -15.8,9.48 -27.23,20.79l-25.54 22.57c-5.93,5.61 -7.91,5.76 -13.75,10.53l-140.01 124.44c-13.2,-2.65 -37.57,-21.5 -52.85,-31.39 -16.49,-10.68 -32.56,-23.21 -48.45,-33.93 -50.48,-34.08 -79.34,-65.46 -108.27,-30.47l-63.17 60.56c-34.12,28.39 -82.19,78.42 -109.88,100.47 -17.77,-7.44 -31.81,-19.69 -47.91,-26.79l-1.37 67c27.18,14.76 50.44,37.65 79.25,13.31 10.77,-9.09 15.08,-18.04 27.01,-27.9l149.36 -136.65 54.2 35.93c15.96,10.61 100.5,72.16 111.7,74.81 22.15,5.25 34.08,-13.04 59.4,-32.85 10.84,-8.48 5.15,-7.41 23.92,-20.75l173.94 -151.89c13.84,5.81 23.68,20.61 38.22,31.82l38.46 -158.47 -156.37 44.05z"/>
  <path class="fil1" d="M309.74 283.27l0 371.02 -102.74 0 0 -359.25 50.74 -46.42 40.19 26.64c3.95,2.62 7.89,5.3 11.81,8.02zm356.63 -117.23l0 487.79 -102.74 0 0 -398.08 102.74 -89.71zm-181.76 158.15l0 329.12 -102.74 0 0 -319.4c13.44,8.96 27.37,17.42 34.68,19.16 29.77,7.05 48.14,-11.58 68.06,-28.88zm-382.71 69.57l0 260.22 -101.21 0 0 -256.09c15.04,9.09 29.62,18.58 48.03,20.05 16.87,1.35 31.67,-4.8 44.42,-15.56 3.19,-2.69 6.04,-5.62 8.76,-8.62z"/>
 </g>
</svg>
