<?xml version="1.0" encoding="UTF-8"?>
<!DOCTYPE svg PUBLIC "-//W3C//DTD SVG 1.1//EN" "http://www.w3.org/Graphics/SVG/1.1/DTD/svg11.dtd">
<!-- Creator: CorelDRAW 2020 (64 Bit) -->
<svg xmlns="http://www.w3.org/2000/svg" xml:space="preserve" width="77.924mm" height="84.5502mm" version="1.1" style="shape-rendering:geometricPrecision; text-rendering:geometricPrecision; image-rendering:optimizeQuality; fill-rule:evenodd; clip-rule:evenodd"
viewBox="0 0 573.45 622.21"
 xmlns:xlink="http://www.w3.org/1999/xlink"
 xmlns:xodm="http://www.corel.com/coreldraw/odm/2003">
 <defs>
  <style type="text/css">
   <![CDATA[
    .fil1 {fill:black}
    .fil0 {fill:#026802}
   ]]>
  </style>
 </defs>
 <g id="Camada_x0020_1">
  <metadata id="CorelCorpID_0Corel-Layer"/>
  <path class="fil0" d="M244.07 503.3l-33.93 -28.81c-3.43,-2.91 -5.92,-5.35 -9.38,-8.15l-29.45 -24.95c-16.77,-15.13 -40.42,-34.24 -58.26,-49.62 -3.15,-2.72 -7.51,-4.44 -6.98,-10.88 5.01,-4.13 7.28,-2.82 11.28,0.74l19.3 16.64c3.31,2.84 5.94,4.97 9.45,8.13l107.27 90.96c2.18,1.86 8.06,5.34 7.15,9.85 -1.42,7 -9.03,2.49 -11.44,0.28 -2.52,-2.31 -2.83,-2.41 -5.01,-4.19zm-242.04 -154.2c0.22,0.18 2.22,3.26 3.68,4.46l28.65 24.04c5.69,4.53 10.64,9.2 16.31,13.82 11.11,9.03 37.87,33.06 47.99,40.65 13.27,9.96 34.79,30.4 48.53,40.98 5.73,4.41 10.58,9.31 16.33,13.76 12.86,9.95 34.41,29.61 48.51,41 2.22,1.8 14.59,12.78 15.9,13.28 2.31,0.89 107.08,0.33 119,0.38 6.75,0.03 7.25,0.99 11.68,-3l98.69 -87.05c1.54,-1.35 2.3,-2.42 3.8,-3.7l79.04 -69.85c2.48,-2.45 4.94,-4.32 7.96,-7.1l16 -14.09c3.14,-2.6 4.8,-3.44 7.29,-7.59l-569.37 0.01z"/>
  <path class="fil0" d="M573.28 338.31c0.35,-15.96 0.04,-32.27 0.04,-48.27 0,-17.87 1.55,-27.27 -9.4,-37.99 -11.07,-10.85 -20.72,-9.06 -38.82,-9.06l-477.62 0c-18.78,0 -26.9,-1.67 -38.41,9.47 -10.66,10.31 -8.97,21.52 -8.97,38.43 0,15.77 -0.23,31.73 0.03,47.8l573.15 -0.36z"/>
  <path class="fil1" d="M230.63 59.17c0.33,-5.99 -2.26,-17.72 5,-17.47 6.87,0.24 4.36,11.98 4.64,17.07 10.47,2.25 17.21,6.67 20.3,14.46l-9.82 5.65c-4.16,-3.72 -4.53,-8.24 -13.38,-7.99 -5.95,0.17 -11.34,3.7 -11.9,9.24 -1.8,17.79 44.91,10.96 36.88,46.73 -2.74,12.23 -10.55,16.53 -22.21,20.27 0.08,10.07 2.01,18.67 -7.99,15.81 -2.07,-4.67 -1.51,-9.79 -1.38,-16.11 -12.35,-2.01 -21.29,-11.25 -22.1,-24.76l12.79 -2.65c1.02,7.68 2.41,11.87 8.13,14.46 13.87,6.28 25.37,-8.85 18.81,-19.68 -6.88,-11.35 -33.41,-10.17 -35.94,-30.01 -2.37,-18.59 14.84,-22.75 18.16,-25.01zm-97.33 50.19c3.22,54.36 50.61,99.35 109.09,95.82 54.05,-3.26 99.43,-50.22 95.9,-108.82 -3.27,-54.34 -50.31,-99.79 -108.82,-96.16 -54.83,3.4 -99.66,50.25 -96.17,109.16z"/>
  <path class="fil1" d="M420.84 29.73c-28,4.87 -52.86,31.78 -46.33,66.29 5.22,27.62 31.92,51.71 65.87,45.79 27.62,-4.81 52.2,-31.73 46.23,-65.85 -4.91,-28.09 -31.63,-52.17 -65.77,-46.24z"/>
  <path class="fil1" d="M7.88 164.57c2.62,29.26 29.19,54.08 62.19,51.02 29.54,-2.74 54.46,-29.09 51.14,-62.75 -2.88,-29.2 -29.56,-53.88 -62.57,-50.58 -29.38,2.94 -53.72,29.22 -50.75,62.31z"/>
  <path class="fil0" d="M230.17 552.16c-1.34,76.8 -4.52,69.75 28.93,69.75l66.08 0c10.07,0 22.94,2.2 27.18,-5.23 2.63,-4.61 1.71,-55.59 1.31,-64.78l-123.5 0.27z"/>
  <path class="fil1" d="M487.14 232.58c-5.99,-37.49 -40.02,-69.16 -82.49,-69.04 -40.85,0.11 -77.54,32.02 -81.86,69.02l164.35 0.02z"/>
 </g>
</svg>
