<?xml version="1.0" encoding="UTF-8"?>
<!DOCTYPE svg PUBLIC "-//W3C//DTD SVG 1.1//EN" "http://www.w3.org/Graphics/SVG/1.1/DTD/svg11.dtd">
<!-- Creator: CorelDRAW 2020 (64 Bit) -->
<svg xmlns="http://www.w3.org/2000/svg" xml:space="preserve" width="87.3652mm" height="73.8898mm" version="1.1" style="shape-rendering:geometricPrecision; text-rendering:geometricPrecision; image-rendering:optimizeQuality; fill-rule:evenodd; clip-rule:evenodd"
viewBox="0 0 595.34 503.52"
 xmlns:xlink="http://www.w3.org/1999/xlink"
 xmlns:xodm="http://www.corel.com/coreldraw/odm/2003">
 <defs>
  <style type="text/css">
   <![CDATA[
    .fil1 {fill:black}
    .fil0 {fill:#026802}
   ]]>
  </style>
 </defs>
 <g id="Camada_x0020_1">
  <metadata id="CorelCorpID_0Corel-Layer"/>
  <path class="fil0" d="M258.61 411.66c-1.92,-23.17 15.43,-41.42 36.1,-43.03 22.95,-1.83 41.24,15.34 42.9,36.32 1.83,22.72 -15.57,40.93 -36.1,42.67 -22.86,1.97 -41.15,-15.34 -42.9,-35.96zm-36.86 -55.02c0.98,8.72 10.24,10.51 11.85,18.03 0.94,4.52 -1.21,8.59 -3.49,10.78 -7.69,7.47 -27.55,-3.71 -27.6,17.13 -0.04,9.8 -1.48,19.37 6.17,23.44 8.59,4.56 17.62,-1.97 23.17,6.84 6.04,9.57 -2.59,15.25 -6.35,19.28 -2.24,2.37 -4.47,5.9 -3.67,10.69 0.76,4.38 3.71,6.89 5.77,9.04 2.55,2.59 4.88,4.83 7.47,7.38 2.37,2.28 5.01,4.79 10.02,4.74 9.35,0 11.27,-9.26 18.52,-11.5 4.29,-1.3 8.86,0.54 11.23,2.82 6.93,6.58 0.22,16.51 6.44,23.62 2.46,2.73 5.28,4.29 10.51,4.38 10.42,0.13 19.5,1.61 24.02,-5.77 4.88,-8.01 -1.79,-17.85 6.75,-23.26 9.8,-6.26 15.03,1.79 19.46,5.9 2.5,2.28 5.82,4.43 10.87,3.76 4.7,-0.63 6.8,-3.49 9.12,-5.68 5.41,-5.14 12.43,-10.69 12.39,-17.35 0,-9.53 -9.44,-11.41 -11.72,-18.38 -1.48,-4.52 0.72,-9.08 2.86,-11.41 7.87,-8.45 26.57,4.65 27.11,-17.67 0.27,-9.75 1.52,-19.68 -5.99,-23.48 -8.23,-4.2 -17.44,2.59 -22.77,-7.29 -5.41,-10.06 3.94,-14.94 7.51,-19.23 6.89,-8.32 1.65,-14.67 -3.71,-20.08 -5.59,-5.59 -10.65,-12.26 -18.65,-10.91 -8.5,1.43 -10.33,10.87 -18.25,11.76 -4.56,0.49 -8.45,-1.97 -10.42,-4.2 -6.71,-7.47 4.65,-27.02 -17.71,-27.06 -10.42,0 -18.79,-1.48 -22.77,6.75 -4.29,8.81 2.33,17.58 -7.25,22.86 -9.8,5.41 -14.76,-3.4 -19.1,-7.02 -8.01,-6.71 -15.39,-2.19 -20.17,3.22 -2.15,2.42 -5.01,4.96 -7.42,7.38 -2.37,2.42 -4.74,5.46 -4.2,10.51z"/>
  <path class="fil1" d="M144.28 278.09c0,-28.63 7.69,-48.58 26.52,-58.82 4.65,-2.5 10.15,-3.89 15.74,-5.59 10.87,-3.35 35.74,-13.46 43.43,-20.31 -0.4,-0.4 0.36,0 -0.94,-0.63 -0.22,-0.13 -0.72,-0.31 -1.03,-0.4 -0.63,-0.22 -1.48,-0.45 -2.15,-0.72 -14.22,-4.96 -31.76,-12.08 -44.73,-18.97 -2.77,-1.48 -5.05,-2.68 -7.51,-4.07 -1.97,-1.07 -5.55,-3.58 -7.56,-4.2l-25.94 82.03 -9.57 -28c-0.45,-1.88 0.63,-2.64 1.61,-4.07 24.24,-35.96 -22.32,-38.83 -25.23,-22.01 -1.07,6.35 3.44,14.49 5.99,18.79 3.22,5.46 4.25,5.19 3,8.32 -1.21,3.04 -2.15,5.77 -3.4,8.95 -2.19,5.68 -4.92,12.3 -6.75,17.89 -1.88,-2.64 -24.38,-78.59 -26.44,-81.86 -1.74,0.72 -4.34,2.55 -6.13,3.62 -12.61,7.6 -31.36,16.86 -45,20.89 -9.88,2.86 -17.31,5.32 -22.99,15.03 -5.9,10.06 -6.62,40.53 -3.04,52.07 1.07,3.49 2.01,4.7 4.74,6.08 12.39,6.26 24.87,11.45 38.74,15.61 24.02,7.25 48.89,10.91 76.04,11 3.35,0.31 18.29,-0.54 22.77,-0.72l-0.18 -9.93zm91.25 -170.69c-6.93,-0.45 -9.53,1.43 -9.8,8.5 -0.31,9.75 5.64,26.93 11.63,34.53 1.88,2.37 2.91,1.97 3.67,5.86 10.82,54.44 70.18,74.7 103.24,26.88 4.79,-6.93 7.2,-17.67 9.97,-26.93 6.26,-0.04 9.53,-7.25 11.63,-12.3 2.33,-5.68 4.29,-12.57 4.83,-19.37 0.31,-3.94 0.36,-9.53 -2.5,-12.3 -1.34,-1.3 -1.07,0 -1.16,-2.15l2.28 -28.27c1.61,-37.71 -17.4,-35.52 -20.4,-39.67 -5.46,-7.56 -11.05,-12.3 -19.9,-16.73 -17.94,-8.99 -40.39,-7.29 -58.77,1.88 -15.66,7.83 -27.28,21.6 -33.95,38.87 -3.76,9.66 -5.14,20.49 -3.31,31.13 0.63,3.62 1.83,6.71 2.55,10.06zm82.71 188.76c-0.85,-1.25 -9.13,-26.48 -10.78,-31.58 -0.72,-2.19 0.49,-2.82 1.65,-4.7 4.25,-6.66 10.47,-17.53 6.98,-26.03 -5.86,-14.27 -32.61,-12.39 -35.25,0.98 -1.57,7.92 5.19,19.5 9.35,25.67 1.21,1.83 1.88,2.06 0.94,4.52 -1.39,3.49 -2.55,6.62 -3.89,10.24 -1.39,3.58 -2.55,6.75 -3.89,10.24l-3.49 9.17c-0.63,0.98 -0.04,0.31 -0.72,0.89l-29.34 -92.01 -13.82 8.14c-4.61,2.59 -9.35,5.01 -14.27,7.47 -6.93,3.53 -23.57,10.6 -31,12.43 -12.3,3.09 -20.71,8.81 -25.27,18.16 -5.59,11.36 -6.71,45.27 -2.33,57.84 2.01,5.73 5.32,6.35 12.21,9.48 10.11,4.65 19.77,8.54 31.04,12.39 2.77,0.94 5.41,1.74 8.27,2.55 7.25,2.15 3.35,2.46 12.79,-6.13 5.59,-5.01 11.41,-11.5 22.72,-7.65 6.98,2.42 9.35,8.14 12.26,9.35 0.22,-10.96 0.85,-17.31 7.65,-22.05 7.02,-4.88 16.46,-3.53 26.12,-3.53 9.04,0 19.73,-1.21 26.48,3.13 8.77,5.64 7.92,13.64 8.32,21.43 1.16,-0.67 3.31,-3.04 4.47,-4.16 4.96,-4.74 12.12,-6.71 19.1,-4.29 4.61,1.61 7.2,4.43 9.8,7.2 2.46,2.64 6.62,5.9 8.5,8.54 4.79,-0.18 22.05,-6.44 26.61,-8.19 10.51,-4.03 19.99,-8.54 29.39,-14.09 4.25,-2.55 5.01,-16.1 5.23,-20.84 0.54,-10.33 -0.18,-22.95 -1.88,-32.92 -1.79,-10.65 -5.99,-17.4 -13.15,-21.56 -4.07,-2.37 -7.92,-3.22 -12.7,-4.65 -12.66,-3.89 -25.27,-9.53 -36.63,-15.48l-22.14 -12.52c-0.94,1.16 -18.92,59.54 -22.05,69.47 -2.42,7.56 -4.7,15.74 -7.29,23.08zm47.1 -103.15c4.12,4.07 23.44,13.02 29.7,15.43 10.87,4.25 24.73,7.38 32.65,12.3 15.25,9.57 21.11,26.35 22.9,44.73 0.85,9.04 0,17.58 0.4,22.01 4.92,1.74 35.74,0.72 42.72,0.22 12.84,-0.89 25.85,-2.82 37.89,-5.5 20.22,-4.52 38.02,-11.05 56.09,-19.9 3.09,-1.52 4.03,-2.42 5.23,-5.64 3.53,-9.66 2.55,-29.7 1.12,-40.35 -2.55,-18.65 -12.57,-23.71 -26.75,-27.69 -9.62,-2.73 -28.94,-11.67 -37.66,-16.6l-13.73 -8.05 -26.08 81.81c-1.34,-1.52 -2.73,-6.66 -3.62,-8.95 -1.16,-3.09 -2.28,-6.04 -3.49,-9.21 -5.19,-13.51 -4.79,-9.08 -0.13,-16.95 2.5,-4.25 7.07,-12.57 5.86,-18.83 -2.33,-12.08 -26.53,-13.69 -31.49,-0.58 -2.37,6.26 1.52,14.76 4.16,19.23 2.46,4.07 4.34,5.68 3.58,8.01 -1.43,4.38 -8.72,26.57 -9.57,27.64l-25.72 -82.08c-1.92,0.54 -5.46,3.04 -7.69,4.25l-23.13 11.59c-5.23,2.37 -10.82,4.61 -16.42,6.75 -3.04,1.21 -15.57,5.28 -16.82,6.35zm50.9 -114.19c-5.9,-0.22 -8.41,0.76 -8.77,7.02 -0.54,8.63 5.5,27.24 12.03,33.41 1.21,1.16 1.12,0.72 1.52,2.82 3.89,19.28 13.55,32.65 25.5,40.75 15.34,10.38 34.62,10.78 50.32,0.63 6.89,-4.43 11.94,-9.8 16.59,-16.37 4.65,-6.53 6.49,-15.66 9.13,-24.11 2.73,-1.25 5.59,0.22 10.42,-11.32 2.59,-6.13 6.58,-19.9 3.4,-26.7 -0.8,-1.7 -2.01,-1.97 -2.24,-3.18l1.97 -25.27c0.8,-15.03 -1.57,-26.26 -11.05,-32.29 -1.57,-0.98 -6.22,-2.59 -7.11,-3.76 -2.01,-2.5 -2.64,-3.71 -4.96,-5.86 -4.38,-4.07 -6.62,-6.31 -12.88,-9.26 -10.87,-5.1 -23.8,-6.71 -36.9,-3.94 -22.01,4.61 -38.51,19.68 -46.39,40.7 -3.35,8.9 -4.61,18.38 -2.86,28 0.63,3.31 1.66,5.95 2.28,8.72zm-350.68 0c-5.9,-0.4 -8.36,1.03 -8.77,7.02 -0.31,4.96 1.03,10.02 2.37,14.4 1.61,5.23 4.56,12.57 7.74,16.82 1.39,1.88 2.91,2.19 3.44,4.92 3.98,19.28 13.46,32.56 25.45,40.79 14.63,10.06 34.8,10.96 50.32,0.72 7.16,-4.7 11.72,-9.39 16.59,-16.33 3.98,-5.59 7.34,-16.28 9.13,-24.24 2.59,-0.98 4.47,-0.04 8.05,-6.35 3.62,-6.35 6.44,-15.3 6.89,-22.77 0.36,-5.59 0,-8.41 -3.31,-11.59 -0.18,-16.77 8.9,-48.13 -9.8,-58.46 -5.68,-3.13 -4.12,-0.31 -7.83,-5.23 -0.8,-1.07 -1.16,-1.48 -2.15,-2.55 -23.66,-25.36 -66.24,-18.79 -87.04,7.47 -4.83,6.08 -9.75,14.72 -12.26,23.98 -2.1,7.78 -2.5,16.33 -0.76,24.42 0.54,2.42 1.52,4.88 1.92,6.98z"/>
 </g>
</svg>
