<?xml version="1.0" encoding="UTF-8"?>
<!DOCTYPE svg PUBLIC "-//W3C//DTD SVG 1.1//EN" "http://www.w3.org/Graphics/SVG/1.1/DTD/svg11.dtd">
<!-- Creator: CorelDRAW 2020 (64 Bit) -->
<svg xmlns="http://www.w3.org/2000/svg" xml:space="preserve" width="77.9241mm" height="83.0052mm" version="1.1" style="shape-rendering:geometricPrecision; text-rendering:geometricPrecision; image-rendering:optimizeQuality; fill-rule:evenodd; clip-rule:evenodd"
viewBox="0 0 387.75 413.03"
 xmlns:xlink="http://www.w3.org/1999/xlink"
 xmlns:xodm="http://www.corel.com/coreldraw/odm/2003">
 <defs>
  <style type="text/css">
   <![CDATA[
    .str0 {stroke:black;stroke-width:1;stroke-miterlimit:22.9256}
    .fil1 {fill:black}
    .fil0 {fill:#020202}
    .fil2 {fill:#026802}
   ]]>
  </style>
 </defs>
 <g id="Camada_x0020_1">
  <metadata id="CorelCorpID_0Corel-Layer"/>
  <path class="fil0" d="M58.54 285.64l17.83 105.18 -43.65 7.4 -17.98 -105.3 43.79 -7.28zm17.43 18.26c4.78,-0.1 27.59,-2.09 31.23,-3.29 10.23,-3.37 10.51,-45.48 61.04,-40.1 10.25,1.09 18.04,6.15 27.51,6.83 23.63,1.68 48.12,-4.78 61.27,6.76 4.56,4 11.17,13.52 8.77,22.72 -21.58,0 -43.56,-0.6 -64.9,1.15 -6.38,0.52 -36.05,5.09 -40.08,9.61 -3.42,3.83 -1.4,8.31 2.15,10.86 4.19,1.56 21.33,-3.97 27.99,-5.08 27.71,-4.62 72.48,0.25 81.45,-4.77 10.36,-5.81 2.5,-9.76 12.07,-13.26 12.51,-4.57 64.35,-23.63 70.39,-23.51 9.67,0.2 16.88,6.47 19.05,13.85 -2.17,2.35 -77.47,40.29 -91.39,47.18 -36.15,17.9 -35.97,13.78 -75.72,16.52 -14.28,0.98 -28.37,1.8 -42.52,2.95 -11.12,0.9 -32.77,1.01 -42.31,3.48 -11.2,2.9 -23.16,8.59 -34.72,11.3 -2.43,-4.74 -10.47,-54.38 -11.28,-63.19zm13.31 77.1c25.45,-4.93 17.5,-10.6 56.81,-13.41 21.21,-1.52 42.97,-2.87 64.07,-4.6 25.37,-2.07 37.86,-0.17 59.87,-9.13 11.76,-4.79 110.26,-53.56 114.58,-58.84 10.09,-12.34 -5.61,-35.14 -26.59,-36.95 -16.84,-1.46 -59.63,19.48 -79.13,24.37 -1.95,-2.75 -2.86,-6.62 -5.5,-10.53 -21.34,-31.48 -51.95,-11.49 -90.21,-22.38 -18.21,-5.18 -37.24,-4.24 -53.45,3.51 -10.62,5.07 -24.97,21.72 -29.3,34.52l-26.35 2.51c-0.14,-0.26 -0.26,-0.61 -0.33,-0.81 -6.32,-17.98 4.98,-21.58 -29.85,-15.51l-33.79 5.73c-12.1,2.2 -10.76,6.52 -8.88,18.14l16.61 96.01c4.28,24.2 -0.11,21.42 38.96,14.69 9.07,-1.56 18.85,-2.85 27.72,-4.69 11.64,-2.42 5.29,-12.76 4.77,-22.65z"/>
  <path class="fil1" d="M63.96 194.32c1.81,11.7 27.31,63.7 43.49,62.76 3.89,-0.23 7.16,-3.8 6.13,-8.76 -10.93,-13.49 -35.87,-44.39 -37.36,-62.21 -14.87,-49.37 3.87,-97.72 27.97,-125.9 41.24,-48.2 117.58,-63.6 177.48,-22.77 51.03,34.77 72.93,103.83 49.98,159.15 -1.39,3.34 -5.21,10.29 -6.35,14.58 -1.76,2.33 -2.12,3.09 -3.21,5.61 -3.64,5.13 -5.46,8.51 -9.31,13.51 -3.45,4.46 -6.87,8.55 -10.82,12.52 -17.06,17.04 -22.8,14.35 -14.14,25.61 8.07,0.44 8.49,-1.87 16.81,-8.76 2.84,-2.33 3.95,-4.24 6.6,-6.56 3.84,-3.36 3.64,-3.32 6.47,-6.7 27.27,-32.52 41.68,-71.94 35.17,-118.84 -16.28,-117.37 -159.83,-169.87 -248.79,-87.66 -33.36,30.84 -59.75,91.27 -40.11,154.43zm53.56 1.09c4.9,-24.48 29.84,-24.77 54.88,-31.49 11.14,-3 9.94,7.86 31.79,9.69 11.09,0.92 26.94,-4.66 31.64,-10.67 8.38,2.19 38.18,9.01 43.74,11.49 6.51,2.92 10.86,7.42 13.87,13.53 4.27,8.66 2.18,15.4 3.3,25.21l-50.61 -0.13 -1.81 -0.04 -5 0.02 -1.95 0.02 -1.64 -0.17 -2.12 0.02 -6.01 0.08 -2.54 0.04 -51.27 -0.08 -1.77 0.27 -21.64 -0.13 -2.29 -0.08 -16.73 -0.1 -2.12 0.02 -5.74 0.21 -1.87 -0.15 -4.67 0.1 0.57 -17.65zm-14.06 0.38l-0.19 25.95c2.92,7.44 11.11,5.25 21.51,5.25l174.43 0.06c6.89,0 7.84,0.42 10.44,-4.06 2,-6.24 0.93,-24.39 -0.48,-31.58 -1.79,-9.14 -6.77,-16.6 -11.91,-21.49 -10.34,-9.85 -31.35,-15.04 -48.95,-18.11 5.95,-11.16 11.22,-13.83 16.58,-32.23 11.62,-40.02 -8.62,-84.25 -56.98,-84.44 -30.8,-0.11 -50.7,16.72 -58.26,40.13 -9.39,29.01 0.84,53.26 15.88,75.53l-10.25 3.15c-3.36,0.86 -7.21,1.85 -10.48,2.69 -7.4,1.89 -14.85,3.43 -20.49,6.91 -8.7,5.32 -20.36,17.61 -20.86,32.25zm59.04 -83.26c13.74,-0.74 23.72,-2.19 35.34,-6.28 5.17,-1.81 10.27,-4.27 14.54,-6.74 2.27,-1.3 4.08,-2.54 6.07,-4.14 2.5,-2.02 2.9,-3.24 5.69,-5.27 6.45,3.51 14.27,13.22 29.27,14.14 -0.59,18.99 -17.9,51.31 -41.85,55.28 -24.46,4.05 -45.64,-26.43 -49.06,-47zm-2 -13.68c-3.85,-63.45 88.87,-66.5 93.24,-8.45 -8.64,-1.83 -19.52,-8.24 -22.57,-14.54 -2.1,-4.31 -1.18,-10.71 -9.87,-8.34 -5.32,1.45 -4.16,7.35 -6.79,11.77 -7.61,12.77 -33.18,18.38 -54,19.56z"/>
  <polygon class="fil1 str0" points="58.54,285.64 14.75,292.92 32.73,398.22 76.38,390.82 "/>
  <path class="fil2" d="M150.39 213.06l21.64 0.15 1.78 -0.28 51.28 0.07 2.53 -0.03 6.02 -0.08 2.11 -0 1.64 0.16 1.94 -0.01 5 -0.02 1.82 0.04 50.61 0.12c-1.13,-9.81 0.97,-16.54 -3.31,-25.2 -3.02,-6.1 -7.36,-10.62 -13.88,-13.53 -5.55,-2.48 -35.35,-9.3 -43.73,-11.49 -4.7,6 -20.56,11.59 -31.63,10.66 -21.86,-1.83 -20.65,-12.68 -31.8,-9.69 -25.03,6.72 -49.98,7 -54.87,31.49l-0.59 17.65 4.69 -0.11 1.87 0.16 5.74 -0.2 2.11 -0.03 16.73 0.09 2.3 0.08z"/>
  <path class="fil1" d="M160.5 98.85c20.82,-1.17 46.4,-6.79 54.01,-19.56 2.64,-4.42 1.46,-10.32 6.79,-11.77 8.68,-2.36 7.77,4.03 9.86,8.33 3.06,6.3 13.93,12.72 22.58,14.55 -4.38,-58.04 -97.09,-55 -93.24,8.45z"/>
 </g>
</svg>
