<?xml version="1.0" encoding="UTF-8"?>
<!DOCTYPE svg PUBLIC "-//W3C//DTD SVG 1.1//EN" "http://www.w3.org/Graphics/SVG/1.1/DTD/svg11.dtd">
<!-- Creator: CorelDRAW 2020 (64 Bit) -->
<svg xmlns="http://www.w3.org/2000/svg" xml:space="preserve" width="77.924mm" height="73.2014mm" version="1.1" style="shape-rendering:geometricPrecision; text-rendering:geometricPrecision; image-rendering:optimizeQuality; fill-rule:evenodd; clip-rule:evenodd"
viewBox="0 0 335.85 315.5"
 xmlns:xlink="http://www.w3.org/1999/xlink"
 xmlns:xodm="http://www.corel.com/coreldraw/odm/2003">
 <defs>
  <style type="text/css">
   <![CDATA[
    .fil0 {fill:black}
    .fil1 {fill:#026802}
   ]]>
  </style>
 </defs>
 <g id="Camada_x0020_1">
  <metadata id="CorelCorpID_0Corel-Layer"/>
  <path class="fil0" d="M47.34 242.09c-0.51,-56.64 0,-226.55 0,-226.55 0,-8.58 6.97,-15.54 15.54,-15.54l124.43 0c1.98,0 3.88,0.83 5.24,2.3l40.21 43.7c1.21,1.32 1.88,3.04 1.88,4.83l0 113.22 -13.04 0 0 -103.45c0,-1.79 -1.45,-3.24 -3.26,-3.24l-30.78 0c-3.6,0 -6.55,-2.93 -6.55,-6.53l0 -34.54c0,-1.79 -1.44,-3.24 -3.24,-3.24l-114.9 0c-1.37,0 -2.48,1.12 -2.48,2.5l0 212.31 -9.98 20.2c0,0 -3.02,-0.21 -3.07,-5.95zm146.75 -197.78l19.37 0 -19.37 -21.07 0 21.07zm7.06 26.33l-120.24 0c-4.43,0 -8.03,3.6 -8.03,8.03 0,4.43 3.6,8.03 8.03,8.03l120.26 0c4.43,0 8.03,-3.6 8.03,-8.03 0,-4.43 -3.62,-8.03 -8.05,-8.03zm8.05 54.79c0,-4.43 -3.6,-8.02 -8.05,-8.02l-120.24 0c-4.43,0 -8.03,3.6 -8.03,8.02 0,4.43 3.6,8.03 8.03,8.03l120.26 0c4.41,0 8.03,-3.6 8.03,-8.03zm-136.33 47.07c0,4.43 3.6,8.03 8.03,8.03l2.88 0c5.07,-14.15 17.67,-16.05 17.67,-16.05l-20.54 0c-4.43,0 -8.03,3.6 -8.03,8.02z"/>
  <path class="fil1" d="M333.79 191.64l-59.35 112.32c-2.9,5.58 -11.13,11.49 -17.49,11.49l-238 0.04c-5.03,0 -9.85,-1.99 -13.4,-5.55 -3.55,-3.56 -5.55,-8.37 -5.55,-13.4l0.04 -184.81c0,-10.45 8.47,-18.93 18.93,-18.94l17.4 -0.02 0 16.14 -11.64 0c-2.28,0 -4.47,0.9 -6.08,2.52 -1.61,1.61 -2.52,3.8 -2.52,6.08l0.02 173.25c0,4.75 3.85,8.6 8.6,8.6l11.92 0 56.25 -113.78c3.18,-6.36 9.18,-11.49 15.53,-11.49l137.75 0 0.05 -45.79c8.99,0.83 16.09,8.3 16.09,17.5l0 28.29 63.18 0c7.46,0.08 13.74,7.45 8.28,17.55z"/>
 </g>
</svg>
