<?xml version="1.0" encoding="UTF-8"?>
<!DOCTYPE svg PUBLIC "-//W3C//DTD SVG 1.1//EN" "http://www.w3.org/Graphics/SVG/1.1/DTD/svg11.dtd">
<!-- Creator: CorelDRAW X7 -->
<svg xmlns="http://www.w3.org/2000/svg" xml:space="preserve" width="65.8811mm" height="60.3452mm" version="1.1" style="shape-rendering:geometricPrecision; text-rendering:geometricPrecision; image-rendering:optimizeQuality; fill-rule:evenodd; clip-rule:evenodd"
viewBox="0 0 1319 1208"
 xmlns:xlink="http://www.w3.org/1999/xlink">
 <defs>
  <style type="text/css">
   <![CDATA[
    .fil0 {fill:black;fill-rule:nonzero}
    .fil1 {fill:#026802;fill-rule:nonzero}
   ]]>
  </style>
 </defs>
 <g id="Camada_x0020_1">
  <metadata id="CorelCorpID_0Corel-Layer"/>
  <g id="_997561728">
   <polygon class="fil0" points="1319,0 755,176 850,223 0,721 44,796 900,296 889,405 "/>
   <path class="fil1" d="M351 860l-312 0c-17,0 -31,14 -31,31l0 88c0,17 14,31 31,31l312 0c17,0 31,-14 31,-31l0 -88c0,-17 -14,-31 -31,-31z"/>
   <path class="fil1" d="M351 1058l-312 0c-17,0 -31,14 -31,31l0 88c0,17 14,31 31,31l312 0c17,0 31,-14 31,-31l0 -88c0,-17 -14,-31 -31,-31z"/>
   <path class="fil1" d="M790 860l-313 0c-16,0 -30,14 -30,31l0 88c0,17 14,31 30,31l313 0c17,0 30,-14 30,-31l0 -88c0,-17 -13,-31 -30,-31z"/>
   <path class="fil1" d="M790 1058l-313 0c-16,0 -30,14 -30,31l0 88c0,17 14,31 30,31l313 0c17,0 30,-14 30,-31l0 -88c0,-17 -13,-31 -30,-31z"/>
   <path class="fil1" d="M790 662l-313 0c-16,0 -30,14 -30,31l0 88c0,17 14,31 30,31l313 0c17,0 30,-14 30,-31l0 -88c0,-17 -13,-31 -30,-31z"/>
   <path class="fil1" d="M1275 860l-312 0c-17,0 -31,14 -31,31l0 88c0,17 14,31 31,31l312 0c17,0 31,-14 31,-31l0 -88c0,-17 -14,-31 -31,-31z"/>
   <path class="fil1" d="M1275 1058l-312 0c-17,0 -31,14 -31,31l0 88c0,17 14,31 31,31l312 0c17,0 31,-14 31,-31l0 -88c0,-17 -14,-31 -31,-31z"/>
   <path class="fil1" d="M1275 662l-312 0c-17,0 -31,14 -31,31l0 88c0,17 14,31 31,31l312 0c17,0 31,-14 31,-31l0 -88c0,-17 -14,-31 -31,-31z"/>
   <path class="fil1" d="M1275 464l-312 0c-17,0 -31,14 -31,31l0 88c0,17 14,31 31,31l312 0c17,0 31,-14 31,-31l0 -88c0,-17 -14,-31 -31,-31z"/>
  </g>
 </g>
</svg>
