<?xml version="1.0" encoding="UTF-8"?>
<!DOCTYPE svg PUBLIC "-//W3C//DTD SVG 1.1//EN" "http://www.w3.org/Graphics/SVG/1.1/DTD/svg11.dtd">
<!-- Creator: CorelDRAW X7 -->
<svg xmlns="http://www.w3.org/2000/svg" xml:space="preserve" width="61.9358mm" height="64.3161mm" version="1.1" style="shape-rendering:geometricPrecision; text-rendering:geometricPrecision; image-rendering:optimizeQuality; fill-rule:evenodd; clip-rule:evenodd"
viewBox="0 0 3061 3178"
 xmlns:xlink="http://www.w3.org/1999/xlink">
 <defs>
  <style type="text/css">
   <![CDATA[
    .fil0 {fill:black;fill-rule:nonzero}
    .fil1 {fill:#026802;fill-rule:nonzero}
   ]]>
  </style>
 </defs>
 <g id="Camada_x0020_1">
  <metadata id="CorelCorpID_0Corel-Layer"/>
  <g id="_1064792624">
   <g>
    <path class="fil0" d="M1599 2810c0,150 -121,271 -270,271 -149,0 -270,-121 -270,-271 0,-149 121,-270 270,-270 149,0 270,121 270,270z"/>
    <path id="1" class="fil0" d="M1329 3178l0 -195 0 0 9 0 9 -1 8 -1 9 -1 8 -2 8 -2 8 -3 8 -3 8 -4 7 -3 8 -5 7 -4 6 -5 7 -5 6 -6 6 -5 6 -6 5 -7 6 -6 4 -7 5 -7 4 -7 4 -8 3 -7 3 -8 3 -8 2 -8 2 -9 2 -8 1 -9 1 -9 0 -9 195 0 -1 19 -1 19 -2 18 -4 18 -4 18 -5 18 -6 17 -6 17 -8 16 -8 16 -9 15 -9 15 -10 14 -11 14 -12 14 -12 12 -13 13 -13 11 -14 11 -14 10 -15 10 -16 9 -15 8 -17 7 -17 7 -17 6 -17 5 -18 4 -18 3 -19 2 -18 2 -19 0 0 0zm0 0c-54,0 -97,-43 -97,-97 0,-54 43,-98 97,-98l0 195zm-368 -368l195 0 0 0 0 9 1 9 1 9 1 8 2 9 3 8 2 8 4 8 3 7 4 8 4 7 4 7 5 7 5 6 6 7 6 6 6 5 6 6 6 5 7 5 7 4 8 5 7 3 8 4 7 3 8 3 9 2 8 2 8 1 9 2 9 0 9 0 0 195 -19 0 -19 -2 -18 -2 -18 -3 -18 -4 -17 -5 -18 -6 -16 -7 -17 -7 -15 -8 -16 -9 -15 -10 -14 -10 -14 -11 -13 -11 -13 -13 -12 -12 -12 -14 -11 -14 -10 -14 -10 -15 -8 -15 -9 -16 -7 -16 -7 -17 -5 -17 -5 -18 -4 -18 -4 -18 -2 -18 -1 -19 -1 -19 0 0zm0 0c0,-53 44,-97 98,-97 53,0 97,44 97,97l-195 0zm368 -368l0 195 0 0 -9 0 -9 1 -9 1 -8 2 -8 2 -9 2 -8 3 -7 3 -8 3 -7 4 -8 4 -7 5 -7 5 -6 5 -6 5 -6 6 -6 6 -6 6 -5 7 -5 7 -4 7 -4 7 -4 7 -3 8 -4 8 -2 8 -3 8 -2 8 -1 9 -1 8 -1 9 0 9 -195 0 1 -19 1 -18 2 -19 4 -18 4 -18 5 -17 5 -17 7 -17 7 -16 9 -16 8 -15 10 -15 10 -15 11 -14 12 -13 12 -13 13 -12 13 -12 14 -10 14 -11 15 -9 16 -9 15 -8 17 -8 16 -6 18 -6 17 -5 18 -4 18 -3 18 -3 19 -1 19 -1 0 0zm0 0c54,0 97,44 97,98 0,54 -43,97 -97,97l0 -195zm368 368l-195 0 0 0 0 -9 -1 -9 -1 -8 -2 -9 -2 -8 -2 -8 -3 -8 -3 -8 -3 -8 -4 -7 -4 -7 -5 -7 -4 -7 -6 -7 -5 -6 -6 -6 -6 -6 -6 -5 -7 -5 -6 -5 -7 -5 -8 -4 -7 -4 -8 -3 -8 -3 -8 -3 -8 -2 -8 -2 -9 -2 -8 -1 -9 -1 -9 0 0 -195 19 1 18 1 19 3 18 3 18 4 17 5 17 6 17 6 17 8 15 8 16 9 15 9 14 11 14 10 13 12 13 12 12 13 12 13 11 14 10 15 9 15 9 15 8 16 8 16 6 17 6 17 5 17 4 18 4 18 2 19 1 18 1 19 0 0zm0 0c0,54 -44,98 -98,98 -53,0 -97,-44 -97,-98l195 0z"/>
   </g>
   <g>
    <path class="fil0" d="M2676 2810c0,150 -121,271 -271,271 -149,0 -270,-121 -270,-271 0,-149 121,-270 270,-270 150,0 271,121 271,270z"/>
    <path id="1" class="fil0" d="M2405 3178l0 -195 0 0 9 0 9 -1 9 -1 8 -1 9 -2 8 -2 8 -3 8 -3 7 -4 8 -3 7 -5 7 -4 7 -5 6 -5 7 -6 6 -5 6 -6 5 -7 5 -6 5 -7 4 -7 5 -7 3 -8 4 -7 3 -8 3 -8 2 -8 2 -9 1 -8 2 -9 0 -9 0 -9 195 0 0 19 -2 19 -2 18 -3 18 -4 18 -5 18 -6 17 -7 16 -7 17 -8 16 -9 15 -10 15 -10 14 -11 14 -11 14 -12 12 -13 13 -13 11 -14 11 -15 10 -15 10 -15 9 -16 8 -16 7 -17 7 -17 6 -18 5 -18 4 -18 3 -18 2 -19 2 -19 0 0 0zm0 0c-53,0 -97,-43 -97,-97 0,-54 44,-98 97,-98l0 195zm-367 -368l195 0 0 0 0 9 0 9 2 9 1 8 2 9 2 8 3 8 3 8 4 7 3 8 5 7 4 7 5 7 5 6 5 7 6 6 6 5 7 6 6 5 7 5 7 4 7 5 8 3 7 4 8 3 8 3 8 2 8 2 9 1 9 1 8 1 9 0 0 195 -18 0 -19 -2 -18 -2 -19 -3 -17 -4 -18 -5 -17 -6 -17 -7 -16 -7 -16 -8 -15 -9 -15 -10 -15 -10 -14 -11 -13 -11 -13 -13 -12 -12 -11 -14 -11 -14 -10 -14 -10 -15 -9 -15 -8 -16 -7 -17 -7 -16 -6 -17 -5 -18 -4 -18 -3 -18 -2 -18 -2 -19 0 -19 0 0zm0 0c0,-54 43,-97 97,-97 54,0 98,43 98,97l-195 0zm367 -368l0 195 0 0 -9 0 -8 1 -9 1 -9 2 -8 2 -8 2 -8 3 -8 3 -7 3 -8 4 -7 4 -7 5 -7 4 -6 6 -7 5 -6 6 -6 6 -5 6 -5 7 -5 6 -4 8 -5 7 -3 7 -4 8 -3 8 -3 8 -2 8 -2 8 -1 9 -2 8 0 9 0 9 -195 0 0 -19 2 -18 2 -19 3 -18 4 -18 5 -17 6 -17 7 -17 7 -16 8 -16 9 -16 10 -14 10 -15 11 -14 11 -13 12 -13 13 -12 13 -12 14 -10 15 -11 15 -9 15 -9 16 -8 16 -8 17 -6 17 -6 18 -5 17 -4 19 -3 18 -3 19 -1 18 -1 0 0zm0 0c54,0 98,44 98,98 0,54 -44,97 -98,97l0 -195zm368 368l-195 0 0 0 0 -9 0 -9 -2 -8 -1 -9 -2 -8 -2 -8 -3 -8 -3 -8 -4 -8 -3 -7 -5 -7 -4 -7 -5 -7 -5 -7 -5 -6 -6 -6 -6 -6 -6 -5 -7 -5 -7 -5 -7 -5 -7 -4 -8 -4 -7 -3 -8 -3 -8 -3 -8 -2 -9 -2 -8 -2 -9 -1 -9 -1 -9 0 0 -195 19 1 19 1 18 3 18 3 18 4 18 5 17 6 17 6 16 8 16 8 15 9 15 9 15 10 14 11 13 12 13 12 12 13 11 13 11 14 10 15 10 14 9 16 8 16 7 16 7 17 6 17 5 17 4 18 3 18 2 19 2 18 0 19 0 0zm0 0c0,54 -43,98 -97,98 -54,0 -98,-44 -98,-98l195 0z"/>
   </g>
   <g>
    <path class="fil0" d="M97 195c-53,0 -97,-44 -97,-98 0,-53 44,-97 97,-97l0 195zm556 0l-556 0 0 -195 556 0 95 77 -95 118zm0 -195c54,0 97,44 97,97 0,54 -43,98 -97,98l0 -195zm309 1973l-404 -1855 190 -41 405 1854 -15 76 -176 -34zm191 -42c11,53 -22,105 -75,116 -52,12 -104,-22 -116,-74l191 -42zm-364 239l188 -273 161 110 -188 273 -81 42 -80 -152zm161 110c-31,45 -92,56 -136,25 -44,-30 -55,-91 -25,-135l161 110zm2013 42l-2094 0 0 -194 2094 0 0 194zm0 -194c54,0 98,43 98,97 0,54 -44,97 -98,97l0 -194z"/>
   </g>
   <g>
    <polygon class="fil1" points="2958,1538 990,1698 698,220 2958,220 "/>
    <path id="1" class="fil0" d="M982 1601l1968 -160 16 195 -1968 160 -103 -79 87 -116zm16 195c-53,4 -100,-36 -105,-90 -4,-53 36,-100 89,-105l16 195zm-204 -1594l292 1478 -191 37 -292 -1478 95 -116 96 79zm-191 37c-11,-52 24,-104 76,-114 53,-11 104,24 115,77l-191 37zm2355 79l-2260 0 0 -195 2260 0 97 97 -97 98zm0 -195c54,0 97,44 97,97 0,54 -43,98 -97,98l0 -195zm-98 1415l0 -1318 195 0 0 1318 -89 98 -106 -98zm195 0c0,54 -43,98 -97,98 -54,0 -98,-44 -98,-98l195 0z"/>
   </g>
   <g>
    <path class="fil0" d="M1241 754c-54,0 -97,-44 -97,-98 0,-53 43,-97 97,-97l0 195zm1313 0l-1313 0 0 -195 1313 0 0 195zm0 -195c54,0 97,44 97,97 0,54 -43,98 -97,98l0 -195z"/>
   </g>
  </g>
 </g>
</svg>
