<?xml version="1.0" encoding="UTF-8"?>
<!DOCTYPE svg PUBLIC "-//W3C//DTD SVG 1.1//EN" "http://www.w3.org/Graphics/SVG/1.1/DTD/svg11.dtd">
<!-- Creator: CorelDRAW X7 -->
<svg xmlns="http://www.w3.org/2000/svg" xml:space="preserve" width="60.3736mm" height="59.3657mm" version="1.1" style="shape-rendering:geometricPrecision; text-rendering:geometricPrecision; image-rendering:optimizeQuality; fill-rule:evenodd; clip-rule:evenodd"
viewBox="0 0 4277 4205"
 xmlns:xlink="http://www.w3.org/1999/xlink">
 <defs>
  <style type="text/css">
   <![CDATA[
    .fil2 {fill:none;fill-rule:nonzero}
    .fil1 {fill:black}
    .fil0 {fill:#026802;fill-rule:nonzero}
   ]]>
  </style>
   <clipPath id="id0" style="clip-rule:nonzero">
    <path d="M3706 1343l-3135 0 0 -45 3135 0 0 45zm0 568l-3135 0 0 -45 3135 0 0 45zm0 567l-3135 0 0 -45 3135 0 0 45zm0 568l-3135 0 0 -45 3135 0 0 45zm0 568l-3135 0 0 -45 3135 0 0 45zm326 -3156c-1,-89 -11,-176 -29,-254 -39,-167 -96,-190 -115,-197 -31,-12 -64,-8 -93,11 -86,56 -108,206 -120,346 -2,31 21,58 52,61 32,2 58,-21 61,-52 14,-171 40,-234 63,-256 9,13 27,46 42,112 17,71 25,148 26,229l-377 0c-1,-89 -11,-176 -29,-254 -39,-167 -97,-190 -115,-197 -31,-12 -64,-8 -94,11 -85,56 -108,206 -119,346 -2,31 21,58 52,61 31,2 58,-21 61,-52 13,-171 40,-234 62,-256 10,13 28,46 43,112 17,71 25,148 26,229l-377 0c-1,-89 -11,-176 -29,-254 -39,-167 -97,-190 -116,-197 -30,-12 -63,-8 -93,11 -85,56 -108,206 -119,346 -2,31 21,58 52,61 31,2 58,-21 61,-52 13,-171 40,-234 62,-256 10,13 28,46 43,112 16,71 25,148 26,229l-377 0c-2,-89 -11,-176 -29,-254 -39,-167 -97,-190 -116,-197 -30,-12 -63,-8 -93,11 -85,56 -108,206 -119,346 -2,31 21,58 52,61 31,2 58,-21 60,-52 14,-171 40,-234 63,-256 10,13 27,46 43,112 16,71 25,148 26,229l-377 0c-2,-89 -11,-176 -30,-254 -39,-167 -96,-190 -115,-197 -30,-12 -64,-8 -93,11 -85,56 -108,206 -119,346 -3,31 20,58 52,61 31,2 58,-21 60,-52 14,-171 40,-234 63,-256 10,13 27,46 43,112 16,71 25,148 26,229l-378 0c-1,-89 -10,-176 -29,-254 -39,-167 -96,-190 -115,-197 -31,-12 -64,-8 -93,11 -86,56 -108,206 -119,346 -3,31 20,58 51,61 31,2 59,-21 61,-52 14,-171 40,-234 63,-256 9,13 27,46 42,112 17,71 26,148 27,229l-378 0c-1,-89 -11,-176 -29,-254 -39,-167 -96,-190 -115,-197 -31,-12 -64,-8 -94,11 -85,56 -107,206 -119,346 -2,31 21,58 52,61 31,2 58,-21 61,-52 13,-171 40,-234 63,-256 9,13 27,46 42,112 17,71 25,148 26,229l-377 0c-1,-89 -11,-176 -29,-254 -39,-167 -97,-190 -115,-197 -31,-12 -64,-8 -94,11 -85,56 -108,206 -119,346 -2,31 21,58 52,61 31,2 58,-21 61,-52 13,-171 40,-234 62,-256 10,13 28,46 43,112 17,71 25,148 26,229l-488 0 0 3296c0,248 203,451 451,451l3375 0c248,0 451,-203 451,-451l0 -3296 -245 0z"/>
   </clipPath>
 </defs>
 <g id="Camada_x0020_1">
  <metadata id="CorelCorpID_0Corel-Layer"/>
  <path class="fil0" d="M3706 1343l-3135 0 0 -45 3135 0 0 45zm0 568l-3135 0 0 -45 3135 0 0 45zm0 567l-3135 0 0 -45 3135 0 0 45zm0 568l-3135 0 0 -45 3135 0 0 45zm0 568l-3135 0 0 -45 3135 0 0 45zm326 -3156c-1,-89 -11,-176 -29,-254 -39,-167 -96,-190 -115,-197 -31,-12 -64,-8 -93,11 -86,56 -108,206 -120,346 -2,31 21,58 52,61 32,2 58,-21 61,-52 14,-171 40,-234 63,-256 9,13 27,46 42,112 17,71 25,148 26,229l-377 0c-1,-89 -11,-176 -29,-254 -39,-167 -97,-190 -115,-197 -31,-12 -64,-8 -94,11 -85,56 -108,206 -119,346 -2,31 21,58 52,61 31,2 58,-21 61,-52 13,-171 40,-234 62,-256 10,13 28,46 43,112 17,71 25,148 26,229l-377 0c-1,-89 -11,-176 -29,-254 -39,-167 -97,-190 -116,-197 -30,-12 -63,-8 -93,11 -85,56 -108,206 -119,346 -2,31 21,58 52,61 31,2 58,-21 61,-52 13,-171 40,-234 62,-256 10,13 28,46 43,112 16,71 25,148 26,229l-377 0c-2,-89 -11,-176 -29,-254 -39,-167 -97,-190 -116,-197 -30,-12 -63,-8 -93,11 -85,56 -108,206 -119,346 -2,31 21,58 52,61 31,2 58,-21 60,-52 14,-171 40,-234 63,-256 10,13 27,46 43,112 16,71 25,148 26,229l-377 0c-2,-89 -11,-176 -30,-254 -39,-167 -96,-190 -115,-197 -30,-12 -64,-8 -93,11 -85,56 -108,206 -119,346 -3,31 20,58 52,61 31,2 58,-21 60,-52 14,-171 40,-234 63,-256 10,13 27,46 43,112 16,71 25,148 26,229l-378 0c-1,-89 -10,-176 -29,-254 -39,-167 -96,-190 -115,-197 -31,-12 -64,-8 -93,11 -86,56 -108,206 -119,346 -3,31 20,58 51,61 31,2 59,-21 61,-52 14,-171 40,-234 63,-256 9,13 27,46 42,112 17,71 26,148 27,229l-378 0c-1,-89 -11,-176 -29,-254 -39,-167 -96,-190 -115,-197 -31,-12 -64,-8 -94,11 -85,56 -107,206 -119,346 -2,31 21,58 52,61 31,2 58,-21 61,-52 13,-171 40,-234 63,-256 9,13 27,46 42,112 17,71 25,148 26,229l-377 0c-1,-89 -11,-176 -29,-254 -39,-167 -97,-190 -115,-197 -31,-12 -64,-8 -94,11 -85,56 -108,206 -119,346 -2,31 21,58 52,61 31,2 58,-21 61,-52 13,-171 40,-234 62,-256 10,13 28,46 43,112 17,71 25,148 26,229l-488 0 0 3296c0,248 203,451 451,451l3375 0c248,0 451,-203 451,-451l0 -3296 -245 0z"/>
  <g style="clip-path:url(#id0)">
   <g id="_997565568">
    <rect class="fil1" x="40" y="-287" width="4236" height="744"/>
   </g>
  </g>
  <path class="fil2" d="M3706 1343l-3135 0 0 -45 3135 0 0 45zm0 568l-3135 0 0 -45 3135 0 0 45zm0 567l-3135 0 0 -45 3135 0 0 45zm0 568l-3135 0 0 -45 3135 0 0 45zm0 568l-3135 0 0 -45 3135 0 0 45zm326 -3156c-1,-89 -11,-176 -29,-254 -39,-167 -96,-190 -115,-197 -31,-12 -64,-8 -93,11 -86,56 -108,206 -120,346 -2,31 21,58 52,61 32,2 58,-21 61,-52 14,-171 40,-234 63,-256 9,13 27,46 42,112 17,71 25,148 26,229l-377 0c-1,-89 -11,-176 -29,-254 -39,-167 -97,-190 -115,-197 -31,-12 -64,-8 -94,11 -85,56 -108,206 -119,346 -2,31 21,58 52,61 31,2 58,-21 61,-52 13,-171 40,-234 62,-256 10,13 28,46 43,112 17,71 25,148 26,229l-377 0c-1,-89 -11,-176 -29,-254 -39,-167 -97,-190 -116,-197 -30,-12 -63,-8 -93,11 -85,56 -108,206 -119,346 -2,31 21,58 52,61 31,2 58,-21 61,-52 13,-171 40,-234 62,-256 10,13 28,46 43,112 16,71 25,148 26,229l-377 0c-2,-89 -11,-176 -29,-254 -39,-167 -97,-190 -116,-197 -30,-12 -63,-8 -93,11 -85,56 -108,206 -119,346 -2,31 21,58 52,61 31,2 58,-21 60,-52 14,-171 40,-234 63,-256 10,13 27,46 43,112 16,71 25,148 26,229l-377 0c-2,-89 -11,-176 -30,-254 -39,-167 -96,-190 -115,-197 -30,-12 -64,-8 -93,11 -85,56 -108,206 -119,346 -3,31 20,58 52,61 31,2 58,-21 60,-52 14,-171 40,-234 63,-256 10,13 27,46 43,112 16,71 25,148 26,229l-378 0c-1,-89 -10,-176 -29,-254 -39,-167 -96,-190 -115,-197 -31,-12 -64,-8 -93,11 -86,56 -108,206 -119,346 -3,31 20,58 51,61 31,2 59,-21 61,-52 14,-171 40,-234 63,-256 9,13 27,46 42,112 17,71 26,148 27,229l-378 0c-1,-89 -11,-176 -29,-254 -39,-167 -96,-190 -115,-197 -31,-12 -64,-8 -94,11 -85,56 -107,206 -119,346 -2,31 21,58 52,61 31,2 58,-21 61,-52 13,-171 40,-234 63,-256 9,13 27,46 42,112 17,71 25,148 26,229l-377 0c-1,-89 -11,-176 -29,-254 -39,-167 -97,-190 -115,-197 -31,-12 -64,-8 -94,11 -85,56 -108,206 -119,346 -2,31 21,58 52,61 31,2 58,-21 61,-52 13,-171 40,-234 62,-256 10,13 28,46 43,112 17,71 25,148 26,229l-488 0 0 3296c0,248 203,451 451,451l3375 0c248,0 451,-203 451,-451l0 -3296 -245 0z"/>
 </g>
</svg>
