<?xml version="1.0" encoding="UTF-8"?>
<!DOCTYPE svg PUBLIC "-//W3C//DTD SVG 1.1//EN" "http://www.w3.org/Graphics/SVG/1.1/DTD/svg11.dtd">
<!-- Creator: CorelDRAW X7 -->
<svg xmlns="http://www.w3.org/2000/svg" xml:space="preserve" width="41.3087mm" height="60.3751mm" version="1.1" style="shape-rendering:geometricPrecision; text-rendering:geometricPrecision; image-rendering:optimizeQuality; fill-rule:evenodd; clip-rule:evenodd"
viewBox="0 0 633 925"
 xmlns:xlink="http://www.w3.org/1999/xlink">
 <defs>
  <style type="text/css">
   <![CDATA[
    .fil0 {fill:black;fill-rule:nonzero}
    .fil1 {fill:#026802;fill-rule:nonzero}
   ]]>
  </style>
 </defs>
 <g id="Camada_x0020_1">
  <metadata id="CorelCorpID_0Corel-Layer"/>
  <g id="_1064762864">
   <path class="fil0" d="M122 146l462 0 0 -49c0,-53 -43,-97 -97,-97l-390 0c-53,0 -97,44 -97,97l0 731c0,53 44,97 97,97l390 0c54,0 97,-44 97,-97l0 -195 -97 0 0 49c0,13 -11,24 -24,24l-341 0c-14,0 -25,-11 -25,-24l0 -512c0,-13 11,-24 25,-24zm194 718l-48 0c-27,0 -49,-22 -49,-48l0 0c0,-27 22,-49 49,-49l48 0c27,0 49,22 49,49l0 0c0,26 -22,48 -49,48z"/>
   <path class="fil1" d="M584 207l-341 0c-26,0 -48,22 -48,49l0 340c0,21 23,32 39,20l45 -34c9,-6 19,-10 29,-10l276 0c27,0 49,-22 49,-49l0 -267c0,-27 -22,-49 -49,-49zm-146 286l-122 0c-16,0 -30,-14 -30,-30 0,-17 14,-31 30,-31l122 0c17,0 31,14 31,31 0,16 -14,30 -31,30zm98 -122l-220 0c-16,0 -30,-13 -30,-30 0,-17 14,-31 30,-31l220 0c16,0 30,14 30,31 0,17 -14,30 -30,30z"/>
  </g>
 </g>
</svg>
