<?xml version="1.0" encoding="UTF-8"?>
<!DOCTYPE svg PUBLIC "-//W3C//DTD SVG 1.1//EN" "http://www.w3.org/Graphics/SVG/1.1/DTD/svg11.dtd">
<!-- Creator: CorelDRAW X7 -->
<svg xmlns="http://www.w3.org/2000/svg" xml:space="preserve" width="60.381mm" height="54.1425mm" version="1.1" style="shape-rendering:geometricPrecision; text-rendering:geometricPrecision; image-rendering:optimizeQuality; fill-rule:evenodd; clip-rule:evenodd"
viewBox="0 0 1126 1010"
 xmlns:xlink="http://www.w3.org/1999/xlink">
 <defs>
  <style type="text/css">
   <![CDATA[
    .fil0 {fill:black;fill-rule:nonzero}
    .fil1 {fill:#026802;fill-rule:nonzero}
   ]]>
  </style>
 </defs>
 <g id="Camada_x0020_1">
  <metadata id="CorelCorpID_0Corel-Layer"/>
  <g id="_997563360">
   <path class="fil0" d="M351 785c-69,0 -126,-56 -126,-126 0,-69 57,-125 126,-125 69,0 125,56 125,125 0,70 -56,126 -125,126zm0 -301c-97,0 -175,79 -175,175 0,97 78,175 175,175 96,0 175,-78 175,-175 0,-96 -79,-175 -175,-175z"/>
   <path class="fil0" d="M351 883c-124,0 -224,-100 -224,-224 0,-123 100,-223 224,-223 123,0 223,100 223,223 0,124 -100,224 -223,224zm298 -314l24 -53 -34 -60 -56 -5c-6,-7 -13,-13 -19,-19l-5 -58 -60 -34 -51 23c-9,-3 -18,-5 -26,-7l-34 -48 -69 0 -33 46c-8,2 -17,4 -26,7l-52 -24 -60 34 -5 56c-7,6 -13,13 -20,19l-57 6 -35 59 23 51c-2,9 -5,18 -7,26l-47 34 0 69 46 33c2,8 4,17 6,26l-24 52 35 60 56 5c6,7 12,13 18,20l6 57 60 35 51 -23c8,2 17,5 26,7l33 47 70 0 32 -46c9,-2 18,-4 26,-6l53 24 60 -35 5 -56c7,-6 13,-12 19,-18l58 -6 34 -60 -23 -51c3,-8 5,-17 7,-26l48 -33 0 -69 -46 -33c-2,-9 -4,-17 -7,-26z"/>
   <path class="fil1" d="M887 530c-48,0 -86,-39 -86,-86 0,-48 38,-86 86,-86 47,0 85,38 85,86 0,47 -38,86 -85,86zm0 -206c-66,0 -120,54 -120,120 0,66 54,119 120,119 66,0 119,-53 119,-119 0,-66 -53,-120 -119,-120z"/>
   <path class="fil1" d="M887 596c-85,0 -153,-68 -153,-152 0,-84 68,-153 153,-153 84,0 152,69 152,153 0,84 -68,152 -152,152zm239 -127l0 -47 -31 -22c-1,-6 -3,-12 -4,-18l16 -36 -23 -41 -39 -3c-4,-5 -8,-9 -13,-14l-3 -39 -41 -24 -35 16c-6,-2 -12,-3 -18,-5l-23 -32 -47 0 -22 31c-6,2 -12,3 -18,5l-36 -17 -41 24 -4 38c-4,4 -8,9 -13,13l-39 4 -24 41 16 35c-2,5 -3,11 -5,17l-32 23 0 48 31 22c1,6 3,12 5,18l-17 36 24 41 38 3c4,5 9,9 13,13l4 40 41 23 35 -16c5,2 11,4 17,5l23 33 47 0 23 -32c6,-1 12,-2 17,-4l36 16 41 -23 4 -39c5,-4 9,-8 13,-12l40 -4 23 -41 -16 -35c2,-6 4,-12 5,-18l32 -23z"/>
   <path class="fil1" d="M574 201c-29,-4 -49,-30 -46,-59 4,-29 30,-50 59,-46 29,4 50,30 46,59 -4,29 -30,49 -59,46zm16 -126c-41,-5 -77,24 -82,64 -6,41 23,77 64,83 40,5 77,-24 82,-64 5,-41 -24,-78 -64,-83z"/>
   <path class="fil1" d="M569 242c-52,-7 -88,-54 -82,-105 7,-52 54,-88 105,-82 52,6 89,53 82,105 -6,52 -53,88 -105,82zm141 -116l13 -21 -11 -26 -23 -6c-3,-3 -5,-6 -7,-9l1 -24 -24 -18 -22 8c-4,-2 -7,-4 -11,-5l-11 -21 -29 -4 -16 17c-4,1 -8,1 -12,2l-20 -13 -27 11 -5 23c-3,3 -6,5 -9,7l-25 0 -17 23 7 22c-2,4 -3,7 -5,11l-21 11 -4 29 18 16c0,4 0,8 1,12l-13 20 12 27 23 5c2,3 4,6 7,9l-1 25 23 17 23 -7c3,2 7,3 10,5l12 21 29 4 16 -18c3,0 7,0 11,-1l21 13 26 -12 6 -23c3,-2 6,-4 9,-7l24 1 18 -23 -7 -23c1,-3 3,-6 4,-10l21 -12 4 -29 -17 -16c-1,-3 -1,-7 -2,-11z"/>
  </g>
 </g>
</svg>
