<?xml version="1.0" encoding="UTF-8"?>
<!DOCTYPE svg PUBLIC "-//W3C//DTD SVG 1.1//EN" "http://www.w3.org/Graphics/SVG/1.1/DTD/svg11.dtd">
<!-- Creator: CorelDRAW X7 -->
<svg xmlns="http://www.w3.org/2000/svg" xml:space="preserve" width="55.8745mm" height="60.378mm" version="1.1" style="shape-rendering:geometricPrecision; text-rendering:geometricPrecision; image-rendering:optimizeQuality; fill-rule:evenodd; clip-rule:evenodd"
viewBox="0 0 3480 3760"
 xmlns:xlink="http://www.w3.org/1999/xlink">
 <defs>
  <style type="text/css">
   <![CDATA[
    .fil1 {fill:black}
    .fil0 {fill:#026802}
   ]]>
  </style>
 </defs>
 <g id="Camada_x0020_1">
  <metadata id="CorelCorpID_0Corel-Layer"/>
  <g id="_997577312">
   <path class="fil0" d="M1935 1733c-37,-37 -89,-61 -146,-61 -58,0 -110,24 -147,61 -38,38 -61,90 -61,147 0,56 22,107 57,144l4 3c37,38 89,61 147,61 57,0 109,-23 146,-61l1 0c37,-37 60,-89 60,-147 0,-57 -23,-109 -61,-147l1 0 -1 0zm-146 -212c98,0 188,41 253,105l0 0c65,65 106,155 106,254 0,99 -41,188 -106,253l0 1 0 0 0 0c-65,65 -155,105 -253,105 -99,0 -189,-40 -254,-105 -2,-2 -3,-3 -4,-5 -63,-65 -101,-152 -101,-249 0,-99 40,-189 105,-254 65,-65 155,-105 254,-105l0 0z"/>
   <path class="fil1" d="M3000 950c107,0 194,-88 194,-195 0,-107 -87,-195 -194,-195 -108,0 -195,88 -195,195 0,107 87,195 195,195z"/>
   <g>
    <path class="fil1" d="M2160 3683c108,0 195,-87 195,-195 0,-107 -87,-195 -195,-195 -107,0 -195,88 -195,195 0,108 88,195 195,195z"/>
    <path class="fil1" d="M195 1542c107,0 195,-88 195,-195 0,-107 -88,-195 -195,-195 -107,0 -195,88 -195,195 0,107 88,195 195,195z"/>
    <path class="fil1" d="M2481 1260c-25,-146 -58,-283 -99,-408 -128,27 -263,67 -402,118 85,42 170,87 256,136l4 3c83,48 164,99 241,151zm-99 1648c41,-124 74,-261 99,-407 -78,53 -160,104 -245,153l-1 0c-85,49 -170,95 -255,136 139,51 274,91 402,118l0 0zm-1286 -408c25,147 59,284 99,408 128,-27 264,-67 403,-118 -85,-41 -171,-87 -256,-136l-4 -3c-84,-48 -165,-99 -242,-151l0 0zm-28 -1036c-14,133 -22,273 -22,416 0,144 8,283 22,416 107,79 222,154 345,225l4 3c124,71 249,134 372,188 122,-54 247,-117 371,-188l0 0c124,-72 241,-148 349,-228 15,-133 22,-273 22,-416 0,-143 -7,-283 -22,-416 -107,-79 -222,-154 -345,-225l-4 -2c-124,-72 -249,-135 -371,-189 -123,54 -247,117 -372,189l0 0c-124,71 -241,148 -349,227l0 0zm127 -612c-40,125 -74,261 -99,408 79,-53 161,-105 246,-154l0 0c85,-49 171,-94 256,-136 -139,-51 -275,-91 -403,-118l0 0zm-269 530c25,-201 66,-389 119,-557 -27,-3 -53,-7 -79,-9l0 0c-328,-32 -578,32 -675,199 -97,168 -27,417 165,684 15,22 31,43 48,65 118,-130 260,-259 422,-382l0 0zm-21 787c-7,-94 -10,-191 -10,-289 0,-98 3,-195 10,-289 -114,94 -216,192 -303,289 87,97 189,195 303,289l0 0zm140 766c-53,-168 -94,-356 -119,-557 -162,-123 -304,-252 -422,-381 -17,21 -33,43 -48,64 -192,267 -262,516 -165,684 97,167 347,231 673,199l2 0c26,-2 52,-5 79,-9l0 0zm1607 -557c-26,201 -67,389 -120,557 27,4 54,7 80,9l0 0c327,32 578,-32 674,-199 97,-168 27,-417 -164,-684 -16,-21 -32,-43 -48,-64 -119,129 -261,258 -422,381l0 0zm20 -787c7,94 11,191 11,289 0,98 -4,195 -11,289 114,-94 216,-192 304,-289 -88,-97 -190,-195 -304,-289l0 0zm-140 -766c53,168 94,356 120,557 161,123 303,252 422,382 16,-22 32,-43 48,-65 191,-267 261,-516 164,-684 -96,-167 -346,-231 -673,-199l-1 0c-26,2 -53,6 -80,9l0 0zm-202 2226c-171,-38 -354,-96 -541,-175 -187,79 -370,137 -542,175 10,25 21,50 32,74 135,299 316,484 510,484 193,0 374,-185 509,-484 11,-24 22,-49 32,-74l0 0zm-1083 -2342c172,38 355,96 542,175 187,-79 370,-137 541,-175 -10,-25 -21,-50 -32,-74 -135,-299 -316,-484 -509,-484 -194,0 -375,185 -510,484 -11,24 -22,49 -32,74l0 0zm-1086 2111c-130,-224 -54,-531 172,-847 22,-31 46,-62 71,-93 -25,-31 -49,-62 -71,-93 -226,-316 -302,-623 -172,-847 129,-223 433,-312 819,-274l0 0 0 0c38,4 77,9 116,15 14,-37 30,-73 45,-108 161,-354 389,-573 648,-573 258,0 487,219 647,573 16,35 31,71 45,108 40,-6 78,-11 116,-15l2 0c386,-38 689,51 818,274 129,224 54,531 -173,847 -22,31 -45,62 -70,93 25,31 48,62 70,93 227,316 302,623 173,847 -130,224 -433,312 -820,274l0 0 0 0c-38,-4 -76,-8 -116,-15 -14,38 -29,74 -45,108 -160,354 -389,573 -647,573 -259,0 -487,-219 -648,-573 -15,-34 -31,-70 -45,-108 -39,7 -78,11 -116,15l-2 0c-385,38 -688,-51 -817,-274l0 0z"/>
   </g>
  </g>
 </g>
</svg>
