<?xml version="1.0" encoding="UTF-8"?>
<!DOCTYPE svg PUBLIC "-//W3C//DTD SVG 1.1//EN" "http://www.w3.org/Graphics/SVG/1.1/DTD/svg11.dtd">
<!-- Creator: CorelDRAW X7 -->
<svg xmlns="http://www.w3.org/2000/svg" xml:space="preserve" width="60.3735mm" height="61.5763mm" version="1.1" style="shape-rendering:geometricPrecision; text-rendering:geometricPrecision; image-rendering:optimizeQuality; fill-rule:evenodd; clip-rule:evenodd"
viewBox="0 0 1455 1484"
 xmlns:xlink="http://www.w3.org/1999/xlink">
 <defs>
  <style type="text/css">
   <![CDATA[
    .fil0 {fill:black}
    .fil1 {fill:#026802}
   ]]>
  </style>
 </defs>
 <g id="Camada_x0020_1">
  <metadata id="CorelCorpID_0Corel-Layer"/>
  <g id="_1064781744">
   <path class="fil0" d="M865 743c64,-42 93,-111 132,-207 56,-5 78,-93 33,-133 5,-117 17,-205 -48,-289 -48,-62 -135,-99 -249,-99 1,0 3,-2 3,-2 1,1 2,-1 3,-1 12,-6 15,-5 29,-6 -1,0 -2,-2 -3,-1l-6 -2c0,-1 -1,-1 -2,-1 -3,-1 -6,-1 -9,-2l-51 0c-48,21 -36,-4 -121,56 -11,8 -100,18 -115,59 -21,59 -76,32 -34,288 -21,21 -30,39 -20,78 14,58 49,52 55,57l47 110c56,132 243,169 356,95zm-289 -52c-11,-10 -20,-16 -28,-27 -16,-22 -44,-91 -53,-121 -21,-67 -38,-12 -56,-59 -8,-18 -11,-40 5,-54 4,-4 0,0 5,-5 3,-3 4,-6 8,-11 11,8 13,14 27,20 -8,-61 -27,-169 5,-220 56,9 62,48 95,69 61,40 204,47 274,23 39,-13 75,-40 123,-35 4,66 -1,101 -10,164l28 -21c6,6 4,7 11,13 4,4 7,5 13,10 3,22 0,56 -17,66 -23,15 -26,-9 -42,38 -62,183 -219,291 -388,150z"/>
   <path class="fil0" d="M359 1086c8,-4 10,-8 17,-15 6,-6 10,-9 20,-15 61,-38 94,-36 158,-33 -8,-6 -11,-11 -22,-17 -26,-14 -75,-7 -100,2 -44,15 -62,39 -73,78zm1096 162c-186,146 -443,236 -726,236 -285,0 -543,-91 -729,-237 15,-58 34,-115 63,-157 36,-52 172,-125 233,-159 24,-14 60,-35 84,-45l32 96c-18,17 -71,32 -82,98 -15,87 36,288 129,321 12,4 26,6 40,4 5,-1 36,-8 39,-10 19,-20 4,-42 -21,-42 -16,10 -9,14 -21,22 -61,11 -98,-76 -115,-128 -13,-38 -38,-113 -11,-148 45,-58 176,-93 214,-38 25,36 63,123 69,178 4,37 -3,85 -31,92 -15,3 -28,-14 -39,6 -9,16 5,52 36,29 21,-15 84,-27 60,-150 -11,-58 -44,-130 -71,-172 -35,-56 -74,-89 -164,-70 -11,-11 -33,-82 -35,-103l104 -56c32,60 88,196 171,188 4,-8 7,-19 10,-28 8,-30 -25,-41 -36,-81 23,-14 58,-54 71,-63 18,11 55,48 71,68 -40,75 -45,36 -27,104 51,1 79,-35 105,-73 17,-26 50,-84 62,-114l145 74c-5,28 -21,84 -37,103 -115,-19 -138,107 -67,147 90,51 166,-71 95,-129 0,-5 35,-101 38,-105 25,10 129,72 157,89 124,78 147,107 184,253zm-393 -210c-1,0 -6,4 -8,9 -5,13 -2,4 -1,13 6,52 -39,45 -50,37 -12,-9 -19,-32 -6,-48 17,-21 28,1 37,-28 -52,-18 -90,59 -41,92 50,33 108,-32 69,-75z"/>
   <polygon class="fil1" points="1091,1182 1152,1182 1152,1261 1231,1261 1232,1322 1152,1322 1152,1402 1091,1402 1091,1322 1012,1323 1012,1262 1091,1262 "/>
  </g>
 </g>
</svg>
