<?xml version="1.0" encoding="UTF-8"?>
<!DOCTYPE svg PUBLIC "-//W3C//DTD SVG 1.1//EN" "http://www.w3.org/Graphics/SVG/1.1/DTD/svg11.dtd">
<!-- Creator: CorelDRAW X7 -->
<svg xmlns="http://www.w3.org/2000/svg" xml:space="preserve" width="58.7645mm" height="60.3693mm" version="1.1" style="shape-rendering:geometricPrecision; text-rendering:geometricPrecision; image-rendering:optimizeQuality; fill-rule:evenodd; clip-rule:evenodd"
viewBox="0 0 777 799"
 xmlns:xlink="http://www.w3.org/1999/xlink">
 <defs>
  <style type="text/css">
   <![CDATA[
    .fil0 {fill:black}
    .fil2 {fill:#026802}
    .fil1 {fill:white}
   ]]>
  </style>
 </defs>
 <g id="Camada_x0020_1">
  <metadata id="CorelCorpID_0Corel-Layer"/>
  <g id="_997579264">
   <g>
    <path class="fil0" d="M177 401c1,2 19,13 23,15l70 43c2,0 60,-32 68,-37 16,-8 14,-2 43,13l28 15c3,2 7,8 3,14 -3,6 -55,33 -65,41 2,2 59,36 68,41 4,3 6,1 10,-2 64,-38 131,-80 195,-118 6,-4 14,-8 20,-12 4,-3 17,-9 19,-13 -6,-2 -22,-13 -30,-18l-119 -71c-12,-7 -86,-53 -92,-53 -5,0 -53,30 -61,34l-149 90c-5,3 -11,6 -16,9 -3,3 -11,8 -15,9z"/>
    <path class="fil0" d="M638 619c-1,4 -10,8 -14,11l-98 59c-9,2 -15,-6 -12,-13 2,-4 11,-9 15,-11 5,-3 11,-7 16,-10l66 -40c3,-2 13,-9 16,-9 8,-2 15,5 11,13zm1 -39c-2,4 -10,8 -15,11l-50 30c-11,7 -21,13 -32,20 -4,2 -14,8 -17,9 -7,2 -14,-5 -11,-13 1,-4 8,-7 15,-11 6,-4 11,-7 17,-10 11,-7 21,-14 32,-20 11,-6 22,-13 33,-20 4,-2 13,-8 17,-9 7,-2 13,5 11,13zm-211 144l0 66c0,4 -2,6 -3,8 6,-2 19,-11 25,-14 8,-5 15,-10 24,-15 56,-33 113,-70 169,-103 33,-18 26,-11 26,-52l0 -116c0,-26 -1,-54 1,-79 -4,1 -8,4 -11,6 -4,2 -7,4 -11,6 -41,24 -86,52 -127,77l-90 55c-4,2 -3,1 -3,6 -1,5 0,12 0,18 -1,45 0,91 0,137z"/>
    <path class="fil0" d="M412 799c-5,-8 -3,-16 -3,-26l0 -208 -54 -32c-3,-2 -5,-4 -8,-6 -3,-1 -6,-4 -9,-5 -2,27 -1,56 -1,83 0,5 4,30 -16,20l-56 -28c-5,-4 -4,-9 -4,-17l0 -105c-20,-13 -49,-29 -70,-42 -4,-2 -7,-5 -12,-7 -4,-3 -8,-6 -12,-7 1,52 0,104 0,156 0,11 -2,71 2,76 2,3 135,83 145,89 17,10 32,19 49,29l37 23c3,2 8,5 12,7z"/>
    <path class="fil0" d="M280 583l38 19 0 -92 -28 -17c-3,-2 -7,-5 -10,-6l0 96z"/>
    <path class="fil0" d="M290 470c4,3 33,21 38,23l56 -34c-2,-2 -19,-11 -23,-13 -15,-8 -9,-9 -23,-2l-48 26z"/>
   </g>
   <path class="fil1" d="M575 433c-5,2 -9,1 -14,-1 -4,-1 -8,-4 -11,-6l-27 -16c-12,-7 -24,-15 -35,-22 -18,-10 -105,-60 -112,-70 -9,-12 -5,-51 -5,-67 0,-38 0,-75 0,-113 -1,-7 2,-12 7,-17 0,0 0,0 0,0 0,-1 1,-2 1,-4 2,-6 7,-11 13,-12 2,-1 5,-3 7,-5 4,-2 8,-5 11,-7l109 -65c11,-7 43,-28 55,-28 14,0 63,33 77,42l87 52c5,3 12,8 17,10 7,2 11,6 14,13 0,1 1,3 1,4 0,0 0,0 0,0 5,5 8,11 7,18 -1,18 0,37 0,56l0 84c0,35 3,38 -29,56 -42,24 -82,50 -123,75 -6,3 -11,7 -17,10 -7,4 -14,10 -22,12 -4,2 -7,2 -11,1z"/>
   <g>
    <path class="fil2" d="M399 124c1,2 14,10 17,12l51 30c1,0 43,-23 49,-26 11,-6 10,-1 31,9l20 11c3,2 5,6 3,10 -3,4 -40,24 -48,30 2,1 43,26 50,30 3,2 4,0 7,-2 46,-28 95,-58 141,-85 5,-3 10,-6 14,-9 4,-2 13,-7 15,-10 -5,-1 -17,-9 -22,-12l-87 -52c-8,-5 -62,-39 -66,-39 -4,0 -39,22 -44,25l-109 66c-3,2 -7,4 -11,6 -3,2 -8,6 -11,6z"/>
    <path class="fil2" d="M734 282c-2,3 -8,6 -11,8l-71 43c-6,2 -11,-4 -9,-9 2,-3 8,-7 11,-8 4,-2 8,-5 12,-7l48 -29c2,-2 9,-7 11,-7 6,-1 11,4 9,9zm0 -28c-2,3 -7,6 -11,8l-36 22c-8,5 -16,9 -24,14 -2,2 -9,7 -11,7 -6,2 -11,-4 -9,-9 1,-3 6,-5 11,-8 4,-3 8,-5 12,-8 9,-4 16,-9 24,-14 8,-4 16,-10 24,-14 3,-2 9,-6 12,-7 5,-1 10,4 8,9zm-153 105l0 48c0,2 -1,4 -2,5 4,-1 13,-7 18,-10 6,-4 11,-7 17,-11 41,-24 83,-51 123,-74 24,-14 19,-9 19,-38l0 -84c0,-19 -1,-39 0,-57 -3,0 -5,2 -8,4 -3,2 -4,3 -7,4 -30,18 -63,38 -93,56l-65 40c-2,1 -2,1 -2,4 0,4 0,9 0,13 -1,33 0,67 0,100z"/>
    <path class="fil2" d="M569 413c-3,-6 -2,-11 -2,-19l0 -150 -39 -24c-2,-1 -4,-2 -6,-4 -2,-1 -4,-3 -7,-4 0,20 0,41 0,60 0,4 3,22 -12,15l-40 -21c-4,-2 -3,-6 -3,-11l0 -76c-15,-10 -35,-21 -51,-31 -3,-2 -5,-4 -8,-5 -3,-2 -6,-5 -9,-5 0,37 0,75 0,113 0,8 -2,51 1,55 2,2 98,60 106,64 12,7 23,14 35,22l26 16c3,1 7,4 9,5z"/>
    <path class="fil2" d="M474 257l27 13 1 -66 -21 -13c-2,-1 -5,-3 -7,-4l0 70z"/>
    <path class="fil2" d="M481 175c3,2 24,15 28,17l40 -25c-1,-2 -14,-8 -16,-10 -11,-6 -7,-6 -18,-1l-34 19z"/>
   </g>
   <path class="fil1" d="M156 378c-4,1 -7,1 -11,-1 -3,-1 -6,-3 -8,-5l-21 -12c-9,-5 -18,-11 -26,-16 -14,-8 -80,-46 -85,-53 -7,-10 -4,-40 -5,-52 0,-28 1,-57 0,-85 0,-5 2,-10 6,-13 0,0 0,0 0,0 0,-1 1,-2 1,-3 2,-5 5,-8 9,-10 2,-1 4,-2 6,-3 3,-2 6,-4 9,-5l82 -50c9,-5 33,-21 42,-21 11,0 48,25 59,31l66 40c4,2 9,6 13,8 5,1 8,5 10,9 1,1 1,3 1,4 0,0 0,0 0,0 4,3 6,8 6,13 -1,14 0,28 0,43l0 64c0,27 2,28 -23,43 -31,18 -62,38 -93,56 -4,3 -9,5 -13,8 -5,3 -11,7 -17,9 -2,1 -5,2 -8,1z"/>
   <g>
    <path class="fil2" d="M22 143c1,2 11,7 13,9l38 23c1,0 33,-17 38,-20 9,-4 8,-1 24,7l15 8c2,2 4,5 2,8 -2,3 -31,18 -36,22 1,2 32,20 37,23 3,2 3,1 6,-1 35,-21 72,-44 107,-65 4,-2 8,-4 11,-6 3,-2 10,-6 11,-8 -3,-1 -13,-7 -16,-9l-67 -40c-6,-4 -47,-29 -50,-29 -3,0 -29,16 -33,19l-83 49c-3,2 -6,4 -8,5 -2,2 -7,5 -9,5z"/>
    <path class="fil2" d="M276 263c0,2 -5,5 -8,6l-54 33c-4,1 -8,-3 -6,-7 1,-3 6,-5 8,-6 3,-2 6,-4 9,-6l36 -22c2,-1 8,-5 9,-5 5,-1 8,3 6,7zm1 -21c-1,2 -6,4 -9,6l-27 16c-6,4 -12,8 -18,11 -2,2 -7,5 -9,6 -4,1 -8,-3 -6,-8 1,-2 4,-3 8,-6 3,-2 6,-3 9,-5 7,-4 12,-8 18,-11 6,-3 12,-7 18,-11 3,-1 7,-5 9,-5 4,-1 8,3 7,7zm-117 79l0 37c0,2 -1,3 -1,4 3,-1 10,-6 13,-8 5,-2 9,-5 14,-8 31,-18 62,-39 93,-56 18,-11 15,-7 15,-29l0 -64c0,-14 -1,-30 0,-44 -2,1 -5,2 -6,3 -3,2 -4,3 -6,4 -23,13 -48,29 -70,42l-50 31c-2,1 -2,0 -2,3 0,3 0,6 0,10 0,25 0,50 0,75z"/>
    <path class="fil2" d="M152 362c-3,-4 -2,-8 -2,-14l0 -114 -30 -18c-1,-1 -3,-2 -4,-3 -2,-1 -4,-3 -5,-3 -1,15 0,31 0,46 0,3 1,16 -10,11l-30 -16c-3,-2 -3,-5 -3,-9l0 -58c-11,-7 -26,-16 -38,-23 -2,-1 -4,-3 -7,-4 -2,-1 -4,-3 -6,-4 0,29 0,58 0,86 0,6 -1,39 1,42 1,2 74,46 80,49 9,6 17,11 27,16l20 13c2,1 5,3 7,3z"/>
    <path class="fil2" d="M79 244l21 10 0 -51 -16 -9c-1,-1 -3,-2 -5,-3l0 53z"/>
    <path class="fil2" d="M84 181c2,2 19,12 21,13l31 -19c-1,-1 -10,-6 -12,-7 -9,-4 -5,-5 -13,-1l-27 14z"/>
   </g>
  </g>
 </g>
</svg>
