<?xml version="1.0" encoding="UTF-8"?>
<!DOCTYPE svg PUBLIC "-//W3C//DTD SVG 1.1//EN" "http://www.w3.org/Graphics/SVG/1.1/DTD/svg11.dtd">
<!-- Creator: CorelDRAW X7 -->
<svg xmlns="http://www.w3.org/2000/svg" xml:space="preserve" width="44.8757mm" height="60.3679mm" version="1.1" style="shape-rendering:geometricPrecision; text-rendering:geometricPrecision; image-rendering:optimizeQuality; fill-rule:evenodd; clip-rule:evenodd"
viewBox="0 0 654 879"
 xmlns:xlink="http://www.w3.org/1999/xlink">
 <defs>
  <style type="text/css">
   <![CDATA[
    .fil0 {fill:black}
    .fil1 {fill:#026802}
   ]]>
  </style>
 </defs>
 <g id="Camada_x0020_1">
  <metadata id="CorelCorpID_0Corel-Layer"/>
  <g id="_1064758384">
   <path class="fil0" d="M138 574c3,-13 11,-18 13,-20 2,-3 7,-20 9,-25 3,-8 7,-16 11,-23 2,-4 10,-17 13,-18 -8,0 -71,35 -80,40 -27,17 -46,33 -64,57 -35,50 -40,130 -40,201l0 8c5,9 55,29 68,34 175,67 342,69 517,0 13,-5 64,-26 69,-34l0 -2c0,-84 -5,-188 -70,-239 -25,-20 -88,-59 -114,-66 23,21 44,63 53,93 14,0 25,2 33,9 8,6 14,14 17,26 12,56 -69,75 -86,23 -4,-12 -2,-26 4,-35 8,-15 11,-13 21,-20 -4,-19 -23,-55 -35,-71 -4,-4 -13,-15 -16,-17 -1,16 -5,29 -11,42 -8,14 -24,34 -36,43 -11,9 -32,26 -46,30 -2,-4 -38,-52 -41,-55 -11,11 -31,43 -40,52l-3 3c-10,-5 -24,-14 -32,-20 -19,-14 -38,-33 -49,-54 -6,-12 -10,-26 -10,-40 -3,1 -1,0 -3,2 0,0 -2,2 -2,2l-8 13c-5,8 -16,34 -16,42 -1,6 3,4 3,25 11,9 11,7 19,18 5,6 19,30 16,38l-1 3c-1,4 0,5 1,10 7,32 5,92 -23,108 -8,4 -12,3 -19,6 -4,1 -5,3 -9,4 -20,6 -33,-2 -19,-29 8,-1 12,0 18,4 7,4 8,9 15,8 34,-6 31,-88 24,-106 -2,-4 0,0 -3,-2 -9,-8 -2,-10 -14,-28 -32,-46 -71,4 -73,6 -7,4 -4,-5 -13,7 -12,19 -24,37 -29,64 -3,17 0,29 9,37 8,5 19,-8 34,3 2,3 0,22 -6,25 -7,4 -18,-2 -22,-6 -4,-4 -4,-5 -7,-9 -3,-3 -6,-4 -8,-6 -32,-29 3,-91 23,-119 4,-6 2,-4 1,-9 9,-6 25,-31 57,-33z"/>
   <path class="fil0" d="M136 102c5,-2 15,-10 21,-14 16,-10 50,-29 66,-37 26,-12 71,-32 105,-32 50,1 168,60 190,85 -4,19 -12,44 -18,64 -3,11 -5,23 -20,20 -9,-1 -58,-48 -155,-48 -99,1 -141,49 -155,49 -13,0 -14,-12 -17,-23 -4,-15 -16,-50 -17,-64zm135 381c-4,-4 -11,-8 -16,-11 -35,-25 -58,-86 -61,-128 -7,-105 95,-158 182,-128 57,19 89,74 83,134 -5,44 -27,97 -64,125 -4,3 -9,5 -13,8 40,-2 98,-19 131,-44 11,-11 26,-20 30,-46 6,-33 -6,-102 -17,-136 -7,-22 -22,-49 -23,-55 12,-6 14,-21 18,-37 4,-15 8,-30 12,-44 7,-25 9,-24 -8,-37 -42,-31 -143,-84 -198,-84 -49,0 -129,40 -164,61 -12,8 -22,14 -33,22 -19,13 -17,13 -10,38l18 66c4,9 9,11 13,16 -19,34 -32,76 -38,121 -5,36 -10,71 12,100 27,35 105,58 146,59z"/>
   <path class="fil1" d="M313 68l-34 0 0 27 34 0 0 32c6,1 22,2 28,0l0 -32 33 0 0 -27 -33 0 0 -32c-6,-1 -22,-1 -28,0l0 32z"/>
  </g>
 </g>
</svg>
