<?xml version="1.0" encoding="UTF-8"?>
<!DOCTYPE svg PUBLIC "-//W3C//DTD SVG 1.1//EN" "http://www.w3.org/Graphics/SVG/1.1/DTD/svg11.dtd">
<!-- Creator: CorelDRAW X7 -->
<svg xmlns="http://www.w3.org/2000/svg" xml:space="preserve" width="60.3734mm" height="60.402mm" version="1.1" style="shape-rendering:geometricPrecision; text-rendering:geometricPrecision; image-rendering:optimizeQuality; fill-rule:evenodd; clip-rule:evenodd"
viewBox="0 0 2945 2946"
 xmlns:xlink="http://www.w3.org/1999/xlink">
 <defs>
  <style type="text/css">
   <![CDATA[
    .fil0 {fill:black}
    .fil1 {fill:#026802}
   ]]>
  </style>
 </defs>
 <g id="Camada_x0020_1">
  <metadata id="CorelCorpID_0Corel-Layer"/>
  <g id="_997568032">
   <path class="fil0" d="M2209 2749c0,-62 98,-62 98,0 0,62 -98,62 -98,0zm98 -2504c0,22 -28,50 -49,50 -34,0 -67,-48 -33,-82 34,-34 82,-2 82,32zm-190 -49c-222,0 -169,-37 -280,186 -15,29 -45,82 -52,109l-165 0 0 98c268,0 214,31 298,-137 18,-36 68,-125 76,-157l123 0c13,24 22,47 45,65 92,70 243,31 243,-127 0,-99 -129,-183 -240,-104 -24,17 -34,40 -48,67zm533 491c0,-62 99,-62 99,0 0,62 -99,62 -99,0zm-92 -49c-243,0 -211,-29 -278,71 -14,21 -41,55 -47,76l-122 0 0 99c183,0 164,16 218,-64 14,-22 46,-62 52,-84l177 0c38,71 68,98 154,98 75,0 135,-64 135,-159 0,-109 -140,-179 -240,-105 -22,17 -35,43 -49,68zm191 835c0,-62 98,-62 98,0 0,62 -98,62 -98,0zm-105 -50l-288 0 0 99 288 0c19,0 18,12 28,27 75,121 273,88 273,-89 0,-135 -201,-188 -271,-68 -9,15 -11,31 -30,31zm-43 884c0,-62 99,-62 99,0 0,62 -99,62 -99,0zm-441 -196c138,0 97,-38 177,165 40,100 39,80 172,80 38,71 68,98 154,98 75,0 135,-64 135,-159 0,-128 -189,-194 -271,-69 -23,35 -2,32 -73,32 -22,0 -25,-30 -38,-61l-56 -140c-28,-62 -56,-44 -200,-44l0 98zm-540 343l208 0c3,29 24,89 33,121 13,43 23,83 35,125 34,122 25,98 221,98 37,71 67,98 153,98 75,0 135,-64 135,-160 0,-108 -140,-178 -240,-104 -22,16 -35,43 -48,68l-117 0 -77 -279c-10,-33 -17,-65 -58,-65l-245 0 0 98zm-393 -2417l0 135c-39,0 -165,34 -196,49 -6,-24 -25,-53 -37,-74 -60,-104 -78,-50 -274,57l-148 86c-83,49 18,118 35,182 -22,6 -129,113 -135,135 -58,-15 -134,-115 -180,-39l-87 152c-106,194 -161,214 -61,271l77 40c-15,31 -49,157 -49,196 -65,0 -172,-16 -172,37l0 405c0,68 95,49 166,49 10,21 17,72 24,98 9,35 23,64 31,98 -23,6 -53,26 -74,37 -83,48 -65,66 -1,173l144 249c49,83 118,-18 182,-35 6,22 113,129 135,135 -15,58 -115,134 -39,180 19,11 33,18 51,29 59,33 273,171 313,171 44,0 52,-43 79,-87 10,-16 15,-21 20,-42 31,7 60,19 94,29 28,8 82,17 102,27 0,192 -33,165 245,165 30,0 50,-19 50,-49l0 -491c0,-43 -27,-47 -68,-49 -199,-11 -361,-67 -516,-183l-93 -79c-67,-74 -122,-152 -168,-243 -172,-340 -78,-731 165,-997 30,-32 127,-107 164,-130 52,-31 95,-53 157,-76 60,-23 114,-38 186,-48 27,-4 76,-9 105,-11 41,-2 68,-6 68,-49l0 -491c0,-30 -20,-49 -50,-49l-208 0c-15,0 -37,22 -37,37z"/>
   <path class="fil1" d="M902 1847l180 -59c50,-18 28,-22 144,66 156,117 93,51 345,-118 15,23 98,90 98,111l0 80c-30,0 -82,17 -111,24 -105,26 -86,7 -86,209 -65,0 -140,-17 -191,-30 -55,-14 -110,-40 -154,-66 -79,-48 -182,-136 -225,-217zm853 -816l233 0c17,0 12,5 21,15l48 69c93,150 126,340 82,515 -14,56 -43,121 -47,137 -22,-6 -97,-84 -110,-104 86,-164 101,-67 49,-276 -11,-45 -15,-111 -68,-111 -44,0 -90,33 -135,37 -5,-19 -29,-46 -42,-62 -75,-100 -64,-78 -50,-134 6,-24 18,-60 19,-86zm-510 294c-40,0 -165,-8 -191,5 -25,13 -53,113 -60,143l-209 0c0,-122 41,-253 99,-350 27,-46 58,-87 96,-124 45,-45 71,-68 124,-103 5,20 70,150 82,164 17,20 134,80 164,87l-105 178zm-49 -478c177,-94 437,-69 606,26 24,13 75,42 88,60 -43,0 -86,0 -129,0 -55,-1 -77,-5 -92,37 -8,24 -49,185 -49,208 0,33 108,163 134,197 62,84 67,42 173,18 8,16 13,50 19,72 9,36 17,40 -4,72 -108,156 -101,129 4,235 26,25 64,69 91,87 -93,139 -307,288 -466,288l0 -98c31,0 83,-18 115,-25 99,-25 81,-21 81,-208 0,-37 -107,-128 -137,-158 -52,-53 -63,-52 -126,-1 -31,25 -159,134 -185,141 -198,-133 -113,-160 -332,-87 -33,11 -109,41 -140,44 -12,-49 -49,-115 -49,-184l233 0c51,0 73,-95 86,-148 48,0 113,4 159,1 44,-4 52,-37 81,-85 21,-35 40,-67 60,-100 86,-144 68,-127 -13,-176 -31,-19 -59,-33 -93,-49 -59,-26 -40,-12 -70,-71l-45 -96zm-509 589c0,161 11,231 74,374 109,247 399,448 675,448 161,0 231,-10 374,-74 247,-109 448,-399 448,-675 0,-161 -11,-231 -74,-374 -109,-247 -399,-448 -675,-448 -161,0 -231,10 -374,74 -152,67 -307,222 -374,374 -35,79 -74,189 -74,301z"/>
  </g>
 </g>
</svg>
