<?xml version="1.0" encoding="UTF-8"?>
<!DOCTYPE svg PUBLIC "-//W3C//DTD SVG 1.1//EN" "http://www.w3.org/Graphics/SVG/1.1/DTD/svg11.dtd">
<!-- Creator: CorelDRAW X7 -->
<svg xmlns="http://www.w3.org/2000/svg" xml:space="preserve" width="60.3719mm" height="60.1567mm" version="1.1" style="shape-rendering:geometricPrecision; text-rendering:geometricPrecision; image-rendering:optimizeQuality; fill-rule:evenodd; clip-rule:evenodd"
viewBox="0 0 4277 4261"
 xmlns:xlink="http://www.w3.org/1999/xlink">
 <defs>
  <style type="text/css">
   <![CDATA[
    .fil1 {fill:black}
    .fil0 {fill:#026802;fill-rule:nonzero}
   ]]>
  </style>
 </defs>
 <g id="Camada_x0020_1">
  <metadata id="CorelCorpID_0Corel-Layer"/>
  <g id="_1064793808">
   <g>
    <path class="fil0" d="M3093 3196c-227,204 -521,337 -844,362l0 -215c0,-61 -50,-111 -111,-111 -60,0 -110,50 -110,111l0 215c-37,-3 -74,-8 -111,-13 -613,-96 -1097,-580 -1193,-1193 -5,-37 -10,-74 -13,-111l215 0c61,0 111,-50 111,-110 0,-61 -50,-111 -111,-111l-215 0c25,-323 158,-617 362,-844 239,-267 577,-444 955,-473l0 216c0,60 50,110 110,110 61,0 111,-50 111,-110l0 -216c702,54 1263,615 1317,1317l-216 0c-60,0 -110,50 -110,111 0,60 50,110 110,110l216 0c-29,379 -206,716 -473,955zm-955 -2719c-484,0 -920,209 -1222,541 -268,294 -431,685 -431,1113 0,912 742,1653 1653,1653 428,0 819,-163 1113,-431 332,-302 541,-738 541,-1222 0,-912 -742,-1654 -1654,-1654z"/>
    <path class="fil0" d="M3300 1601c-13,-27 -46,-39 -74,-26l-954 458c-30,-41 -78,-68 -134,-68 -64,0 -119,37 -147,91l-520 -150c-29,-8 -60,9 -68,38 -9,29 8,60 38,68l455 131 81 23c16,75 82,130 161,130 17,0 33,-3 48,-7 42,-13 78,-43 98,-82 11,-20 18,-42 19,-66l887 -426 84 -40c27,-13 39,-46 26,-74z"/>
   </g>
   <g>
    <path class="fil1" d="M138 1859c-4,-43 46,-229 60,-276 76,-255 190,-468 343,-667 138,-178 329,-353 524,-467 52,-31 159,-95 217,-112 -12,23 -35,49 -52,72 -12,16 -48,60 -54,75 -16,38 5,72 34,82 42,13 62,-20 78,-42 37,-49 73,-95 109,-145 19,-26 35,-47 55,-73 16,-21 48,-51 40,-90 -7,-35 -37,-43 -67,-58l-252 -129c-98,-50 -125,63 -70,96 29,18 155,73 166,89 -42,20 -80,34 -121,55 -119,59 -232,127 -334,209 -353,279 -608,645 -736,1103 -15,55 -66,270 -60,318 -11,67 -12,123 -18,190 3,67 -1,135 3,202 35,686 406,1309 959,1662 207,134 435,224 674,272 181,36 243,29 416,36l65 -4 4 1 145 -11c9,-2 2,-1 8,-3l5 -3c9,1 14,1 23,0 6,-1 7,-1 13,-2 13,-4 5,-1 9,-4 40,2 177,-35 219,-47 66,-18 177,-38 144,-116 -17,-41 -55,-36 -95,-23 -331,113 -707,124 -1047,33 -167,-53 -256,-80 -412,-164 -181,-99 -298,-197 -443,-336 -150,-144 -337,-416 -416,-624 -4,-12 0,-8 -10,-15l-62 -182c-90,-306 -115,-589 -64,-902z"/>
    <path class="fil1" d="M4139 2402c3,44 -46,229 -61,277 -76,254 -189,468 -343,667 -137,177 -329,353 -523,467 -52,30 -160,95 -218,111 13,-22 36,-49 53,-72 11,-15 48,-59 54,-74 16,-38 -6,-73 -35,-82 -42,-14 -61,19 -78,41 -36,50 -72,96 -108,145 -19,26 -36,47 -55,74 -16,20 -48,51 -40,90 7,34 37,42 67,57l251 129c99,51 125,-62 71,-96 -30,-18 -156,-73 -166,-88 41,-20 79,-35 121,-55 119,-60 231,-128 334,-209 353,-280 608,-646 736,-1103 15,-55 66,-271 60,-319 11,-67 12,-122 18,-189 -3,-67 0,-135 -3,-203 -36,-686 -407,-1309 -959,-1662 -208,-133 -435,-223 -675,-271 -181,-37 -242,-30 -416,-37l-65 5 -3 -1 -145 11c-10,2 -2,0 -8,2l-6 3c-9,-1 -13,-1 -22,0 -6,1 -8,1 -13,3 -13,3 -5,1 -10,3 -39,-2 -176,36 -218,47 -66,18 -177,38 -144,116 17,41 54,37 95,23 331,-113 707,-123 1046,-33 167,54 257,81 412,165 182,98 299,196 444,335 150,144 337,416 416,624 3,12 0,8 10,15l62 182c90,306 115,590 64,902z"/>
   </g>
  </g>
 </g>
</svg>
